M48
;Layer_Color=9474304
;FILE_FORMAT=2:5
INCH,LZ
;TYPE=PLATED
T01F00S00C0.01200
T03F00S00C0.02756
T04F00S00C0.03543
T05F00S00C0.03937
T06F00S00C0.04331
T07F00S00C0.04528
T08F00S00C0.05118
T09F00S00C0.06299
T10F00S00C0.07200
%
T01
X00075Y0008
Y0014
Y00195
X00145
Y0014
X0014667Y0008
X0021833
X0022Y0014
Y00195
X00285
Y0014
X0029Y0008
X0077Y0042
X0081
X00805Y00495
X0077
X0222763Y0072
X0227237
X02175Y00835
X02315Y00925
X02285Y01045
X0213414Y0111
X0217366Y0115134
X02195Y01175
X021502Y0126526
X0226Y0125
X02385Y01275
Y01315
X02425Y01275
X02505Y0121
X0255Y0139839
Y0145
X0261Y01465
X02695Y01425
X0282Y01485
X02925Y0168
X0286Y019
X02705Y0178
X02535Y0174
X0252Y0181
X0246Y01795
X0249Y0191
X0258Y0194
X02585Y01675
X02465Y01565
X0237Y015
X0236Y0146
X02325
X0228Y01425
X02285Y0139
X02215Y01435
X0224Y01465
X0227Y01495
X023Y01525
X02235Y01535
X02205Y015
X02175Y0147
X02145Y015
X02175Y0154
X02155Y01615
Y0167
X0219Y01645
X0222Y0162
X02255Y01655
X0223Y0168
X02295
X0232Y01655
X0229Y01625
X02345Y01615
X02265Y0171
X02225Y01745
X0219Y01705
X022Y01945
X02135Y0194
Y019
X02155Y02045
X0223Y02075
X0303Y0202
X0328Y02015
X03405Y0185
X0346Y0172
X0348Y0133
X03495Y01235
Y00955
X0345Y0092177
X0322Y0084
X0311Y0131
X03125Y0136
X0295Y01235
X02865Y0115
X02615Y0094
X021Y01085
X0212Y01225
X02025Y01315
X01965Y01345
X019Y0141
X01905Y01465
X0211Y0153
Y01635
X0207Y01605
X02055Y0189
X0199Y0187
Y0192
X0168Y01955
X0163Y02
X01675Y01865
X0152Y0192
X0138Y02065
X0123Y021
X0142Y0117
X01835Y01135
X0062Y0083
X00625Y00795
X0062667Y0076
X0067
X0058333
X00585Y008
Y0084
X0054Y0086
Y00805
Y0076
X00275
X0027Y0082
Y00875
X00205
Y0082
X0020333Y0076
X0013167
X0013Y0082
Y00875
X0006
Y0082
Y0076
X0007Y02585
X00325Y02545
X00855Y02475
X00825Y02435
X02235Y0217
X02525Y02275
X02795Y0224858
X0299Y02305
T03
X03605Y00995
X03655
Y01045
Y01095
Y01145
Y01195
X03605
Y01145
Y01095
Y01045
T04
X0015Y0134815
Y0144658
Y01545
Y0179315
Y0189157
Y0199
Y0223815
Y0233658
Y02435
T05
X0367567Y0014157
Y0024
Y0033843
X03675Y0278
Y0287842
Y0297685
T06
X01215Y01475
Y01575
Y01675
T07
X03555Y017
X03655
Y018
X03555
Y019
X03655
Y02
X03555
Y021
X03655
X0071Y0204
Y0194
Y0184
Y0174
Y0164
X0061
Y0174
Y0184
Y0194
Y0204
T08
X0026Y0292
Y0302
T09
X01445Y00445
X01645
X01845
X02045
X0239Y0042
X0259
X0279
X0299
X0319
X0339
X02035Y02695
X01835
X01635
X01435
X0239Y0272051
X0259
X0279
X0299
X0319
X0339
T10
X006725Y0270342
X009975
M30
