G04*
G04 #@! TF.GenerationSoftware,Altium Limited,Altium Designer,25.5.2 (35)*
G04*
G04 Layer_Color=65535*
%FSLAX25Y25*%
%MOIN*%
G70*
G04*
G04 #@! TF.SameCoordinates,D66E9047-1B96-4A49-AC18-2C29B9855DE9*
G04*
G04*
G04 #@! TF.FilePolarity,Positive*
G04*
G01*
G75*
%ADD10C,0.00984*%
%ADD11C,0.00787*%
%ADD12C,0.01000*%
%ADD13C,0.00000*%
%ADD14C,0.00600*%
%ADD15C,0.00500*%
%ADD16C,0.00394*%
%ADD17C,0.00800*%
%ADD18R,0.05400X0.01530*%
D10*
X163634Y75134D02*
G03*
X163634Y75134I-492J0D01*
G01*
X181350Y239866D02*
G03*
X181350Y239866I-492J0D01*
G01*
X32480Y70579D02*
G03*
X32480Y70579I-492J0D01*
G01*
D11*
X293730Y221470D02*
G03*
X293730Y221470I-394J0D01*
G01*
X179335Y293933D02*
G03*
X179335Y293933I-394J0D01*
G01*
X306564Y96664D02*
G03*
X306564Y96664I-394J0D01*
G01*
X136913Y20000D02*
G03*
X136913Y20000I-394J0D01*
G01*
X375394Y102795D02*
G03*
X375394Y102795I-394J0D01*
G01*
X160189Y84878D02*
Y107122D01*
X167177Y107811D02*
X176823D01*
X183811Y84878D02*
Y107122D01*
X167177Y84189D02*
X176823D01*
X183811Y207878D02*
Y230122D01*
X167177Y207189D02*
X176823D01*
X160189Y207878D02*
Y230122D01*
X167177Y230811D02*
X176823D01*
X15256Y75992D02*
X20177D01*
X787D02*
X3642D01*
X787Y40008D02*
Y75992D01*
X15256Y40008D02*
X20177D01*
X787D02*
X3642D01*
D12*
X219342Y157500D02*
G03*
X219342Y157500I-1113J0D01*
G01*
X367300Y212500D02*
G03*
X367300Y212500I-300J0D01*
G01*
X18300D02*
G03*
X18300Y212500I-300J0D01*
G01*
X155999Y84504D02*
X150001D01*
Y87504D01*
X151001Y88503D01*
X153000D01*
X154000Y87504D01*
Y84504D01*
Y86504D02*
X155999Y88503D01*
X150001Y94501D02*
Y90503D01*
X155999D01*
Y94501D01*
X153000Y90503D02*
Y92502D01*
X151001Y100499D02*
X150001Y99500D01*
Y97500D01*
X151001Y96501D01*
X152000D01*
X153000Y97500D01*
Y99500D01*
X154000Y100499D01*
X154999D01*
X155999Y99500D01*
Y97500D01*
X154999Y96501D01*
X150001Y106497D02*
Y102499D01*
X155999D01*
Y106497D01*
X153000Y102499D02*
Y104498D01*
X150001Y108497D02*
Y112496D01*
Y110496D01*
X155999D01*
X275000Y221167D02*
Y219834D01*
X277000D01*
Y221167D01*
X276000Y219834D02*
Y220501D01*
X277000Y221834D02*
X275000D01*
X277000Y223167D01*
X275000D01*
X275333Y225166D02*
X275000Y224833D01*
Y224166D01*
X275333Y223833D01*
X276666D01*
X277000Y224166D01*
Y224833D01*
X276666Y225166D01*
X277000Y225833D02*
X275667D01*
X275000Y226499D01*
X275667Y227166D01*
X277000D01*
X276000D01*
Y225833D01*
X331500Y218167D02*
Y216834D01*
X333500D01*
Y218167D01*
X332500Y216834D02*
Y217501D01*
X333500Y218834D02*
X331500D01*
X333500Y220167D01*
X331500D01*
X331834Y222166D02*
X331500Y221833D01*
Y221166D01*
X331834Y220833D01*
X333166D01*
X333500Y221166D01*
Y221833D01*
X333166Y222166D01*
X331500Y222833D02*
X333500D01*
Y223832D01*
X333166Y224166D01*
X332833D01*
X332500Y223832D01*
Y222833D01*
Y223832D01*
X332167Y224166D01*
X331834D01*
X331500Y223832D01*
Y222833D01*
X303167Y106000D02*
X301835D01*
Y104000D01*
X303167D01*
X301835Y105000D02*
X302501D01*
X303834Y104000D02*
Y106000D01*
X305167Y104000D01*
Y106000D01*
X307166Y105666D02*
X306833Y106000D01*
X306167D01*
X305833Y105666D01*
Y104334D01*
X306167Y104000D01*
X306833D01*
X307166Y104334D01*
X307833Y104000D02*
Y105333D01*
X308499Y106000D01*
X309166Y105333D01*
Y104000D01*
Y105000D01*
X307833D01*
X290000Y66667D02*
Y65334D01*
X292000D01*
Y66667D01*
X291000Y65334D02*
Y66001D01*
X292000Y67334D02*
X290000D01*
X292000Y68667D01*
X290000D01*
X290334Y70666D02*
X290000Y70333D01*
Y69666D01*
X290334Y69333D01*
X291666D01*
X292000Y69666D01*
Y70333D01*
X291666Y70666D01*
X290000Y71333D02*
X292000D01*
Y72332D01*
X291666Y72666D01*
X291333D01*
X291000Y72332D01*
Y71333D01*
Y72332D01*
X290667Y72666D01*
X290334D01*
X290000Y72332D01*
Y71333D01*
X287503Y241499D02*
Y236501D01*
X288502Y235501D01*
X290502D01*
X291501Y236501D01*
Y241499D01*
X293501Y240499D02*
X294500Y241499D01*
X296500D01*
X297499Y240499D01*
Y239500D01*
X296500Y238500D01*
X295500D01*
X296500D01*
X297499Y237500D01*
Y236501D01*
X296500Y235501D01*
X294500D01*
X293501Y236501D01*
X299499Y235501D02*
Y239500D01*
X301498Y241499D01*
X303497Y239500D01*
Y235501D01*
Y238500D01*
X299499D01*
X303999Y261003D02*
X298001D01*
Y264002D01*
X299001Y265002D01*
X301000D01*
X302000Y264002D01*
Y261003D01*
Y263003D02*
X303999Y265002D01*
Y267002D02*
Y269001D01*
Y268001D01*
X298001D01*
X299001Y267002D01*
Y272000D02*
X298001Y273000D01*
Y274999D01*
X299001Y275998D01*
X300000D01*
X301000Y274999D01*
Y273999D01*
Y274999D01*
X302000Y275998D01*
X302999D01*
X303999Y274999D01*
Y273000D01*
X302999Y272000D01*
X303999Y277998D02*
X300000D01*
X298001Y279997D01*
X300000Y281997D01*
X303999D01*
X301000D01*
Y277998D01*
X256503Y259501D02*
Y265499D01*
X259502D01*
X260502Y264499D01*
Y262500D01*
X259502Y261500D01*
X256503D01*
X258503D02*
X260502Y259501D01*
X262502D02*
X264501D01*
X263501D01*
Y265499D01*
X262502Y264499D01*
X270499Y259501D02*
Y265499D01*
X267500Y262500D01*
X271498D01*
X273498Y259501D02*
Y263500D01*
X275497Y265499D01*
X277497Y263500D01*
Y259501D01*
Y262500D01*
X273498D01*
X342001Y287499D02*
X340002D01*
X341002D01*
Y282501D01*
X340002Y281501D01*
X339002D01*
X338003Y282501D01*
X344001Y286499D02*
X345000Y287499D01*
X347000D01*
X347999Y286499D01*
Y285500D01*
X347000Y284500D01*
X346000D01*
X347000D01*
X347999Y283500D01*
Y282501D01*
X347000Y281501D01*
X345000D01*
X344001Y282501D01*
X349999Y281501D02*
Y285500D01*
X351998Y287499D01*
X353997Y285500D01*
Y281501D01*
Y284500D01*
X349999D01*
X284501Y291999D02*
X282502D01*
X283502D01*
Y287001D01*
X282502Y286001D01*
X281502D01*
X280503Y287001D01*
X289500Y286001D02*
Y291999D01*
X286501Y289000D01*
X290499D01*
X292499Y286001D02*
Y290000D01*
X294498Y291999D01*
X296497Y290000D01*
Y286001D01*
Y289000D01*
X292499D01*
X124501Y307499D02*
X122502D01*
X123501D01*
Y302501D01*
X122502Y301501D01*
X121502D01*
X120502Y302501D01*
X126500Y301501D02*
X128499D01*
X127500D01*
Y307499D01*
X126500Y306499D01*
X131499Y301501D02*
X133498D01*
X132498D01*
Y307499D01*
X131499Y306499D01*
X160003Y196499D02*
Y190501D01*
Y193500D01*
X164001D01*
Y196499D01*
Y190501D01*
X166001Y196499D02*
Y190501D01*
X168000Y192500D01*
X169999Y190501D01*
Y196499D01*
X171999D02*
Y190501D01*
X174998D01*
X175997Y191501D01*
Y192500D01*
X174998Y193500D01*
X171999D01*
X174998D01*
X175997Y194500D01*
Y195499D01*
X174998Y196499D01*
X171999D01*
X175001Y170499D02*
Y164501D01*
X179000D01*
X180999D02*
X182999D01*
X181999D01*
Y170499D01*
X180999Y169499D01*
X9000Y270999D02*
X7001D01*
X8001D01*
Y266001D01*
X7001Y265001D01*
X6001D01*
X5002Y266001D01*
X11000Y270999D02*
X14998D01*
Y269999D01*
X11000Y266001D01*
Y265001D01*
X52000Y308499D02*
X50001D01*
X51001D01*
Y303501D01*
X50001Y302501D01*
X49001D01*
X48002Y303501D01*
X57998Y308499D02*
X54000D01*
Y305500D01*
X55999Y306500D01*
X56999D01*
X57998Y305500D01*
Y303501D01*
X56999Y302501D01*
X54999D01*
X54000Y303501D01*
X236501Y126499D02*
Y121501D01*
X237501Y120501D01*
X239500D01*
X240500Y121501D01*
Y126499D01*
X242499Y120501D02*
X244499D01*
X243499D01*
Y126499D01*
X242499Y125499D01*
X201000Y114499D02*
X200001Y115499D01*
X198001D01*
X197002Y114499D01*
Y110501D01*
X198001Y109501D01*
X200001D01*
X201000Y110501D01*
X203000Y114499D02*
X203999Y115499D01*
X205999D01*
X206998Y114499D01*
Y113500D01*
X205999Y112500D01*
X204999D01*
X205999D01*
X206998Y111500D01*
Y110501D01*
X205999Y109501D01*
X203999D01*
X203000Y110501D01*
X197000Y95499D02*
X196001Y96499D01*
X194001D01*
X193002Y95499D01*
Y91501D01*
X194001Y90501D01*
X196001D01*
X197000Y91501D01*
X201999Y90501D02*
Y96499D01*
X199000Y93500D01*
X202998D01*
X310503Y101499D02*
Y96501D01*
X311502Y95501D01*
X313502D01*
X314501Y96501D01*
Y101499D01*
X316501Y100499D02*
X317500Y101499D01*
X319500D01*
X320499Y100499D01*
Y99500D01*
X319500Y98500D01*
X318500D01*
X319500D01*
X320499Y97500D01*
Y96501D01*
X319500Y95501D01*
X317500D01*
X316501Y96501D01*
X322499Y101499D02*
Y95501D01*
X325498D01*
X326497Y96501D01*
Y97500D01*
X325498Y98500D01*
X322499D01*
X325498D01*
X326497Y99500D01*
Y100499D01*
X325498Y101499D01*
X322499D01*
X286499Y31503D02*
X280501D01*
Y34502D01*
X281501Y35502D01*
X283500D01*
X284500Y34502D01*
Y31503D01*
Y33503D02*
X286499Y35502D01*
Y37501D02*
Y39501D01*
Y38501D01*
X280501D01*
X281501Y37501D01*
X286499Y45499D02*
X280501D01*
X283500Y42500D01*
Y46499D01*
X280501Y48498D02*
X286499D01*
Y51497D01*
X285499Y52497D01*
X284500D01*
X283500Y51497D01*
Y48498D01*
Y51497D01*
X282500Y52497D01*
X281501D01*
X280501Y51497D01*
Y48498D01*
X305999Y31503D02*
X300001D01*
Y34502D01*
X301001Y35502D01*
X303000D01*
X304000Y34502D01*
Y31503D01*
Y33503D02*
X305999Y35502D01*
Y37501D02*
Y39501D01*
Y38501D01*
X300001D01*
X301001Y37501D01*
Y42500D02*
X300001Y43499D01*
Y45499D01*
X301001Y46499D01*
X302000D01*
X303000Y45499D01*
Y44499D01*
Y45499D01*
X304000Y46499D01*
X304999D01*
X305999Y45499D01*
Y43499D01*
X304999Y42500D01*
X300001Y48498D02*
X305999D01*
Y51497D01*
X304999Y52497D01*
X304000D01*
X303000Y51497D01*
Y48498D01*
Y51497D01*
X302000Y52497D01*
X301001D01*
X300001Y51497D01*
Y48498D01*
X40000Y91999D02*
X39001Y92999D01*
X37001D01*
X36002Y91999D01*
Y88001D01*
X37001Y87001D01*
X39001D01*
X40000Y88001D01*
X42000Y92999D02*
X45998D01*
Y91999D01*
X42000Y88001D01*
Y87001D01*
X47002Y72001D02*
Y77999D01*
X50002D01*
X51001Y76999D01*
Y75000D01*
X50002Y74000D01*
X47002D01*
X49002D02*
X51001Y72001D01*
X53000D02*
X55000D01*
X54000D01*
Y77999D01*
X53000Y76999D01*
X61998Y72001D02*
X57999D01*
X61998Y76000D01*
Y76999D01*
X60998Y77999D01*
X58999D01*
X57999Y76999D01*
X51002Y69499D02*
Y63501D01*
X54001D01*
X55000Y64501D01*
Y68499D01*
X54001Y69499D01*
X51002D01*
X59999Y63501D02*
Y69499D01*
X57000Y66500D01*
X60998D01*
X51502Y53499D02*
Y47501D01*
X54501D01*
X55500Y48501D01*
Y52499D01*
X54501Y53499D01*
X51502D01*
X57500Y52499D02*
X58499Y53499D01*
X60499D01*
X61498Y52499D01*
Y51500D01*
X60499Y50500D01*
X59499D01*
X60499D01*
X61498Y49500D01*
Y48501D01*
X60499Y47501D01*
X58499D01*
X57500Y48501D01*
X54502Y36001D02*
Y41999D01*
X57501D01*
X58501Y40999D01*
Y39000D01*
X57501Y38000D01*
X54502D01*
X56502D02*
X58501Y36001D01*
X60500D02*
X62499D01*
X61500D01*
Y41999D01*
X60500Y40999D01*
X65499Y36001D02*
X67498D01*
X66498D01*
Y41999D01*
X65499Y40999D01*
X41002Y25999D02*
Y20001D01*
X44001D01*
X45000Y21001D01*
Y24999D01*
X44001Y25999D01*
X41002D01*
X50998Y20001D02*
X47000D01*
X50998Y24000D01*
Y24999D01*
X49999Y25999D01*
X47999D01*
X47000Y24999D01*
X142502Y141501D02*
Y147499D01*
X145501D01*
X146500Y146499D01*
Y144500D01*
X145501Y143500D01*
X142502D01*
X144501D02*
X146500Y141501D01*
X152498Y147499D02*
X148500D01*
Y144500D01*
X150499Y145500D01*
X151499D01*
X152498Y144500D01*
Y142501D01*
X151499Y141501D01*
X149499D01*
X148500Y142501D01*
X142501Y137499D02*
Y131501D01*
X145500D01*
X146500Y132501D01*
Y136499D01*
X145500Y137499D01*
X142501D01*
X148499Y131501D02*
X150499D01*
X149499D01*
Y137499D01*
X148499Y136499D01*
X153002Y42501D02*
Y48499D01*
X156001D01*
X157000Y47499D01*
Y45500D01*
X156001Y44500D01*
X153002D01*
X155001D02*
X157000Y42501D01*
X159000Y47499D02*
X159999Y48499D01*
X161999D01*
X162998Y47499D01*
Y46500D01*
X161999Y45500D01*
X160999D01*
X161999D01*
X162998Y44500D01*
Y43501D01*
X161999Y42501D01*
X159999D01*
X159000Y43501D01*
X162002Y66001D02*
Y71999D01*
X165001D01*
X166000Y70999D01*
Y69000D01*
X165001Y68000D01*
X162002D01*
X164001D02*
X166000Y66001D01*
X171998D02*
X168000D01*
X171998Y70000D01*
Y70999D01*
X170999Y71999D01*
X168999D01*
X168000Y70999D01*
X184001Y19999D02*
X182002D01*
X183001D01*
Y15001D01*
X182002Y14001D01*
X181002D01*
X180002Y15001D01*
X186001Y14001D02*
X188000D01*
X187000D01*
Y19999D01*
X186001Y18999D01*
X190999D02*
X191999Y19999D01*
X193998D01*
X194998Y18999D01*
Y15001D01*
X193998Y14001D01*
X191999D01*
X190999Y15001D01*
Y18999D01*
X286501Y27999D02*
X284502D01*
X285502D01*
Y23001D01*
X284502Y22001D01*
X283502D01*
X282503Y23001D01*
X291500Y22001D02*
Y27999D01*
X288501Y25000D01*
X292499D01*
X294499Y27999D02*
Y22001D01*
X297498D01*
X298497Y23001D01*
Y24000D01*
X297498Y25000D01*
X294499D01*
X297498D01*
X298497Y26000D01*
Y26999D01*
X297498Y27999D01*
X294499D01*
X318501D02*
X316502D01*
X317502D01*
Y23001D01*
X316502Y22001D01*
X315502D01*
X314503Y23001D01*
X320501Y26999D02*
X321500Y27999D01*
X323500D01*
X324499Y26999D01*
Y26000D01*
X323500Y25000D01*
X322500D01*
X323500D01*
X324499Y24000D01*
Y23001D01*
X323500Y22001D01*
X321500D01*
X320501Y23001D01*
X326499Y27999D02*
Y22001D01*
X329498D01*
X330497Y23001D01*
Y24000D01*
X329498Y25000D01*
X326499D01*
X329498D01*
X330497Y26000D01*
Y26999D01*
X329498Y27999D01*
X326499D01*
X374500Y142999D02*
X372501D01*
X373501D01*
Y138001D01*
X372501Y137001D01*
X371501D01*
X370502Y138001D01*
X380498Y137001D02*
X376500D01*
X380498Y141000D01*
Y141999D01*
X379499Y142999D01*
X377499D01*
X376500Y141999D01*
X374000Y217499D02*
X372001D01*
X373001D01*
Y212501D01*
X372001Y211501D01*
X371001D01*
X370002Y212501D01*
X376000Y216499D02*
X376999Y217499D01*
X378999D01*
X379998Y216499D01*
Y215500D01*
X378999Y214500D01*
X379998Y213500D01*
Y212501D01*
X378999Y211501D01*
X376999D01*
X376000Y212501D01*
Y213500D01*
X376999Y214500D01*
X376000Y215500D01*
Y216499D01*
X376999Y214500D02*
X378999D01*
X70500Y232000D02*
Y237998D01*
X73499D01*
X74499Y236998D01*
Y234999D01*
X73499Y233999D01*
X70500D01*
X72499D02*
X74499Y232000D01*
X76498D02*
X78497D01*
X77498D01*
Y237998D01*
X76498Y236998D01*
X81496D02*
X82496Y237998D01*
X84496D01*
X85495Y236998D01*
Y235999D01*
X84496Y234999D01*
X85495Y233999D01*
Y233000D01*
X84496Y232000D01*
X82496D01*
X81496Y233000D01*
Y233999D01*
X82496Y234999D01*
X81496Y235999D01*
Y236998D01*
X82496Y234999D02*
X84496D01*
X69600Y281300D02*
Y287298D01*
X72599D01*
X73599Y286298D01*
Y284299D01*
X72599Y283299D01*
X69600D01*
X71599D02*
X73599Y281300D01*
X75598D02*
X77597D01*
X76598D01*
Y287298D01*
X75598Y286298D01*
X80596Y287298D02*
X84595D01*
Y286298D01*
X80596Y282300D01*
Y281300D01*
X43700Y242300D02*
Y248298D01*
X46699D01*
X47699Y247298D01*
Y245299D01*
X46699Y244299D01*
X43700D01*
X45699D02*
X47699Y242300D01*
X49698D02*
X51697D01*
X50698D01*
Y248298D01*
X49698Y247298D01*
X58695Y248298D02*
X56696Y247298D01*
X54696Y245299D01*
Y243300D01*
X55696Y242300D01*
X57696D01*
X58695Y243300D01*
Y244299D01*
X57696Y245299D01*
X54696D01*
X43700Y270300D02*
Y276298D01*
X46699D01*
X47699Y275298D01*
Y273299D01*
X46699Y272299D01*
X43700D01*
X45699D02*
X47699Y270300D01*
X49698D02*
X51697D01*
X50698D01*
Y276298D01*
X49698Y275298D01*
X58695Y276298D02*
X54696D01*
Y273299D01*
X56696Y274299D01*
X57696D01*
X58695Y273299D01*
Y271300D01*
X57696Y270300D01*
X55696D01*
X54696Y271300D01*
X161700Y272500D02*
Y278498D01*
X164699D01*
X165699Y277498D01*
Y275499D01*
X164699Y274499D01*
X161700D01*
X163699D02*
X165699Y272500D01*
X170697D02*
Y278498D01*
X167698Y275499D01*
X171697D01*
X11299Y222998D02*
X9299D01*
X10299D01*
Y218000D01*
X9299Y217000D01*
X8300D01*
X7300Y218000D01*
X13298D02*
X14298Y217000D01*
X16297D01*
X17297Y218000D01*
Y221998D01*
X16297Y222998D01*
X14298D01*
X13298Y221998D01*
Y220999D01*
X14298Y219999D01*
X17297D01*
X176000Y257900D02*
Y263898D01*
X178999D01*
X179999Y262898D01*
Y260899D01*
X178999Y259899D01*
X176000D01*
X177999D02*
X179999Y257900D01*
X181998D02*
X183997D01*
X182998D01*
Y263898D01*
X181998Y262898D01*
X110499Y173298D02*
X108499D01*
X109499D01*
Y168300D01*
X108499Y167300D01*
X107500D01*
X106500Y168300D01*
X116497Y173298D02*
X114497Y172298D01*
X112498Y170299D01*
Y168300D01*
X113498Y167300D01*
X115497D01*
X116497Y168300D01*
Y169299D01*
X115497Y170299D01*
X112498D01*
X1000Y86798D02*
Y81800D01*
X2000Y80800D01*
X3999D01*
X4999Y81800D01*
Y86798D01*
X10997Y85798D02*
X9997Y86798D01*
X7998D01*
X6998Y85798D01*
Y84799D01*
X7998Y83799D01*
X9997D01*
X10997Y82799D01*
Y81800D01*
X9997Y80800D01*
X7998D01*
X6998Y81800D01*
X12996Y86798D02*
Y80800D01*
X15995D01*
X16995Y81800D01*
Y82799D01*
X15995Y83799D01*
X12996D01*
X15995D01*
X16995Y84799D01*
Y85798D01*
X15995Y86798D01*
X12996D01*
X22993Y85798D02*
X21993Y86798D01*
X19994D01*
X18994Y85798D01*
Y81800D01*
X19994Y80800D01*
X21993D01*
X22993Y81800D01*
X206599Y241298D02*
X205599Y242298D01*
X203600D01*
X202600Y241298D01*
Y237300D01*
X203600Y236300D01*
X205599D01*
X206599Y237300D01*
X212597Y236300D02*
X208598D01*
X212597Y240299D01*
Y241298D01*
X211597Y242298D01*
X209598D01*
X208598Y241298D01*
X191499Y172898D02*
X190499Y173898D01*
X188500D01*
X187500Y172898D01*
Y168900D01*
X188500Y167900D01*
X190499D01*
X191499Y168900D01*
X193498Y167900D02*
X195497D01*
X194498D01*
Y173898D01*
X193498Y172898D01*
D13*
X210181Y154298D02*
G03*
X210181Y154298I-1000J0D01*
G01*
D14*
X278800Y219300D02*
Y226700D01*
X283100D01*
Y219300D02*
Y226700D01*
X278800Y219300D02*
X283100D01*
X329700Y216800D02*
Y224200D01*
X325400Y216800D02*
X329700D01*
X325400D02*
Y224200D01*
X329700D01*
X302300Y102200D02*
X309700D01*
Y97900D02*
Y102200D01*
X302300Y97900D02*
X309700D01*
X302300D02*
Y102200D01*
X293300Y65300D02*
Y72700D01*
X297600D01*
Y65300D02*
Y72700D01*
X293300Y65300D02*
X297600D01*
X290000Y269000D02*
X296000D01*
Y281000D01*
X290000D02*
X296000D01*
X290000Y269000D02*
Y281000D01*
X270000Y269000D02*
X276000D01*
Y281000D01*
X270000D02*
X276000D01*
X270000Y269000D02*
Y281000D01*
X314000Y295563D02*
X354000D01*
Y308000D01*
X314000D02*
X354000D01*
X314000Y295563D02*
Y308000D01*
X238000Y307437D02*
X298000D01*
X238000Y295000D02*
Y307437D01*
Y295000D02*
X298000D01*
Y307437D01*
X197400Y117300D02*
X201700D01*
Y124700D01*
X197400D02*
X201700D01*
X197400Y117300D02*
Y124700D01*
Y99300D02*
X201700D01*
Y106700D01*
X197400D02*
X201700D01*
X197400Y99300D02*
Y106700D01*
X272000Y43000D02*
X278000D01*
X272000Y31000D02*
Y43000D01*
Y31000D02*
X278000D01*
Y43000D01*
X290000D02*
X296000D01*
X290000Y31000D02*
Y43000D01*
Y31000D02*
X296000D01*
Y43000D01*
X44393Y79900D02*
Y84200D01*
X36993D02*
X44393D01*
X36993Y79900D02*
Y84200D01*
Y79900D02*
X44393D01*
Y72800D02*
Y77100D01*
X36993D02*
X44393D01*
X36993Y72800D02*
Y77100D01*
Y72800D02*
X44393D01*
X44800Y66600D02*
X49200D01*
X44800Y60400D02*
Y66600D01*
Y60400D02*
X49200D01*
Y66600D01*
X44800Y48900D02*
X49200D01*
Y55100D01*
X44800D02*
X49200D01*
X44800Y48900D02*
Y55100D01*
X51700Y37300D02*
Y41600D01*
X44300D02*
X51700D01*
X44300Y37300D02*
Y41600D01*
Y37300D02*
X51700D01*
X43100Y27800D02*
Y32200D01*
X36900D02*
X43100D01*
X36900Y27800D02*
Y32200D01*
Y27800D02*
X43100D01*
X135800Y149607D02*
X140100D01*
Y157007D01*
X135800D02*
X140100D01*
X135800Y149607D02*
Y157007D01*
X135600Y129300D02*
Y138100D01*
X140400D01*
Y129300D02*
Y138100D01*
X135600Y129300D02*
X140400D01*
X143300Y42900D02*
Y47200D01*
Y42900D02*
X150700D01*
Y47200D01*
X143300D02*
X150700D01*
X160900Y64700D02*
X165200D01*
X160900Y57300D02*
Y64700D01*
Y57300D02*
X165200D01*
Y64700D01*
X238000Y20437D02*
X298000D01*
X238000Y8000D02*
Y20437D01*
Y8000D02*
X298000D01*
Y20437D01*
X315000D02*
X355000D01*
X315000D02*
X315000Y8000D01*
X355000D01*
Y20437D01*
X43000Y267000D02*
X55000D01*
Y261000D02*
Y267000D01*
X43000Y261000D02*
X55000D01*
X43000D02*
Y267000D01*
Y239000D02*
X55000D01*
Y233000D02*
Y239000D01*
X43000Y233000D02*
X55000D01*
X43000D02*
Y239000D01*
X69800Y221300D02*
Y228700D01*
X74100D01*
Y221300D02*
Y228700D01*
X69800Y221300D02*
X74100D01*
X73200Y270607D02*
Y278007D01*
X68900Y270607D02*
X73200D01*
X68900D02*
Y278007D01*
X73200D01*
X160993Y269200D02*
X168393D01*
Y264900D02*
Y269200D01*
X160993Y264900D02*
X168393D01*
X160993D02*
Y269200D01*
X108750Y164000D02*
X117250D01*
Y146000D02*
Y164000D01*
X108750Y146000D02*
X117250D01*
X108750D02*
Y164000D01*
X186800Y164600D02*
X194200D01*
Y160300D02*
Y164600D01*
X186800Y160300D02*
X194200D01*
X186800D02*
Y164600D01*
X175300Y250300D02*
X182700D01*
X175300D02*
Y254600D01*
X182700D01*
Y250300D02*
Y254600D01*
X201900Y225607D02*
Y233007D01*
X206200D01*
Y225607D02*
Y233007D01*
X201900Y225607D02*
X206200D01*
X199400Y151800D02*
Y159200D01*
X203700D01*
Y151800D02*
Y159200D01*
X199400Y151800D02*
X203700D01*
X7100Y132600D02*
Y137932D01*
X9766Y140597D01*
X12432Y137932D01*
Y132600D01*
Y136599D01*
X7100D01*
X15097Y132600D02*
Y140597D01*
X17763Y137932D01*
X20429Y140597D01*
Y132600D01*
X23095D02*
Y140597D01*
X27093D01*
X28426Y139265D01*
Y136599D01*
X27093Y135266D01*
X23095D01*
X25761D02*
X28426Y132600D01*
X11170Y124600D02*
X8885Y130598D01*
X6600Y124600D01*
X7457Y126599D02*
X10313D01*
X13427Y130598D02*
Y125742D01*
X13713Y124885D01*
X14284Y124600D01*
X14855D01*
X12570Y128599D02*
X14570D01*
X15712D02*
Y124600D01*
Y127456D02*
X16569Y128313D01*
X17141Y128599D01*
X17998D01*
X18569Y128313D01*
X18855Y127456D01*
Y124600D01*
Y127456D02*
X19712Y128313D01*
X20283Y128599D01*
X21140D01*
X21711Y128313D01*
X21997Y127456D01*
Y124600D01*
X23882Y126885D02*
X27310D01*
Y127456D01*
X27024Y128027D01*
X26739Y128313D01*
X26167Y128599D01*
X25310D01*
X24739Y128313D01*
X24168Y127742D01*
X23882Y126885D01*
Y126313D01*
X24168Y125457D01*
X24739Y124885D01*
X25310Y124600D01*
X26167D01*
X26739Y124885D01*
X27310Y125457D01*
X32023Y128599D02*
Y124028D01*
X31738Y123171D01*
X31452Y122886D01*
X30880Y122600D01*
X30024D01*
X29452Y122886D01*
X32023Y127742D02*
X31452Y128313D01*
X30880Y128599D01*
X30024D01*
X29452Y128313D01*
X28881Y127742D01*
X28595Y126885D01*
Y126313D01*
X28881Y125457D01*
X29452Y124885D01*
X30024Y124600D01*
X30880D01*
X31452Y124885D01*
X32023Y125457D01*
X37051Y128599D02*
Y124600D01*
Y127742D02*
X36479Y128313D01*
X35908Y128599D01*
X35051D01*
X34480Y128313D01*
X33908Y127742D01*
X33623Y126885D01*
Y126313D01*
X33908Y125457D01*
X34480Y124885D01*
X35051Y124600D01*
X35908D01*
X36479Y124885D01*
X37051Y125457D01*
X39222Y130598D02*
X42364D01*
X40650Y128313D01*
X41507D01*
X42078Y128027D01*
X42364Y127742D01*
X42649Y126885D01*
Y126313D01*
X42364Y125457D01*
X41793Y124885D01*
X40936Y124600D01*
X40078D01*
X39222Y124885D01*
X38936Y125171D01*
X38650Y125742D01*
X44278Y129170D02*
Y129456D01*
X44563Y130027D01*
X44849Y130313D01*
X45420Y130598D01*
X46563D01*
X47134Y130313D01*
X47420Y130027D01*
X47706Y129456D01*
Y128884D01*
X47420Y128313D01*
X46848Y127456D01*
X43992Y124600D01*
X47991D01*
X49334Y130598D02*
Y126313D01*
X49619Y125457D01*
X50191Y124885D01*
X51048Y124600D01*
X51619D01*
X52476Y124885D01*
X53047Y125457D01*
X53333Y126313D01*
Y130598D01*
X57846D02*
X54990Y126599D01*
X59274D01*
X57846Y130598D02*
Y124600D01*
X69329Y129170D02*
X69044Y129741D01*
X68472Y130313D01*
X67901Y130598D01*
X66759D01*
X66187Y130313D01*
X65616Y129741D01*
X65330Y129170D01*
X65045Y128313D01*
Y126885D01*
X65330Y126028D01*
X65616Y125457D01*
X66187Y124885D01*
X66759Y124600D01*
X67901D01*
X68472Y124885D01*
X69044Y125457D01*
X69329Y126028D01*
X72443Y128599D02*
X71872Y128313D01*
X71300Y127742D01*
X71015Y126885D01*
Y126313D01*
X71300Y125457D01*
X71872Y124885D01*
X72443Y124600D01*
X73300D01*
X73871Y124885D01*
X74443Y125457D01*
X74728Y126313D01*
Y126885D01*
X74443Y127742D01*
X73871Y128313D01*
X73300Y128599D01*
X72443D01*
X76042D02*
Y124600D01*
Y127456D02*
X76899Y128313D01*
X77470Y128599D01*
X78328D01*
X78899Y128313D01*
X79184Y127456D01*
Y124600D01*
X81612Y130598D02*
Y125742D01*
X81898Y124885D01*
X82469Y124600D01*
X83041D01*
X80756Y128599D02*
X82755D01*
X83898D02*
Y124600D01*
Y126885D02*
X84183Y127742D01*
X84755Y128313D01*
X85326Y128599D01*
X86183D01*
X88154D02*
X87583Y128313D01*
X87011Y127742D01*
X86726Y126885D01*
Y126313D01*
X87011Y125457D01*
X87583Y124885D01*
X88154Y124600D01*
X89011D01*
X89582Y124885D01*
X90153Y125457D01*
X90439Y126313D01*
Y126885D01*
X90153Y127742D01*
X89582Y128313D01*
X89011Y128599D01*
X88154D01*
X91753Y130598D02*
Y124600D01*
X93010Y130598D02*
Y124600D01*
X94267Y126885D02*
X97695D01*
Y127456D01*
X97409Y128027D01*
X97123Y128313D01*
X96552Y128599D01*
X95695D01*
X95124Y128313D01*
X94553Y127742D01*
X94267Y126885D01*
Y126313D01*
X94553Y125457D01*
X95124Y124885D01*
X95695Y124600D01*
X96552D01*
X97123Y124885D01*
X97695Y125457D01*
X98980Y128599D02*
Y124600D01*
Y126885D02*
X99266Y127742D01*
X99837Y128313D01*
X100408Y128599D01*
X101265D01*
X106100Y158400D02*
X107433D01*
X106766D01*
Y162399D01*
X106100Y161732D01*
D15*
X312601Y213842D02*
X323458Y224699D01*
X298542Y227901D02*
X309399Y238758D01*
X136815Y284681D02*
Y307319D01*
Y284681D02*
X175791D01*
Y307319D01*
X136815D02*
X175791D01*
X175500Y161500D02*
X182500D01*
Y148500D02*
Y161500D01*
X175500Y148500D02*
X182500D01*
X175500D02*
Y161500D01*
X312601Y91458D02*
X323458Y80601D01*
X298542Y77399D02*
X309399Y66542D01*
X178646Y6614D02*
Y29252D01*
X139669D02*
X178646D01*
X139669Y6614D02*
Y29252D01*
Y6614D02*
X178646D01*
X360000Y105000D02*
X380000D01*
Y135000D01*
X360000D02*
X380000D01*
X360000Y105000D02*
Y135000D01*
D16*
X29795Y238213D02*
Y259787D01*
X4205Y238213D02*
X29795D01*
X4205D02*
Y259787D01*
X29795D01*
X21213Y284205D02*
X42787D01*
X21213D02*
Y309795D01*
X42787D01*
Y284205D02*
Y309795D01*
X359461Y209902D02*
X379539D01*
Y160098D02*
Y209902D01*
X359461Y160098D02*
X379539D01*
X359461D02*
Y209902D01*
X10461D02*
X30539D01*
Y160098D02*
Y209902D01*
X10461Y160098D02*
X30539D01*
X10461D02*
Y209902D01*
D17*
X213775Y157500D02*
X240500Y184225D01*
X267225Y157500D01*
X240500Y130775D02*
X267225Y157500D01*
X213775D02*
X240500Y130775D01*
D18*
X138000Y129365D02*
D03*
M02*
