G04*
G04 #@! TF.GenerationSoftware,Altium Limited,Altium Designer,25.5.2 (35)*
G04*
G04 Layer_Color=8388736*
%FSLAX25Y25*%
%MOIN*%
G70*
G04*
G04 #@! TF.SameCoordinates,D66E9047-1B96-4A49-AC18-2C29B9855DE9*
G04*
G04*
G04 #@! TF.FilePolarity,Negative*
G04*
G01*
G75*
%ADD19R,0.05118X0.06102*%
%ADD34R,0.04528X0.01181*%
%ADD35R,0.04528X0.02362*%
%ADD36R,0.03162X0.02926*%
%ADD37R,0.02926X0.03162*%
G04:AMPARAMS|DCode=38|XSize=85.56mil|YSize=31.62mil|CornerRadius=6.95mil|HoleSize=0mil|Usage=FLASHONLY|Rotation=45.000|XOffset=0mil|YOffset=0mil|HoleType=Round|Shape=RoundedRectangle|*
%AMROUNDEDRECTD38*
21,1,0.08556,0.01772,0,0,45.0*
21,1,0.07165,0.03162,0,0,45.0*
1,1,0.01391,0.03160,0.01907*
1,1,0.01391,-0.01907,-0.03160*
1,1,0.01391,-0.03160,-0.01907*
1,1,0.01391,0.01907,0.03160*
%
%ADD38ROUNDEDRECTD38*%
%ADD39R,0.04816X0.04895*%
G04:AMPARAMS|DCode=40|XSize=48mil|YSize=63mil|CornerRadius=9mil|HoleSize=0mil|Usage=FLASHONLY|Rotation=90.000|XOffset=0mil|YOffset=0mil|HoleType=Round|Shape=RoundedRectangle|*
%AMROUNDEDRECTD40*
21,1,0.04800,0.04500,0,0,90.0*
21,1,0.03000,0.06300,0,0,90.0*
1,1,0.01800,0.02250,0.01500*
1,1,0.01800,0.02250,-0.01500*
1,1,0.01800,-0.02250,-0.01500*
1,1,0.01800,-0.02250,0.01500*
%
%ADD40ROUNDEDRECTD40*%
G04:AMPARAMS|DCode=41|XSize=67.06mil|YSize=27.69mil|CornerRadius=0mil|HoleSize=0mil|Usage=FLASHONLY|Rotation=45.000|XOffset=0mil|YOffset=0mil|HoleType=Round|Shape=Rectangle|*
%AMROTATEDRECTD41*
4,1,4,-0.01392,-0.03350,-0.03350,-0.01392,0.01392,0.03350,0.03350,0.01392,-0.01392,-0.03350,0.0*
%
%ADD41ROTATEDRECTD41*%

G04:AMPARAMS|DCode=42|XSize=27.69mil|YSize=67.06mil|CornerRadius=0mil|HoleSize=0mil|Usage=FLASHONLY|Rotation=45.000|XOffset=0mil|YOffset=0mil|HoleType=Round|Shape=Rectangle|*
%AMROTATEDRECTD42*
4,1,4,0.01392,-0.03350,-0.03350,0.01392,-0.01392,0.03350,0.03350,-0.01392,0.01392,-0.03350,0.0*
%
%ADD42ROTATEDRECTD42*%

G04:AMPARAMS|DCode=43|XSize=31.62mil|YSize=29.26mil|CornerRadius=9.63mil|HoleSize=0mil|Usage=FLASHONLY|Rotation=180.000|XOffset=0mil|YOffset=0mil|HoleType=Round|Shape=RoundedRectangle|*
%AMROUNDEDRECTD43*
21,1,0.03162,0.00999,0,0,180.0*
21,1,0.01235,0.02926,0,0,180.0*
1,1,0.01927,-0.00618,0.00500*
1,1,0.01927,0.00618,0.00500*
1,1,0.01927,0.00618,-0.00500*
1,1,0.01927,-0.00618,-0.00500*
%
%ADD43ROUNDEDRECTD43*%
G04:AMPARAMS|DCode=44|XSize=85.56mil|YSize=31.62mil|CornerRadius=6.95mil|HoleSize=0mil|Usage=FLASHONLY|Rotation=315.000|XOffset=0mil|YOffset=0mil|HoleType=Round|Shape=RoundedRectangle|*
%AMROUNDEDRECTD44*
21,1,0.08556,0.01772,0,0,315.0*
21,1,0.07165,0.03162,0,0,315.0*
1,1,0.01391,0.01907,-0.03160*
1,1,0.01391,-0.03160,0.01907*
1,1,0.01391,-0.01907,0.03160*
1,1,0.01391,0.03160,-0.01907*
%
%ADD44ROUNDEDRECTD44*%
G04:AMPARAMS|DCode=45|XSize=31.62mil|YSize=29.26mil|CornerRadius=9.63mil|HoleSize=0mil|Usage=FLASHONLY|Rotation=270.000|XOffset=0mil|YOffset=0mil|HoleType=Round|Shape=RoundedRectangle|*
%AMROUNDEDRECTD45*
21,1,0.03162,0.00999,0,0,270.0*
21,1,0.01235,0.02926,0,0,270.0*
1,1,0.01927,-0.00500,-0.00618*
1,1,0.01927,-0.00500,0.00618*
1,1,0.01927,0.00500,0.00618*
1,1,0.01927,0.00500,-0.00618*
%
%ADD45ROUNDEDRECTD45*%
%ADD46R,0.03162X0.02178*%
%ADD47R,0.02178X0.03162*%
%ADD48R,0.03556X0.03162*%
%ADD49R,0.04895X0.04816*%
%ADD50C,0.06800*%
%ADD51C,0.07099*%
%ADD52R,0.07099X0.07099*%
%ADD53R,0.06737X0.06737*%
%ADD54C,0.06737*%
%ADD55C,0.08477*%
%ADD56C,0.07119*%
%ADD57R,0.07119X0.07119*%
%ADD58C,0.05013*%
G04:AMPARAMS|DCode=59|XSize=39.37mil|YSize=70.87mil|CornerRadius=19.68mil|HoleSize=0mil|Usage=FLASHONLY|Rotation=270.000|XOffset=0mil|YOffset=0mil|HoleType=Round|Shape=RoundedRectangle|*
%AMROUNDEDRECTD59*
21,1,0.03937,0.03150,0,0,270.0*
21,1,0.00000,0.07087,0,0,270.0*
1,1,0.03937,-0.01575,0.00000*
1,1,0.03937,-0.01575,0.00000*
1,1,0.03937,0.01575,0.00000*
1,1,0.03937,0.01575,0.00000*
%
%ADD59ROUNDEDRECTD59*%
G04:AMPARAMS|DCode=60|XSize=39.37mil|YSize=86.61mil|CornerRadius=19.68mil|HoleSize=0mil|Usage=FLASHONLY|Rotation=270.000|XOffset=0mil|YOffset=0mil|HoleType=Round|Shape=RoundedRectangle|*
%AMROUNDEDRECTD60*
21,1,0.03937,0.04724,0,0,270.0*
21,1,0.00000,0.08661,0,0,270.0*
1,1,0.03937,-0.02362,0.00000*
1,1,0.03937,-0.02362,0.00000*
1,1,0.03937,0.02362,0.00000*
1,1,0.03937,0.02362,0.00000*
%
%ADD60ROUNDEDRECTD60*%
%ADD61R,0.04800X0.04800*%
%ADD62C,0.04800*%
D19*
X163142Y80350D02*
D03*
Y111650D02*
D03*
X180858Y80350D02*
D03*
Y111650D02*
D03*
Y234650D02*
D03*
Y203350D02*
D03*
X163142Y234650D02*
D03*
Y203350D02*
D03*
D34*
X27461Y64890D02*
D03*
Y62921D02*
D03*
Y60953D02*
D03*
Y58984D02*
D03*
Y57016D02*
D03*
Y55047D02*
D03*
Y53079D02*
D03*
Y51110D02*
D03*
D35*
Y48551D02*
D03*
Y67449D02*
D03*
Y70598D02*
D03*
Y45402D02*
D03*
D36*
X281000Y224693D02*
D03*
Y221307D02*
D03*
X327500Y218807D02*
D03*
Y222193D02*
D03*
X295500Y70693D02*
D03*
Y67307D02*
D03*
X138000Y151614D02*
D03*
Y155000D02*
D03*
X163000Y62693D02*
D03*
Y59307D02*
D03*
X72000Y226693D02*
D03*
Y223307D02*
D03*
X71000Y272614D02*
D03*
Y276000D02*
D03*
D37*
X307693Y100000D02*
D03*
X304307D02*
D03*
X42386Y75000D02*
D03*
X39000D02*
D03*
X49693Y39500D02*
D03*
X46307D02*
D03*
X145307Y45000D02*
D03*
X148693D02*
D03*
X166386Y267000D02*
D03*
X163000D02*
D03*
X177307Y252500D02*
D03*
X180693D02*
D03*
D38*
X312573Y238479D02*
D03*
X316108Y234944D02*
D03*
X319644Y231408D02*
D03*
X323180Y227873D02*
D03*
X309427Y214121D02*
D03*
X305892Y217656D02*
D03*
X302356Y221192D02*
D03*
X298820Y224727D02*
D03*
D39*
X293000Y272106D02*
D03*
Y277894D02*
D03*
X273000Y272106D02*
D03*
Y277894D02*
D03*
X275000Y39894D02*
D03*
Y34106D02*
D03*
X293000Y39894D02*
D03*
Y34106D02*
D03*
D40*
X179000Y151500D02*
D03*
Y158500D02*
D03*
D41*
X212940Y152211D02*
D03*
X215167Y149984D02*
D03*
X217394Y147756D02*
D03*
X219621Y145529D02*
D03*
X221848Y143302D02*
D03*
X224075Y141075D02*
D03*
X226302Y138848D02*
D03*
X228529Y136621D02*
D03*
X230756Y134394D02*
D03*
X232983Y132167D02*
D03*
X235211Y129939D02*
D03*
X268060Y162789D02*
D03*
X265833Y165016D02*
D03*
X263606Y167244D02*
D03*
X261379Y169471D02*
D03*
X259152Y171698D02*
D03*
X256925Y173925D02*
D03*
X254698Y176152D02*
D03*
X252471Y178379D02*
D03*
X250244Y180606D02*
D03*
X248017Y182833D02*
D03*
X245789Y185061D02*
D03*
D42*
Y129939D02*
D03*
X248017Y132167D02*
D03*
X250244Y134394D02*
D03*
X252471Y136621D02*
D03*
X254698Y138848D02*
D03*
X256925Y141075D02*
D03*
X259152Y143302D02*
D03*
X261379Y145529D02*
D03*
X263606Y147756D02*
D03*
X265833Y149984D02*
D03*
X268060Y152211D02*
D03*
X235211Y185061D02*
D03*
X232983Y182833D02*
D03*
X230756Y180606D02*
D03*
X228529Y178379D02*
D03*
X226302Y176152D02*
D03*
X224075Y173925D02*
D03*
X221848Y171698D02*
D03*
X219621Y169471D02*
D03*
X217394Y167244D02*
D03*
X215167Y165016D02*
D03*
X212940Y162789D02*
D03*
D43*
X199500Y122693D02*
D03*
Y119307D02*
D03*
Y104693D02*
D03*
Y101307D02*
D03*
X204000Y227614D02*
D03*
Y231000D02*
D03*
X201500Y153807D02*
D03*
Y157193D02*
D03*
D44*
X309427Y91180D02*
D03*
X305892Y87644D02*
D03*
X302356Y84108D02*
D03*
X298820Y80573D02*
D03*
X312573Y66821D02*
D03*
X316108Y70356D02*
D03*
X319644Y73892D02*
D03*
X323180Y77427D02*
D03*
D45*
X39000Y82000D02*
D03*
X42386D02*
D03*
X188807Y162500D02*
D03*
X192193D02*
D03*
D46*
X47000Y62221D02*
D03*
Y64780D02*
D03*
Y53280D02*
D03*
Y50721D02*
D03*
D47*
X38721Y30000D02*
D03*
X41280D02*
D03*
D48*
X138000Y132130D02*
D03*
Y135870D02*
D03*
D49*
X51894Y264000D02*
D03*
X46106D02*
D03*
X51894Y236000D02*
D03*
X46106D02*
D03*
D50*
X9500Y9000D02*
D03*
X378000Y10500D02*
D03*
X9000Y305500D02*
D03*
D51*
X319000Y302000D02*
D03*
X329000D02*
D03*
X339000D02*
D03*
X253000Y301000D02*
D03*
X263000D02*
D03*
X273000D02*
D03*
X283000D02*
D03*
X293000D02*
D03*
X253000Y14000D02*
D03*
X263000D02*
D03*
X273000D02*
D03*
X283000D02*
D03*
X293000D02*
D03*
X350000D02*
D03*
X340000D02*
D03*
X330000D02*
D03*
D52*
X349000Y302000D02*
D03*
X243000Y301000D02*
D03*
Y14000D02*
D03*
X320000D02*
D03*
D53*
X166146Y293933D02*
D03*
X149315Y20000D02*
D03*
D54*
X156303Y293933D02*
D03*
X146461D02*
D03*
X159158Y20000D02*
D03*
X169000D02*
D03*
D55*
X17000Y254000D02*
D03*
Y244000D02*
D03*
X37000Y297000D02*
D03*
X27000D02*
D03*
D56*
X365000Y130000D02*
D03*
X375000D02*
D03*
X365000Y120000D02*
D03*
X375000D02*
D03*
X365000Y110000D02*
D03*
D57*
X375000D02*
D03*
D58*
X367000Y195000D02*
D03*
X372000Y175000D02*
D03*
X367000D02*
D03*
X372000Y180000D02*
D03*
X367000D02*
D03*
X372000Y185000D02*
D03*
X367000D02*
D03*
X372000Y190000D02*
D03*
X367000D02*
D03*
X372000Y195000D02*
D03*
X18000D02*
D03*
X23000Y175000D02*
D03*
X18000D02*
D03*
X23000Y180000D02*
D03*
X18000D02*
D03*
X23000Y185000D02*
D03*
X18000D02*
D03*
X23000Y190000D02*
D03*
X18000D02*
D03*
X23000Y195000D02*
D03*
D59*
X25197Y40992D02*
D03*
Y75008D02*
D03*
D60*
X9449Y40992D02*
D03*
Y75008D02*
D03*
D61*
X113000Y160000D02*
D03*
D62*
Y155000D02*
D03*
Y150000D02*
D03*
M02*
