G04*
G04 #@! TF.GenerationSoftware,Altium Limited,Altium Designer,25.5.2 (35)*
G04*
G04 Layer_Color=32768*
%FSLAX25Y25*%
%MOIN*%
G70*
G04*
G04 #@! TF.SameCoordinates,D66E9047-1B96-4A49-AC18-2C29B9855DE9*
G04*
G04*
G04 #@! TF.FilePolarity,Positive*
G04*
G01*
G75*
%ADD11C,0.00787*%
%ADD16C,0.00394*%
%ADD82C,0.00197*%
G36*
X182004Y160750D02*
Y149243D01*
X176000D01*
Y160750D01*
X182004D01*
D02*
G37*
D11*
X159795Y76906D02*
Y115094D01*
X184205D01*
Y76906D02*
Y115094D01*
X159795Y76906D02*
X184205D01*
Y199906D02*
Y238094D01*
X159795Y199906D02*
X184205D01*
X159795D02*
Y238094D01*
X184205D01*
X394Y77370D02*
X30118D01*
X394Y38630D02*
Y77370D01*
Y38630D02*
X30118D01*
Y77370D01*
D16*
X33732Y234276D02*
Y263724D01*
X268Y234276D02*
X33732D01*
X268D02*
Y263724D01*
X33732D01*
X17276Y280268D02*
X46724D01*
X17276D02*
Y313732D01*
X46724D01*
Y280268D02*
Y313732D01*
X355524Y213839D02*
X383476D01*
X355524Y156161D02*
Y213839D01*
Y156161D02*
X383476D01*
Y213839D01*
X6524D02*
X34476D01*
X6524Y156161D02*
Y213839D01*
Y156161D02*
X34476D01*
Y213839D01*
D82*
X278835Y219260D02*
X283165D01*
Y226740D01*
X278835D02*
X283165D01*
X278835Y219260D02*
Y226740D01*
X325335Y224240D02*
X329665D01*
X325335Y216760D02*
Y224240D01*
Y216760D02*
X329665D01*
Y224240D01*
X302260Y97835D02*
Y102165D01*
Y97835D02*
X309740D01*
Y102165D01*
X302260D02*
X309740D01*
X293335Y65260D02*
X297665D01*
Y72740D01*
X293335D02*
X297665D01*
X293335Y65260D02*
Y72740D01*
X313791Y244138D02*
X328838Y229091D01*
X293162Y223509D02*
X308209Y208462D01*
X328838Y229091D01*
X293162Y223509D02*
X313791Y244138D01*
X295996Y269063D02*
Y280937D01*
X290004Y269063D02*
Y280937D01*
Y269063D02*
X295996D01*
X290004Y280937D02*
X295996D01*
X275996Y269063D02*
Y280937D01*
X270004Y269063D02*
Y280937D01*
Y269063D02*
X275996D01*
X270004Y280937D02*
X275996D01*
X135831Y283697D02*
Y308303D01*
Y283697D02*
X176776D01*
Y308303D01*
X135831D02*
X176776D01*
X201526Y157500D02*
X240500Y196474D01*
X279474Y157500D01*
X240500Y118526D02*
X279474Y157500D01*
X201526D02*
X240500Y118526D01*
X197374Y124346D02*
X201626D01*
Y117654D02*
Y124346D01*
X197374Y117654D02*
X201626D01*
X197374D02*
Y124346D01*
Y106346D02*
X201626D01*
Y99654D02*
Y106346D01*
X197374Y99654D02*
X201626D01*
X197374D02*
Y106346D01*
X308209Y96838D02*
X328838Y76209D01*
X293162Y81791D02*
X313791Y61162D01*
X293162Y81791D02*
X308209Y96838D01*
X313791Y61162D02*
X328838Y76209D01*
X272004Y31063D02*
Y42937D01*
X277996Y31063D02*
Y42937D01*
X272004D02*
X277996D01*
X272004Y31063D02*
X277996D01*
X290004D02*
Y42937D01*
X295996Y31063D02*
Y42937D01*
X290004D02*
X295996D01*
X290004Y31063D02*
X295996D01*
X37346Y79874D02*
Y84126D01*
X44039D01*
Y79874D02*
Y84126D01*
X37346Y79874D02*
X44039D01*
X36953Y72835D02*
X44433D01*
X36953D02*
Y77165D01*
X44433D01*
Y72835D02*
Y77165D01*
X44260Y37335D02*
X51740D01*
X44260D02*
Y41665D01*
X51740D01*
Y37335D02*
Y41665D01*
X135835Y149567D02*
Y157047D01*
X140165D01*
Y149567D02*
Y157047D01*
X135835Y149567D02*
X140165D01*
X143260Y47165D02*
X150740D01*
Y42835D02*
Y47165D01*
X143260Y42835D02*
X150740D01*
X143260D02*
Y47165D01*
X165165Y57260D02*
Y64740D01*
X160835Y57260D02*
X165165D01*
X160835D02*
Y64740D01*
X165165D01*
X179630Y5630D02*
Y30236D01*
X138685D02*
X179630D01*
X138685Y5630D02*
Y30236D01*
Y5630D02*
X179630D01*
X359016Y104016D02*
Y135984D01*
X380984D01*
Y104016D02*
Y135984D01*
X359016Y104016D02*
X380984D01*
X54937Y261004D02*
Y266996D01*
X43063Y261004D02*
Y266996D01*
X54937D01*
X43063Y261004D02*
X54937D01*
Y233004D02*
Y238996D01*
X43063Y233004D02*
Y238996D01*
X54937D01*
X43063Y233004D02*
X54937D01*
X69835Y221260D02*
X74165D01*
Y228740D01*
X69835D02*
X74165D01*
X69835Y221260D02*
Y228740D01*
X68835Y278047D02*
X73165D01*
X68835Y270567D02*
Y278047D01*
Y270567D02*
X73165D01*
Y278047D01*
X160953Y264835D02*
Y269165D01*
Y264835D02*
X168433D01*
Y269165D01*
X160953D02*
X168433D01*
X187153Y164626D02*
X193846D01*
X187153Y160374D02*
Y164626D01*
Y160374D02*
X193846D01*
Y164626D01*
X182740Y250335D02*
Y254665D01*
X175260D02*
X182740D01*
X175260Y250335D02*
Y254665D01*
Y250335D02*
X182740D01*
X201874Y225961D02*
Y232653D01*
Y225961D02*
X206126D01*
Y232653D01*
X201874D02*
X206126D01*
X199374Y152154D02*
Y158846D01*
Y152154D02*
X203626D01*
Y158846D01*
X199374D02*
X203626D01*
M02*
