G04*
G04 #@! TF.GenerationSoftware,Altium Limited,Altium Designer,25.5.2 (35)*
G04*
G04 Layer_Color=16711935*
%FSLAX25Y25*%
%MOIN*%
G70*
G04*
G04 #@! TF.SameCoordinates,D66E9047-1B96-4A49-AC18-2C29B9855DE9*
G04*
G04*
G04 #@! TF.FilePolarity,Positive*
G04*
G01*
G75*
%ADD11C,0.00787*%
G36*
X169736Y106556D02*
X171956D01*
Y106221D01*
X169736D01*
Y105391D01*
X169438D01*
Y107386D01*
X169736D01*
Y106556D01*
D02*
G37*
G36*
X171956Y103236D02*
X169438D01*
Y105060D01*
X169736D01*
Y103571D01*
X170504D01*
Y104965D01*
X170802D01*
Y103571D01*
X171658D01*
Y105118D01*
X171956D01*
Y103236D01*
D02*
G37*
G36*
X171323Y102767D02*
X171374Y102759D01*
X171432Y102745D01*
X171494Y102727D01*
X171560Y102698D01*
X171629Y102657D01*
X171632D01*
X171636Y102654D01*
X171658Y102636D01*
X171691Y102610D01*
X171727Y102574D01*
X171771Y102526D01*
X171818Y102468D01*
X171862Y102403D01*
X171902Y102326D01*
Y102323D01*
X171905Y102315D01*
X171909Y102304D01*
X171916Y102290D01*
X171924Y102268D01*
X171934Y102243D01*
X171949Y102184D01*
X171967Y102115D01*
X171985Y102031D01*
X171996Y101940D01*
X172000Y101842D01*
Y101784D01*
X171996Y101755D01*
Y101722D01*
X171993Y101686D01*
X171989Y101642D01*
X171975Y101551D01*
X171960Y101456D01*
X171934Y101362D01*
X171902Y101271D01*
Y101267D01*
X171898Y101260D01*
X171891Y101249D01*
X171883Y101234D01*
X171862Y101191D01*
X171829Y101140D01*
X171785Y101081D01*
X171734Y101020D01*
X171672Y100961D01*
X171603Y100907D01*
X171600D01*
X171592Y100899D01*
X171581Y100896D01*
X171567Y100885D01*
X171549Y100877D01*
X171527Y100867D01*
X171472Y100841D01*
X171403Y100816D01*
X171327Y100794D01*
X171239Y100779D01*
X171148Y100772D01*
X171119Y101085D01*
X171123D01*
X171126D01*
X171137Y101089D01*
X171152D01*
X171185Y101096D01*
X171232Y101107D01*
X171279Y101121D01*
X171334Y101136D01*
X171385Y101162D01*
X171432Y101187D01*
X171436Y101191D01*
X171450Y101201D01*
X171476Y101220D01*
X171501Y101249D01*
X171534Y101285D01*
X171567Y101325D01*
X171600Y101380D01*
X171629Y101438D01*
Y101442D01*
X171632Y101445D01*
X171636Y101456D01*
X171640Y101467D01*
X171651Y101504D01*
X171665Y101551D01*
X171680Y101609D01*
X171691Y101675D01*
X171698Y101748D01*
X171702Y101828D01*
Y101860D01*
X171698Y101897D01*
X171694Y101940D01*
X171687Y101991D01*
X171680Y102050D01*
X171665Y102108D01*
X171647Y102163D01*
X171643Y102170D01*
X171636Y102188D01*
X171622Y102213D01*
X171607Y102246D01*
X171581Y102279D01*
X171556Y102315D01*
X171527Y102352D01*
X171490Y102381D01*
X171487Y102384D01*
X171472Y102392D01*
X171454Y102403D01*
X171425Y102417D01*
X171396Y102432D01*
X171359Y102443D01*
X171319Y102450D01*
X171276Y102454D01*
X171272D01*
X171254D01*
X171232Y102450D01*
X171203Y102446D01*
X171174Y102436D01*
X171137Y102425D01*
X171101Y102406D01*
X171068Y102381D01*
X171065Y102377D01*
X171054Y102366D01*
X171039Y102352D01*
X171017Y102326D01*
X170995Y102297D01*
X170970Y102257D01*
X170944Y102210D01*
X170923Y102155D01*
X170919Y102152D01*
X170915Y102133D01*
X170904Y102104D01*
X170901Y102086D01*
X170894Y102061D01*
X170882Y102035D01*
X170875Y102002D01*
X170864Y101966D01*
X170853Y101922D01*
X170843Y101878D01*
X170828Y101828D01*
X170813Y101769D01*
X170799Y101707D01*
Y101704D01*
X170795Y101693D01*
X170792Y101675D01*
X170784Y101653D01*
X170777Y101624D01*
X170770Y101591D01*
X170748Y101518D01*
X170722Y101438D01*
X170697Y101354D01*
X170671Y101282D01*
X170657Y101249D01*
X170642Y101220D01*
Y101216D01*
X170639Y101212D01*
X170624Y101191D01*
X170606Y101158D01*
X170577Y101121D01*
X170544Y101078D01*
X170504Y101034D01*
X170457Y100990D01*
X170406Y100954D01*
X170398Y100950D01*
X170380Y100939D01*
X170351Y100925D01*
X170315Y100910D01*
X170267Y100896D01*
X170213Y100881D01*
X170155Y100870D01*
X170093Y100867D01*
X170089D01*
X170085D01*
X170074D01*
X170060D01*
X170024Y100874D01*
X169976Y100881D01*
X169922Y100892D01*
X169860Y100910D01*
X169798Y100936D01*
X169736Y100972D01*
X169732D01*
X169729Y100976D01*
X169707Y100994D01*
X169678Y101020D01*
X169641Y101052D01*
X169601Y101096D01*
X169558Y101151D01*
X169518Y101216D01*
X169481Y101289D01*
Y101293D01*
X169477Y101300D01*
X169474Y101311D01*
X169467Y101325D01*
X169459Y101344D01*
X169452Y101369D01*
X169438Y101424D01*
X169423Y101493D01*
X169408Y101573D01*
X169397Y101656D01*
X169394Y101751D01*
Y101798D01*
X169397Y101824D01*
Y101849D01*
X169405Y101919D01*
X169416Y101995D01*
X169434Y102075D01*
X169456Y102163D01*
X169485Y102243D01*
Y102246D01*
X169488Y102253D01*
X169496Y102264D01*
X169503Y102279D01*
X169521Y102315D01*
X169554Y102363D01*
X169590Y102417D01*
X169638Y102472D01*
X169692Y102523D01*
X169754Y102570D01*
X169758D01*
X169761Y102574D01*
X169772Y102581D01*
X169783Y102588D01*
X169820Y102606D01*
X169867Y102628D01*
X169925Y102654D01*
X169994Y102672D01*
X170067Y102690D01*
X170147Y102698D01*
X170173Y102377D01*
X170169D01*
X170162D01*
X170151Y102374D01*
X170133Y102370D01*
X170093Y102359D01*
X170038Y102345D01*
X169980Y102323D01*
X169922Y102290D01*
X169867Y102250D01*
X169816Y102199D01*
X169812Y102192D01*
X169798Y102173D01*
X169776Y102137D01*
X169754Y102090D01*
X169732Y102028D01*
X169711Y101955D01*
X169696Y101864D01*
X169692Y101762D01*
Y101711D01*
X169696Y101689D01*
X169700Y101660D01*
X169707Y101595D01*
X169721Y101522D01*
X169740Y101449D01*
X169769Y101380D01*
X169787Y101351D01*
X169805Y101322D01*
X169809Y101314D01*
X169823Y101300D01*
X169849Y101278D01*
X169878Y101256D01*
X169918Y101231D01*
X169962Y101209D01*
X170013Y101194D01*
X170071Y101187D01*
X170078D01*
X170093D01*
X170118Y101191D01*
X170147Y101198D01*
X170184Y101209D01*
X170220Y101227D01*
X170256Y101249D01*
X170293Y101282D01*
X170297Y101285D01*
X170307Y101303D01*
X170318Y101318D01*
X170326Y101333D01*
X170337Y101354D01*
X170351Y101380D01*
X170362Y101413D01*
X170377Y101449D01*
X170391Y101489D01*
X170409Y101536D01*
X170424Y101587D01*
X170442Y101646D01*
X170457Y101711D01*
X170475Y101784D01*
Y101787D01*
X170478Y101802D01*
X170482Y101824D01*
X170489Y101849D01*
X170497Y101882D01*
X170508Y101922D01*
X170519Y101962D01*
X170529Y102006D01*
X170555Y102101D01*
X170580Y102192D01*
X170595Y102235D01*
X170609Y102275D01*
X170621Y102312D01*
X170635Y102341D01*
Y102345D01*
X170639Y102352D01*
X170646Y102363D01*
X170653Y102377D01*
X170675Y102417D01*
X170704Y102465D01*
X170744Y102519D01*
X170788Y102574D01*
X170839Y102625D01*
X170894Y102668D01*
X170901Y102672D01*
X170919Y102687D01*
X170952Y102701D01*
X170995Y102723D01*
X171046Y102741D01*
X171108Y102759D01*
X171177Y102770D01*
X171250Y102774D01*
X171254D01*
X171257D01*
X171268D01*
X171283D01*
X171323Y102767D01*
D02*
G37*
G36*
X171956Y98541D02*
X169438D01*
Y100364D01*
X169736D01*
Y98875D01*
X170504D01*
Y100270D01*
X170802D01*
Y98875D01*
X171658D01*
Y100423D01*
X171956D01*
Y98541D01*
D02*
G37*
G36*
Y97798D02*
X171432Y97467D01*
X171429D01*
X171421Y97460D01*
X171410Y97452D01*
X171396Y97441D01*
X171356Y97416D01*
X171305Y97383D01*
X171250Y97343D01*
X171192Y97303D01*
X171137Y97263D01*
X171086Y97227D01*
X171083Y97223D01*
X171068Y97212D01*
X171046Y97194D01*
X171021Y97168D01*
X170966Y97114D01*
X170941Y97085D01*
X170919Y97056D01*
X170915Y97052D01*
X170912Y97045D01*
X170904Y97030D01*
X170894Y97008D01*
X170882Y96986D01*
X170872Y96961D01*
X170853Y96903D01*
Y96899D01*
X170850Y96892D01*
Y96877D01*
X170846Y96859D01*
X170843Y96833D01*
Y96804D01*
X170839Y96764D01*
Y96335D01*
X171956D01*
Y96000D01*
X169438D01*
Y97168D01*
X169441Y97198D01*
Y97230D01*
X169445Y97307D01*
X169456Y97387D01*
X169467Y97474D01*
X169485Y97554D01*
X169496Y97594D01*
X169507Y97627D01*
Y97631D01*
X169510Y97634D01*
X169521Y97656D01*
X169536Y97689D01*
X169561Y97729D01*
X169594Y97773D01*
X169638Y97820D01*
X169689Y97864D01*
X169747Y97907D01*
X169750D01*
X169754Y97911D01*
X169776Y97926D01*
X169812Y97940D01*
X169860Y97962D01*
X169914Y97980D01*
X169980Y97998D01*
X170049Y98009D01*
X170125Y98013D01*
X170129D01*
X170136D01*
X170151D01*
X170169Y98009D01*
X170195D01*
X170220Y98006D01*
X170282Y97991D01*
X170355Y97969D01*
X170431Y97940D01*
X170508Y97896D01*
X170544Y97867D01*
X170580Y97838D01*
X170584Y97834D01*
X170588Y97831D01*
X170599Y97820D01*
X170609Y97805D01*
X170624Y97787D01*
X170639Y97765D01*
X170657Y97736D01*
X170679Y97707D01*
X170697Y97671D01*
X170715Y97631D01*
X170737Y97587D01*
X170755Y97540D01*
X170770Y97485D01*
X170788Y97430D01*
X170799Y97369D01*
X170810Y97303D01*
X170813Y97310D01*
X170821Y97325D01*
X170835Y97347D01*
X170850Y97376D01*
X170890Y97441D01*
X170915Y97474D01*
X170937Y97503D01*
X170944Y97511D01*
X170963Y97529D01*
X170992Y97558D01*
X171028Y97594D01*
X171079Y97634D01*
X171134Y97682D01*
X171199Y97729D01*
X171272Y97780D01*
X171956Y98213D01*
Y97798D01*
D02*
G37*
G36*
X174519Y218665D02*
X173485D01*
Y217362D01*
X174519D01*
Y217027D01*
X172000D01*
Y217362D01*
X173187D01*
Y218665D01*
X172000D01*
Y219000D01*
X174519D01*
Y218665D01*
D02*
G37*
G36*
Y216357D02*
X172866Y215983D01*
X172863D01*
X172855Y215979D01*
X172841Y215975D01*
X172823Y215971D01*
X172797Y215968D01*
X172772Y215961D01*
X172739Y215953D01*
X172703Y215946D01*
X172626Y215928D01*
X172539Y215910D01*
X172444Y215892D01*
X172349Y215873D01*
X172353D01*
X172368Y215870D01*
X172386Y215862D01*
X172415Y215859D01*
X172444Y215851D01*
X172480Y215841D01*
X172561Y215822D01*
X172641Y215800D01*
X172681Y215793D01*
X172717Y215782D01*
X172750Y215775D01*
X172779Y215768D01*
X172801Y215760D01*
X172815Y215757D01*
X174519Y215280D01*
Y214876D01*
X173241Y214519D01*
X173238D01*
X173219Y214512D01*
X173194Y214505D01*
X173161Y214497D01*
X173117Y214486D01*
X173070Y214472D01*
X173015Y214457D01*
X172954Y214443D01*
X172885Y214424D01*
X172815Y214410D01*
X172666Y214377D01*
X172510Y214345D01*
X172349Y214319D01*
X172353D01*
X172360Y214315D01*
X172375D01*
X172393Y214308D01*
X172415Y214304D01*
X172440Y214297D01*
X172473Y214294D01*
X172510Y214283D01*
X172590Y214264D01*
X172684Y214243D01*
X172786Y214221D01*
X172899Y214192D01*
X174519Y213798D01*
Y213460D01*
X172000Y214152D01*
Y214479D01*
X173918Y215007D01*
X173922D01*
X173929Y215011D01*
X173940Y215014D01*
X173958Y215018D01*
X173998Y215029D01*
X174046Y215040D01*
X174097Y215054D01*
X174144Y215069D01*
X174184Y215080D01*
X174202Y215083D01*
X174213Y215087D01*
X174209D01*
X174206Y215091D01*
X174184Y215094D01*
X174151Y215102D01*
X174111Y215112D01*
X174067Y215123D01*
X174016Y215138D01*
X173966Y215149D01*
X173918Y215163D01*
X172000Y215695D01*
Y216044D01*
X174519Y216703D01*
Y216357D01*
D02*
G37*
G36*
Y212171D02*
X174515Y212146D01*
Y212117D01*
X174508Y212051D01*
X174501Y211979D01*
X174486Y211902D01*
X174468Y211826D01*
X174442Y211756D01*
Y211753D01*
X174439Y211749D01*
X174428Y211727D01*
X174410Y211695D01*
X174384Y211658D01*
X174351Y211614D01*
X174311Y211567D01*
X174260Y211524D01*
X174206Y211483D01*
X174198Y211480D01*
X174177Y211469D01*
X174148Y211451D01*
X174104Y211433D01*
X174053Y211414D01*
X173998Y211396D01*
X173936Y211385D01*
X173874Y211382D01*
X173867D01*
X173849D01*
X173816Y211385D01*
X173776Y211392D01*
X173729Y211403D01*
X173678Y211421D01*
X173627Y211443D01*
X173572Y211473D01*
X173565Y211476D01*
X173551Y211487D01*
X173521Y211509D01*
X173492Y211538D01*
X173456Y211574D01*
X173416Y211618D01*
X173380Y211673D01*
X173343Y211735D01*
Y211731D01*
X173339Y211724D01*
X173336Y211713D01*
X173328Y211698D01*
X173314Y211654D01*
X173289Y211603D01*
X173256Y211549D01*
X173216Y211487D01*
X173168Y211433D01*
X173110Y211382D01*
X173103Y211378D01*
X173081Y211363D01*
X173048Y211342D01*
X173005Y211320D01*
X172946Y211298D01*
X172885Y211276D01*
X172812Y211261D01*
X172732Y211258D01*
X172728D01*
X172724D01*
X172703D01*
X172666Y211261D01*
X172622Y211269D01*
X172571Y211276D01*
X172517Y211291D01*
X172459Y211309D01*
X172400Y211334D01*
X172393Y211338D01*
X172375Y211349D01*
X172349Y211363D01*
X172313Y211385D01*
X172277Y211414D01*
X172237Y211443D01*
X172196Y211480D01*
X172164Y211520D01*
X172160Y211524D01*
X172149Y211538D01*
X172135Y211563D01*
X172120Y211596D01*
X172098Y211636D01*
X172076Y211684D01*
X172058Y211735D01*
X172040Y211796D01*
Y211804D01*
X172033Y211826D01*
X172029Y211862D01*
X172022Y211909D01*
X172014Y211967D01*
X172007Y212037D01*
X172004Y212113D01*
X172000Y212200D01*
Y213161D01*
X174519D01*
Y212171D01*
D02*
G37*
G36*
X17818Y57665D02*
X16362D01*
X16359D01*
X16348D01*
X16330D01*
X16308D01*
X16282Y57661D01*
X16250D01*
X16180Y57658D01*
X16100Y57651D01*
X16020Y57640D01*
X15944Y57625D01*
X15911Y57618D01*
X15878Y57607D01*
X15871Y57603D01*
X15853Y57596D01*
X15827Y57578D01*
X15791Y57556D01*
X15755Y57530D01*
X15714Y57494D01*
X15674Y57450D01*
X15642Y57399D01*
X15638Y57392D01*
X15627Y57374D01*
X15616Y57341D01*
X15602Y57297D01*
X15583Y57247D01*
X15573Y57181D01*
X15562Y57112D01*
X15558Y57035D01*
Y56999D01*
X15562Y56977D01*
Y56944D01*
X15565Y56912D01*
X15580Y56832D01*
X15598Y56744D01*
X15627Y56660D01*
X15667Y56580D01*
X15693Y56544D01*
X15722Y56511D01*
X15725Y56508D01*
X15729Y56504D01*
X15740Y56497D01*
X15755Y56486D01*
X15776Y56475D01*
X15798Y56460D01*
X15831Y56446D01*
X15864Y56431D01*
X15904Y56417D01*
X15951Y56406D01*
X16006Y56391D01*
X16064Y56380D01*
X16129Y56369D01*
X16199Y56362D01*
X16279Y56355D01*
X16362D01*
X17818D01*
Y56020D01*
X16362D01*
X16359D01*
X16344D01*
X16326D01*
X16300D01*
X16268Y56024D01*
X16231D01*
X16188Y56027D01*
X16144Y56031D01*
X16046Y56042D01*
X15944Y56056D01*
X15845Y56078D01*
X15798Y56093D01*
X15755Y56107D01*
X15751D01*
X15744Y56111D01*
X15733Y56118D01*
X15718Y56125D01*
X15678Y56147D01*
X15627Y56180D01*
X15569Y56224D01*
X15511Y56275D01*
X15449Y56340D01*
X15394Y56420D01*
Y56424D01*
X15387Y56431D01*
X15383Y56442D01*
X15372Y56460D01*
X15361Y56482D01*
X15350Y56511D01*
X15340Y56540D01*
X15325Y56577D01*
X15311Y56617D01*
X15300Y56660D01*
X15289Y56708D01*
X15278Y56762D01*
X15270Y56817D01*
X15263Y56875D01*
X15256Y57006D01*
Y57039D01*
X15259Y57065D01*
Y57094D01*
X15263Y57130D01*
X15267Y57170D01*
X15270Y57210D01*
X15285Y57301D01*
X15307Y57399D01*
X15336Y57494D01*
X15376Y57585D01*
Y57589D01*
X15383Y57596D01*
X15391Y57607D01*
X15398Y57622D01*
X15427Y57661D01*
X15467Y57709D01*
X15518Y57763D01*
X15576Y57814D01*
X15649Y57865D01*
X15729Y57905D01*
X15733D01*
X15740Y57909D01*
X15755Y57913D01*
X15773Y57920D01*
X15795Y57927D01*
X15824Y57934D01*
X15856Y57945D01*
X15897Y57953D01*
X15940Y57960D01*
X15988Y57971D01*
X16038Y57978D01*
X16093Y57986D01*
X16155Y57993D01*
X16220Y57996D01*
X16290Y58000D01*
X16362D01*
X17818D01*
Y57665D01*
D02*
G37*
G36*
X16137Y55263D02*
X16133D01*
X16129D01*
X16118Y55259D01*
X16104D01*
X16071Y55252D01*
X16024Y55241D01*
X15977Y55226D01*
X15922Y55212D01*
X15871Y55186D01*
X15824Y55161D01*
X15820Y55157D01*
X15805Y55146D01*
X15780Y55128D01*
X15755Y55099D01*
X15722Y55063D01*
X15689Y55023D01*
X15656Y54968D01*
X15627Y54910D01*
Y54906D01*
X15623Y54902D01*
X15620Y54892D01*
X15616Y54881D01*
X15605Y54844D01*
X15591Y54797D01*
X15576Y54739D01*
X15565Y54673D01*
X15558Y54600D01*
X15554Y54520D01*
Y54487D01*
X15558Y54451D01*
X15562Y54407D01*
X15569Y54356D01*
X15576Y54298D01*
X15591Y54240D01*
X15609Y54185D01*
X15613Y54178D01*
X15620Y54160D01*
X15634Y54134D01*
X15649Y54102D01*
X15674Y54069D01*
X15700Y54032D01*
X15729Y53996D01*
X15766Y53967D01*
X15769Y53963D01*
X15784Y53956D01*
X15802Y53945D01*
X15831Y53930D01*
X15860Y53916D01*
X15897Y53905D01*
X15936Y53898D01*
X15980Y53894D01*
X15984D01*
X16002D01*
X16024Y53898D01*
X16053Y53901D01*
X16082Y53912D01*
X16118Y53923D01*
X16155Y53941D01*
X16188Y53967D01*
X16191Y53971D01*
X16202Y53982D01*
X16217Y53996D01*
X16239Y54022D01*
X16261Y54051D01*
X16286Y54091D01*
X16311Y54138D01*
X16333Y54193D01*
X16337Y54196D01*
X16341Y54214D01*
X16352Y54244D01*
X16355Y54262D01*
X16362Y54287D01*
X16373Y54313D01*
X16381Y54346D01*
X16391Y54382D01*
X16402Y54426D01*
X16413Y54469D01*
X16428Y54520D01*
X16443Y54578D01*
X16457Y54640D01*
Y54644D01*
X16461Y54655D01*
X16464Y54673D01*
X16472Y54695D01*
X16479Y54724D01*
X16486Y54757D01*
X16508Y54830D01*
X16533Y54910D01*
X16559Y54993D01*
X16585Y55066D01*
X16599Y55099D01*
X16614Y55128D01*
Y55132D01*
X16617Y55135D01*
X16632Y55157D01*
X16650Y55190D01*
X16679Y55226D01*
X16712Y55270D01*
X16752Y55314D01*
X16799Y55357D01*
X16850Y55394D01*
X16858Y55397D01*
X16876Y55408D01*
X16905Y55423D01*
X16941Y55437D01*
X16988Y55452D01*
X17043Y55467D01*
X17101Y55477D01*
X17163Y55481D01*
X17167D01*
X17170D01*
X17181D01*
X17196D01*
X17232Y55474D01*
X17280Y55467D01*
X17334Y55456D01*
X17396Y55437D01*
X17458Y55412D01*
X17520Y55376D01*
X17524D01*
X17527Y55372D01*
X17549Y55354D01*
X17578Y55328D01*
X17615Y55295D01*
X17655Y55252D01*
X17698Y55197D01*
X17738Y55132D01*
X17775Y55059D01*
Y55055D01*
X17778Y55048D01*
X17782Y55037D01*
X17789Y55023D01*
X17797Y55004D01*
X17804Y54979D01*
X17818Y54924D01*
X17833Y54855D01*
X17848Y54775D01*
X17858Y54691D01*
X17862Y54597D01*
Y54549D01*
X17858Y54524D01*
Y54498D01*
X17851Y54429D01*
X17840Y54353D01*
X17822Y54273D01*
X17800Y54185D01*
X17771Y54105D01*
Y54102D01*
X17767Y54094D01*
X17760Y54083D01*
X17753Y54069D01*
X17735Y54032D01*
X17702Y53985D01*
X17665Y53930D01*
X17618Y53876D01*
X17564Y53825D01*
X17502Y53778D01*
X17498D01*
X17494Y53774D01*
X17483Y53767D01*
X17473Y53759D01*
X17436Y53741D01*
X17389Y53719D01*
X17331Y53694D01*
X17262Y53676D01*
X17189Y53658D01*
X17109Y53650D01*
X17083Y53971D01*
X17087D01*
X17094D01*
X17105Y53974D01*
X17123Y53978D01*
X17163Y53989D01*
X17218Y54003D01*
X17276Y54025D01*
X17334Y54058D01*
X17389Y54098D01*
X17440Y54149D01*
X17444Y54156D01*
X17458Y54174D01*
X17480Y54211D01*
X17502Y54258D01*
X17524Y54320D01*
X17545Y54393D01*
X17560Y54484D01*
X17564Y54586D01*
Y54637D01*
X17560Y54659D01*
X17556Y54688D01*
X17549Y54753D01*
X17535Y54826D01*
X17516Y54899D01*
X17487Y54968D01*
X17469Y54997D01*
X17451Y55026D01*
X17447Y55033D01*
X17433Y55048D01*
X17407Y55070D01*
X17378Y55092D01*
X17338Y55117D01*
X17294Y55139D01*
X17243Y55154D01*
X17185Y55161D01*
X17178D01*
X17163D01*
X17138Y55157D01*
X17109Y55150D01*
X17072Y55139D01*
X17036Y55121D01*
X16999Y55099D01*
X16963Y55066D01*
X16959Y55063D01*
X16948Y55044D01*
X16938Y55030D01*
X16930Y55015D01*
X16919Y54993D01*
X16905Y54968D01*
X16894Y54935D01*
X16879Y54899D01*
X16865Y54859D01*
X16847Y54811D01*
X16832Y54760D01*
X16814Y54702D01*
X16799Y54637D01*
X16781Y54564D01*
Y54560D01*
X16777Y54546D01*
X16774Y54524D01*
X16767Y54498D01*
X16759Y54466D01*
X16748Y54426D01*
X16737Y54386D01*
X16726Y54342D01*
X16701Y54247D01*
X16676Y54156D01*
X16661Y54112D01*
X16646Y54072D01*
X16635Y54036D01*
X16621Y54007D01*
Y54003D01*
X16617Y53996D01*
X16610Y53985D01*
X16603Y53971D01*
X16581Y53930D01*
X16552Y53883D01*
X16512Y53829D01*
X16468Y53774D01*
X16417Y53723D01*
X16362Y53679D01*
X16355Y53676D01*
X16337Y53661D01*
X16304Y53647D01*
X16261Y53625D01*
X16209Y53607D01*
X16148Y53588D01*
X16079Y53577D01*
X16006Y53574D01*
X16002D01*
X15998D01*
X15988D01*
X15973D01*
X15933Y53581D01*
X15882Y53588D01*
X15824Y53603D01*
X15762Y53621D01*
X15696Y53650D01*
X15627Y53690D01*
X15623D01*
X15620Y53694D01*
X15598Y53712D01*
X15565Y53738D01*
X15529Y53774D01*
X15485Y53821D01*
X15438Y53880D01*
X15394Y53945D01*
X15354Y54022D01*
Y54025D01*
X15350Y54032D01*
X15347Y54043D01*
X15340Y54058D01*
X15332Y54080D01*
X15321Y54105D01*
X15307Y54163D01*
X15289Y54233D01*
X15270Y54316D01*
X15259Y54407D01*
X15256Y54506D01*
Y54564D01*
X15259Y54593D01*
Y54626D01*
X15263Y54662D01*
X15267Y54706D01*
X15281Y54797D01*
X15296Y54892D01*
X15321Y54986D01*
X15354Y55077D01*
Y55081D01*
X15358Y55088D01*
X15365Y55099D01*
X15372Y55114D01*
X15394Y55157D01*
X15427Y55208D01*
X15471Y55266D01*
X15522Y55328D01*
X15583Y55387D01*
X15653Y55441D01*
X15656D01*
X15664Y55448D01*
X15674Y55452D01*
X15689Y55463D01*
X15707Y55470D01*
X15729Y55481D01*
X15784Y55507D01*
X15853Y55532D01*
X15929Y55554D01*
X16017Y55568D01*
X16108Y55576D01*
X16137Y55263D01*
D02*
G37*
G36*
X17818Y52140D02*
X17815Y52114D01*
Y52085D01*
X17808Y52020D01*
X17800Y51947D01*
X17786Y51870D01*
X17767Y51794D01*
X17742Y51725D01*
Y51721D01*
X17738Y51717D01*
X17727Y51696D01*
X17709Y51663D01*
X17684Y51626D01*
X17651Y51583D01*
X17611Y51535D01*
X17560Y51492D01*
X17505Y51452D01*
X17498Y51448D01*
X17476Y51437D01*
X17447Y51419D01*
X17403Y51401D01*
X17353Y51382D01*
X17298Y51364D01*
X17236Y51353D01*
X17174Y51350D01*
X17167D01*
X17149D01*
X17116Y51353D01*
X17076Y51361D01*
X17029Y51372D01*
X16978Y51390D01*
X16927Y51412D01*
X16872Y51441D01*
X16865Y51444D01*
X16850Y51455D01*
X16821Y51477D01*
X16792Y51506D01*
X16756Y51543D01*
X16715Y51586D01*
X16679Y51641D01*
X16643Y51703D01*
Y51699D01*
X16639Y51692D01*
X16635Y51681D01*
X16628Y51666D01*
X16614Y51623D01*
X16588Y51572D01*
X16555Y51517D01*
X16515Y51455D01*
X16468Y51401D01*
X16410Y51350D01*
X16402Y51346D01*
X16381Y51332D01*
X16348Y51310D01*
X16304Y51288D01*
X16246Y51266D01*
X16184Y51244D01*
X16111Y51230D01*
X16031Y51226D01*
X16027D01*
X16024D01*
X16002D01*
X15966Y51230D01*
X15922Y51237D01*
X15871Y51244D01*
X15816Y51259D01*
X15758Y51277D01*
X15700Y51302D01*
X15693Y51306D01*
X15674Y51317D01*
X15649Y51332D01*
X15613Y51353D01*
X15576Y51382D01*
X15536Y51412D01*
X15496Y51448D01*
X15463Y51488D01*
X15460Y51492D01*
X15449Y51506D01*
X15434Y51532D01*
X15420Y51565D01*
X15398Y51605D01*
X15376Y51652D01*
X15358Y51703D01*
X15340Y51765D01*
Y51772D01*
X15332Y51794D01*
X15329Y51830D01*
X15321Y51878D01*
X15314Y51936D01*
X15307Y52005D01*
X15303Y52081D01*
X15300Y52169D01*
Y53130D01*
X17818D01*
Y52140D01*
D02*
G37*
G36*
X16643Y50862D02*
X16679D01*
X16715Y50858D01*
X16763Y50855D01*
X16810Y50847D01*
X16916Y50829D01*
X17032Y50804D01*
X17149Y50767D01*
X17262Y50716D01*
X17265Y50713D01*
X17276Y50709D01*
X17291Y50702D01*
X17309Y50687D01*
X17334Y50673D01*
X17363Y50655D01*
X17429Y50607D01*
X17502Y50545D01*
X17574Y50472D01*
X17647Y50389D01*
X17709Y50291D01*
X17713Y50287D01*
X17717Y50276D01*
X17724Y50261D01*
X17735Y50243D01*
X17746Y50214D01*
X17756Y50185D01*
X17771Y50149D01*
X17786Y50108D01*
X17800Y50065D01*
X17815Y50017D01*
X17837Y49916D01*
X17855Y49799D01*
X17862Y49679D01*
Y49643D01*
X17858Y49617D01*
X17855Y49584D01*
X17851Y49544D01*
X17848Y49504D01*
X17837Y49457D01*
X17815Y49359D01*
X17782Y49250D01*
X17760Y49195D01*
X17735Y49144D01*
X17702Y49093D01*
X17669Y49042D01*
X17665Y49038D01*
X17662Y49031D01*
X17651Y49016D01*
X17633Y48998D01*
X17615Y48980D01*
X17589Y48955D01*
X17560Y48929D01*
X17531Y48900D01*
X17494Y48871D01*
X17451Y48842D01*
X17407Y48809D01*
X17360Y48780D01*
X17305Y48754D01*
X17251Y48725D01*
X17192Y48704D01*
X17127Y48682D01*
X17050Y49009D01*
X17054D01*
X17061Y49013D01*
X17076Y49020D01*
X17094Y49027D01*
X17116Y49035D01*
X17145Y49046D01*
X17203Y49075D01*
X17269Y49111D01*
X17334Y49155D01*
X17396Y49209D01*
X17451Y49268D01*
X17458Y49275D01*
X17473Y49297D01*
X17491Y49333D01*
X17516Y49380D01*
X17538Y49442D01*
X17560Y49512D01*
X17574Y49595D01*
X17578Y49686D01*
Y49715D01*
X17574Y49734D01*
Y49759D01*
X17571Y49788D01*
X17560Y49857D01*
X17545Y49934D01*
X17520Y50014D01*
X17483Y50098D01*
X17436Y50174D01*
Y50178D01*
X17429Y50181D01*
X17411Y50207D01*
X17382Y50240D01*
X17338Y50280D01*
X17283Y50327D01*
X17221Y50371D01*
X17145Y50411D01*
X17061Y50447D01*
X17058D01*
X17050Y50451D01*
X17039Y50454D01*
X17021Y50458D01*
X16999Y50465D01*
X16974Y50472D01*
X16912Y50483D01*
X16839Y50498D01*
X16759Y50513D01*
X16672Y50520D01*
X16577Y50524D01*
X16574D01*
X16563D01*
X16544D01*
X16523D01*
X16497Y50520D01*
X16464D01*
X16428Y50516D01*
X16388Y50513D01*
X16300Y50502D01*
X16206Y50483D01*
X16111Y50462D01*
X16017Y50432D01*
X16013D01*
X16006Y50429D01*
X15995Y50422D01*
X15977Y50414D01*
X15933Y50392D01*
X15882Y50360D01*
X15824Y50320D01*
X15762Y50269D01*
X15707Y50210D01*
X15656Y50141D01*
Y50138D01*
X15653Y50130D01*
X15645Y50119D01*
X15638Y50105D01*
X15631Y50087D01*
X15620Y50065D01*
X15598Y50014D01*
X15576Y49948D01*
X15558Y49876D01*
X15543Y49795D01*
X15540Y49712D01*
Y49686D01*
X15543Y49664D01*
Y49639D01*
X15547Y49613D01*
X15562Y49548D01*
X15580Y49472D01*
X15609Y49395D01*
X15649Y49315D01*
X15671Y49275D01*
X15700Y49239D01*
X15704Y49235D01*
X15707Y49231D01*
X15718Y49220D01*
X15729Y49206D01*
X15747Y49191D01*
X15769Y49173D01*
X15791Y49151D01*
X15820Y49133D01*
X15853Y49111D01*
X15889Y49086D01*
X15926Y49064D01*
X15969Y49042D01*
X16017Y49024D01*
X16068Y49006D01*
X16122Y48987D01*
X16180Y48973D01*
X16097Y48638D01*
X16093D01*
X16079Y48642D01*
X16057Y48649D01*
X16027Y48660D01*
X15995Y48671D01*
X15955Y48685D01*
X15911Y48704D01*
X15864Y48725D01*
X15762Y48776D01*
X15660Y48842D01*
X15609Y48882D01*
X15558Y48922D01*
X15514Y48966D01*
X15471Y49016D01*
X15467Y49020D01*
X15460Y49027D01*
X15452Y49046D01*
X15438Y49064D01*
X15420Y49093D01*
X15401Y49122D01*
X15383Y49162D01*
X15365Y49202D01*
X15343Y49250D01*
X15325Y49300D01*
X15307Y49355D01*
X15289Y49413D01*
X15274Y49475D01*
X15267Y49541D01*
X15259Y49610D01*
X15256Y49683D01*
Y49723D01*
X15259Y49752D01*
Y49785D01*
X15263Y49825D01*
X15270Y49868D01*
X15278Y49919D01*
X15296Y50025D01*
X15325Y50134D01*
X15365Y50243D01*
X15391Y50294D01*
X15420Y50345D01*
X15423Y50349D01*
X15427Y50356D01*
X15438Y50371D01*
X15452Y50385D01*
X15467Y50407D01*
X15489Y50432D01*
X15514Y50462D01*
X15543Y50491D01*
X15576Y50520D01*
X15609Y50553D01*
X15693Y50618D01*
X15791Y50680D01*
X15900Y50735D01*
X15904D01*
X15915Y50742D01*
X15933Y50745D01*
X15955Y50756D01*
X15984Y50764D01*
X16020Y50775D01*
X16060Y50789D01*
X16104Y50800D01*
X16151Y50811D01*
X16206Y50826D01*
X16319Y50844D01*
X16446Y50858D01*
X16577Y50866D01*
X16581D01*
X16595D01*
X16617D01*
X16643Y50862D01*
D02*
G37*
%LPC*%
G36*
X170129Y97671D02*
X170125D01*
X170122D01*
X170100Y97667D01*
X170067Y97663D01*
X170024Y97656D01*
X169980Y97638D01*
X169929Y97616D01*
X169881Y97583D01*
X169834Y97540D01*
X169831Y97532D01*
X169816Y97514D01*
X169798Y97485D01*
X169776Y97438D01*
X169754Y97383D01*
X169736Y97310D01*
X169721Y97227D01*
X169718Y97128D01*
Y96335D01*
X170551D01*
Y97085D01*
X170548Y97128D01*
X170544Y97179D01*
X170540Y97237D01*
X170533Y97296D01*
X170522Y97354D01*
X170508Y97405D01*
X170504Y97412D01*
X170497Y97427D01*
X170486Y97449D01*
X170471Y97478D01*
X170449Y97511D01*
X170424Y97543D01*
X170391Y97576D01*
X170355Y97601D01*
X170351Y97605D01*
X170337Y97613D01*
X170315Y97623D01*
X170286Y97638D01*
X170253Y97649D01*
X170216Y97660D01*
X170173Y97667D01*
X170129Y97671D01*
D02*
G37*
G36*
X174220Y212827D02*
X173463D01*
Y212208D01*
X173467Y212160D01*
X173470Y212109D01*
X173474Y212059D01*
X173481Y212008D01*
X173489Y211967D01*
X173492Y211960D01*
X173496Y211946D01*
X173507Y211924D01*
X173521Y211895D01*
X173536Y211866D01*
X173558Y211833D01*
X173587Y211800D01*
X173616Y211775D01*
X173620Y211771D01*
X173631Y211764D01*
X173653Y211753D01*
X173678Y211742D01*
X173707Y211731D01*
X173743Y211720D01*
X173787Y211713D01*
X173835Y211709D01*
X173842D01*
X173856D01*
X173878Y211713D01*
X173907Y211716D01*
X173944Y211724D01*
X173980Y211735D01*
X174016Y211749D01*
X174053Y211771D01*
X174056Y211775D01*
X174067Y211782D01*
X174086Y211796D01*
X174104Y211815D01*
X174126Y211840D01*
X174148Y211869D01*
X174169Y211906D01*
X174184Y211946D01*
Y211949D01*
X174191Y211967D01*
X174195Y211993D01*
X174202Y212033D01*
X174209Y212088D01*
X174213Y212150D01*
X174220Y212230D01*
Y212827D01*
D02*
G37*
G36*
X173165D02*
X172298D01*
Y212109D01*
X172302Y212033D01*
X172306Y212000D01*
X172309Y211971D01*
Y211967D01*
X172313Y211953D01*
X172317Y211931D01*
X172324Y211906D01*
X172346Y211844D01*
X172375Y211782D01*
X172379Y211778D01*
X172386Y211767D01*
X172397Y211753D01*
X172411Y211735D01*
X172433Y211716D01*
X172455Y211691D01*
X172484Y211673D01*
X172517Y211651D01*
X172520Y211647D01*
X172531Y211644D01*
X172553Y211636D01*
X172579Y211625D01*
X172608Y211614D01*
X172644Y211607D01*
X172688Y211603D01*
X172732Y211600D01*
X172739D01*
X172753D01*
X172783Y211603D01*
X172815Y211611D01*
X172852Y211618D01*
X172892Y211633D01*
X172932Y211651D01*
X172972Y211676D01*
X172976Y211680D01*
X172990Y211691D01*
X173008Y211705D01*
X173030Y211727D01*
X173056Y211756D01*
X173081Y211793D01*
X173103Y211833D01*
X173121Y211880D01*
X173125Y211888D01*
X173128Y211902D01*
X173136Y211935D01*
X173143Y211975D01*
X173150Y212026D01*
X173158Y212088D01*
X173165Y212164D01*
Y212827D01*
D02*
G37*
G36*
X17520Y52795D02*
X16763D01*
Y52176D01*
X16767Y52129D01*
X16770Y52078D01*
X16774Y52027D01*
X16781Y51976D01*
X16788Y51936D01*
X16792Y51929D01*
X16796Y51914D01*
X16806Y51892D01*
X16821Y51863D01*
X16836Y51834D01*
X16858Y51801D01*
X16887Y51768D01*
X16916Y51743D01*
X16919Y51739D01*
X16930Y51732D01*
X16952Y51721D01*
X16978Y51710D01*
X17007Y51699D01*
X17043Y51688D01*
X17087Y51681D01*
X17134Y51677D01*
X17141D01*
X17156D01*
X17178Y51681D01*
X17207Y51685D01*
X17243Y51692D01*
X17280Y51703D01*
X17316Y51717D01*
X17353Y51739D01*
X17356Y51743D01*
X17367Y51750D01*
X17385Y51765D01*
X17403Y51783D01*
X17425Y51808D01*
X17447Y51837D01*
X17469Y51874D01*
X17483Y51914D01*
Y51918D01*
X17491Y51936D01*
X17494Y51961D01*
X17502Y52001D01*
X17509Y52056D01*
X17513Y52118D01*
X17520Y52198D01*
Y52795D01*
D02*
G37*
G36*
X16464D02*
X15598D01*
Y52078D01*
X15602Y52001D01*
X15605Y51969D01*
X15609Y51939D01*
Y51936D01*
X15613Y51921D01*
X15616Y51899D01*
X15623Y51874D01*
X15645Y51812D01*
X15674Y51750D01*
X15678Y51746D01*
X15685Y51736D01*
X15696Y51721D01*
X15711Y51703D01*
X15733Y51685D01*
X15755Y51659D01*
X15784Y51641D01*
X15816Y51619D01*
X15820Y51616D01*
X15831Y51612D01*
X15853Y51605D01*
X15878Y51594D01*
X15907Y51583D01*
X15944Y51575D01*
X15988Y51572D01*
X16031Y51568D01*
X16038D01*
X16053D01*
X16082Y51572D01*
X16115Y51579D01*
X16151Y51586D01*
X16191Y51601D01*
X16231Y51619D01*
X16271Y51645D01*
X16275Y51648D01*
X16290Y51659D01*
X16308Y51674D01*
X16330Y51696D01*
X16355Y51725D01*
X16381Y51761D01*
X16402Y51801D01*
X16421Y51848D01*
X16424Y51856D01*
X16428Y51870D01*
X16435Y51903D01*
X16443Y51943D01*
X16450Y51994D01*
X16457Y52056D01*
X16464Y52132D01*
Y52795D01*
D02*
G37*
%LPD*%
D11*
X159795Y76906D02*
Y115094D01*
X184205D01*
Y76906D02*
Y115094D01*
X159795Y76906D02*
X184205D01*
Y199906D02*
Y238094D01*
X159795Y199906D02*
X184205D01*
X159795D02*
Y238094D01*
X184205D01*
X394Y77370D02*
X30118D01*
X394Y38630D02*
Y77370D01*
Y38630D02*
X30118D01*
Y77370D01*
M02*
