G04*
G04 #@! TF.GenerationSoftware,Altium Limited,Altium Designer,25.5.2 (35)*
G04*
G04 Layer_Color=12632256*
%FSLAX25Y25*%
%MOIN*%
G70*
G04*
G04 #@! TF.SameCoordinates,D66E9047-1B96-4A49-AC18-2C29B9855DE9*
G04*
G04*
G04 #@! TF.FilePolarity,Positive*
G04*
G01*
G75*
G04:AMPARAMS|DCode=59|XSize=39.37mil|YSize=70.87mil|CornerRadius=19.68mil|HoleSize=0mil|Usage=FLASHONLY|Rotation=270.000|XOffset=0mil|YOffset=0mil|HoleType=Round|Shape=RoundedRectangle|*
%AMROUNDEDRECTD59*
21,1,0.03937,0.03150,0,0,270.0*
21,1,0.00000,0.07087,0,0,270.0*
1,1,0.03937,-0.01575,0.00000*
1,1,0.03937,-0.01575,0.00000*
1,1,0.03937,0.01575,0.00000*
1,1,0.03937,0.01575,0.00000*
%
%ADD59ROUNDEDRECTD59*%
G04:AMPARAMS|DCode=60|XSize=39.37mil|YSize=86.61mil|CornerRadius=19.68mil|HoleSize=0mil|Usage=FLASHONLY|Rotation=270.000|XOffset=0mil|YOffset=0mil|HoleType=Round|Shape=RoundedRectangle|*
%AMROUNDEDRECTD60*
21,1,0.03937,0.04724,0,0,270.0*
21,1,0.00000,0.08661,0,0,270.0*
1,1,0.03937,-0.02362,0.00000*
1,1,0.03937,-0.02362,0.00000*
1,1,0.03937,0.02362,0.00000*
1,1,0.03937,0.02362,0.00000*
%
%ADD60ROUNDEDRECTD60*%
%ADD70C,0.06000*%
%ADD71C,0.06299*%
%ADD72R,0.06299X0.06299*%
%ADD74C,0.05937*%
%ADD75C,0.07677*%
%ADD76C,0.06319*%
%ADD78C,0.04213*%
%ADD79R,0.04000X0.04000*%
%ADD80C,0.04000*%
D59*
X25197Y40992D02*
D03*
Y75008D02*
D03*
D60*
X9449Y40992D02*
D03*
Y75008D02*
D03*
D70*
X379500Y305500D02*
D03*
X9500Y9000D02*
D03*
X378000Y10500D02*
D03*
X9000Y305500D02*
D03*
D71*
X319000Y302000D02*
D03*
X329000D02*
D03*
X339000D02*
D03*
X253000Y301000D02*
D03*
X263000D02*
D03*
X273000D02*
D03*
X283000D02*
D03*
X293000D02*
D03*
X253000Y14000D02*
D03*
X263000D02*
D03*
X273000D02*
D03*
X283000D02*
D03*
X293000D02*
D03*
X350000D02*
D03*
X340000D02*
D03*
X330000D02*
D03*
D72*
X349000Y302000D02*
D03*
X243000Y301000D02*
D03*
Y14000D02*
D03*
X320000D02*
D03*
D74*
X166146Y293933D02*
D03*
X156303D02*
D03*
X146461D02*
D03*
X149315Y20000D02*
D03*
X159158D02*
D03*
X169000D02*
D03*
D75*
X17000Y254000D02*
D03*
Y244000D02*
D03*
X37000Y297000D02*
D03*
X27000D02*
D03*
D76*
X365000Y130000D02*
D03*
X375000D02*
D03*
X365000Y120000D02*
D03*
X375000D02*
D03*
X365000Y110000D02*
D03*
X375000D02*
D03*
D78*
X367000Y195000D02*
D03*
X372000Y175000D02*
D03*
X367000D02*
D03*
X372000Y180000D02*
D03*
X367000D02*
D03*
X372000Y185000D02*
D03*
X367000D02*
D03*
X372000Y190000D02*
D03*
X367000D02*
D03*
X372000Y195000D02*
D03*
X18000D02*
D03*
X23000Y175000D02*
D03*
X18000D02*
D03*
X23000Y180000D02*
D03*
X18000D02*
D03*
X23000Y185000D02*
D03*
X18000D02*
D03*
X23000Y190000D02*
D03*
X18000D02*
D03*
X23000Y195000D02*
D03*
D79*
X113000Y160000D02*
D03*
D80*
Y155000D02*
D03*
Y150000D02*
D03*
M02*
