G04*
G04 #@! TF.GenerationSoftware,Altium Limited,Altium Designer,25.5.2 (35)*
G04*
G04 Layer_Color=16711935*
%FSLAX25Y25*%
%MOIN*%
G70*
G04*
G04 #@! TF.SameCoordinates,D66E9047-1B96-4A49-AC18-2C29B9855DE9*
G04*
G04*
G04 #@! TF.FilePolarity,Positive*
G04*
G01*
G75*
%ADD11C,0.00787*%
%ADD15C,0.00500*%
G36*
X216133Y154307D02*
X212918Y151092D01*
X211813Y152197D01*
X215028Y155412D01*
X216133Y154307D01*
D02*
G37*
G36*
X218366Y152074D02*
X215159Y148867D01*
X214048Y149979D01*
X217255Y153185D01*
X218366Y152074D01*
D02*
G37*
G36*
X220592Y149847D02*
X217381Y146636D01*
X216271Y147746D01*
X219482Y150958D01*
X220592Y149847D01*
D02*
G37*
G36*
X222821Y147618D02*
X219614Y144411D01*
X218501Y145524D01*
X221708Y148731D01*
X222821Y147618D01*
D02*
G37*
G36*
X225047Y145392D02*
X221820Y142165D01*
X220709Y143277D01*
X223936Y146504D01*
X225047Y145392D01*
D02*
G37*
G36*
X227277Y143163D02*
X224051Y139936D01*
X222937Y141050D01*
X226163Y144276D01*
X227277Y143163D01*
D02*
G37*
G36*
X229504Y140936D02*
X226301Y137733D01*
X225187Y138847D01*
X228390Y142050D01*
X229504Y140936D01*
D02*
G37*
G36*
X231733Y138707D02*
X228525Y135498D01*
X227409Y136614D01*
X230617Y139822D01*
X231733Y138707D01*
D02*
G37*
G36*
X233969Y136470D02*
X230740Y133240D01*
X229614Y134366D01*
X232844Y137595D01*
X233969Y136470D01*
D02*
G37*
G36*
X236204Y134236D02*
X232968Y131000D01*
X231836Y132133D01*
X235071Y135368D01*
X236204Y134236D01*
D02*
G37*
G36*
X238415Y132024D02*
X235209Y128818D01*
X234092Y129934D01*
X237299Y133141D01*
X238415Y132024D01*
D02*
G37*
G36*
X238405Y182979D02*
X237297Y181872D01*
X234102Y185066D01*
X235210Y186174D01*
X238405Y182979D01*
D02*
G37*
G36*
X236177Y180754D02*
X235068Y179645D01*
X231875Y182839D01*
X232983Y183947D01*
X236177Y180754D01*
D02*
G37*
G36*
X233955Y178521D02*
X232842Y177409D01*
X229644Y180608D01*
X230756Y181720D01*
X233955Y178521D01*
D02*
G37*
G36*
X231720Y176303D02*
X230609Y175192D01*
X227419Y178383D01*
X228529Y179493D01*
X231720Y176303D01*
D02*
G37*
G36*
X229484Y174084D02*
X228372Y172973D01*
X225190Y176154D01*
X226302Y177266D01*
X229484Y174084D01*
D02*
G37*
G36*
X227264Y171849D02*
X226151Y170735D01*
X222961Y173925D01*
X224075Y175039D01*
X227264Y171849D01*
D02*
G37*
G36*
X225024Y169636D02*
X223904Y168517D01*
X220729Y171693D01*
X221848Y172812D01*
X225024Y169636D01*
D02*
G37*
G36*
X222806Y167399D02*
X221687Y166279D01*
X218501Y169465D01*
X219621Y170584D01*
X222806Y167399D01*
D02*
G37*
G36*
X220573Y165179D02*
X219447Y164053D01*
X216268Y167232D01*
X217394Y168358D01*
X220573Y165179D01*
D02*
G37*
G36*
X218352Y162945D02*
X217227Y161820D01*
X214042Y165006D01*
X215166Y166130D01*
X218352Y162945D01*
D02*
G37*
G36*
X216127Y160715D02*
X215002Y159590D01*
X211814Y162778D01*
X212939Y163903D01*
X216127Y160715D01*
D02*
G37*
G36*
X269198Y152186D02*
X268101Y151088D01*
X264874Y154314D01*
X265972Y155412D01*
X269198Y152186D01*
D02*
G37*
G36*
X266963Y149967D02*
X265858Y148862D01*
X262640Y152079D01*
X263745Y153185D01*
X266963Y149967D01*
D02*
G37*
G36*
X264731Y147744D02*
X263622Y146635D01*
X260409Y149848D01*
X261518Y150958D01*
X264731Y147744D01*
D02*
G37*
G36*
X262503Y145519D02*
X261392Y144408D01*
X258180Y147620D01*
X259292Y148731D01*
X262503Y145519D01*
D02*
G37*
G36*
X260291Y143277D02*
X259179Y142166D01*
X255953Y145392D01*
X257064Y146504D01*
X260291Y143277D01*
D02*
G37*
G36*
X258056Y141057D02*
X256943Y139943D01*
X253723Y143163D01*
X254837Y144276D01*
X258056Y141057D01*
D02*
G37*
G36*
X255838Y138821D02*
X254720Y137703D01*
X251492Y140931D01*
X252610Y142050D01*
X255838Y138821D01*
D02*
G37*
G36*
X253591Y136614D02*
X252476Y135498D01*
X249267Y138707D01*
X250383Y139822D01*
X253591Y136614D01*
D02*
G37*
G36*
X251391Y134360D02*
X250264Y133232D01*
X247028Y136468D01*
X248156Y137595D01*
X251391Y134360D01*
D02*
G37*
G36*
X249149Y132148D02*
X248025Y131024D01*
X244805Y134244D01*
X245929Y135368D01*
X249149Y132148D01*
D02*
G37*
G36*
X246910Y129932D02*
X245792Y128815D01*
X242584Y132023D01*
X243701Y133141D01*
X246910Y129932D01*
D02*
G37*
G36*
X246884Y185080D02*
X243707Y181902D01*
X242613Y182997D01*
X245790Y186174D01*
X246884Y185080D01*
D02*
G37*
G36*
X249120Y182844D02*
X245935Y179659D01*
X244832Y180763D01*
X248017Y183947D01*
X249120Y182844D01*
D02*
G37*
G36*
X251348Y180616D02*
X248168Y177437D01*
X247065Y178540D01*
X250244Y181720D01*
X251348Y180616D01*
D02*
G37*
G36*
X253580Y178384D02*
X250393Y175196D01*
X249283Y176306D01*
X252471Y179493D01*
X253580Y178384D01*
D02*
G37*
G36*
X255809Y176155D02*
X252634Y172981D01*
X251523Y174091D01*
X254698Y177266D01*
X255809Y176155D01*
D02*
G37*
G36*
X258039Y173925D02*
X254856Y170741D01*
X253742Y171855D01*
X256926Y175039D01*
X258039Y173925D01*
D02*
G37*
G36*
X260270Y171694D02*
X257091Y168514D01*
X255973Y169633D01*
X259152Y172812D01*
X260270Y171694D01*
D02*
G37*
G36*
X262499Y169465D02*
X259314Y166279D01*
X258194Y167399D01*
X261379Y170584D01*
X262499Y169465D01*
D02*
G37*
G36*
X264726Y167238D02*
X261537Y164048D01*
X260417Y165168D01*
X263606Y168358D01*
X264726Y167238D01*
D02*
G37*
G36*
X266949Y165015D02*
X263750Y161816D01*
X262635Y162931D01*
X265834Y166130D01*
X266949Y165015D01*
D02*
G37*
G36*
X269196Y162768D02*
X266020Y159592D01*
X264885Y160727D01*
X268061Y163903D01*
X269196Y162768D01*
D02*
G37*
D11*
X293730Y221470D02*
G03*
X293730Y221470I-394J0D01*
G01*
X179335Y293933D02*
G03*
X179335Y293933I-394J0D01*
G01*
X306564Y96664D02*
G03*
X306564Y96664I-394J0D01*
G01*
X136913Y20000D02*
G03*
X136913Y20000I-394J0D01*
G01*
X375394Y102795D02*
G03*
X375394Y102795I-394J0D01*
G01*
X160189Y84189D02*
Y107811D01*
X183811D01*
Y84189D02*
Y107811D01*
X160189Y84189D02*
X183811D01*
Y207189D02*
Y230811D01*
X160189Y207189D02*
X183811D01*
X160189D02*
Y230811D01*
X183811D01*
X29795Y238213D02*
Y259787D01*
X4205Y238213D02*
X29795D01*
X4205D02*
Y259787D01*
X29795D01*
X21213Y284205D02*
X42787D01*
X21213D02*
Y309795D01*
X42787D01*
Y284205D02*
Y309795D01*
X359461Y209902D02*
X379539D01*
Y160098D02*
Y209902D01*
X359461Y160098D02*
X379539D01*
X359461D02*
Y209902D01*
X10461D02*
X30539D01*
Y160098D02*
Y209902D01*
X10461Y160098D02*
X30539D01*
X10461D02*
Y209902D01*
X787Y75992D02*
X27165D01*
X787Y40008D02*
Y75992D01*
Y40008D02*
X27165D01*
Y75992D01*
D15*
X280016Y221031D02*
X281984D01*
Y224969D01*
X280016D02*
X281984D01*
X280016Y221031D02*
Y224969D01*
X326516Y222468D02*
X328484D01*
X326516Y218531D02*
Y222468D01*
Y218531D02*
X328484D01*
Y222468D01*
X304031Y99016D02*
Y100984D01*
Y99016D02*
X307968D01*
Y100984D01*
X304031D02*
X307968D01*
X294516Y67032D02*
X296484D01*
Y70969D01*
X294516D02*
X296484D01*
X294516Y67032D02*
Y70969D01*
X309601Y238556D02*
X323256Y224901D01*
X298744Y227699D02*
X312399Y214044D01*
X323256Y224901D01*
X298744Y227699D02*
X309601Y238556D01*
X295008Y271457D02*
Y278543D01*
X290992Y271457D02*
Y278543D01*
X295008D01*
X290992Y271457D02*
X295008D01*
X275008D02*
Y278543D01*
X270992Y271457D02*
Y278543D01*
X275008D01*
X270992Y271457D02*
X275008D01*
X136815Y284681D02*
Y307319D01*
Y284681D02*
X175791D01*
Y307319D01*
X136815D02*
X175791D01*
X198398Y123087D02*
X200602D01*
Y118913D02*
Y123087D01*
X198398Y118913D02*
X200602D01*
X198398D02*
Y123087D01*
Y105087D02*
X200602D01*
Y100913D02*
Y105087D01*
X198398Y100913D02*
X200602D01*
X198398D02*
Y105087D01*
X312399Y91256D02*
X323256Y80399D01*
X298744Y77601D02*
X309601Y66744D01*
X298744Y77601D02*
X312399Y91256D01*
X309601Y66744D02*
X323256Y80399D01*
X272992Y33457D02*
Y40543D01*
X277008Y33457D02*
Y40543D01*
X272992Y33457D02*
X277008D01*
X272992Y40543D02*
X277008D01*
X290992Y33457D02*
Y40543D01*
X295008Y33457D02*
Y40543D01*
X290992Y33457D02*
X295008D01*
X290992Y40543D02*
X295008D01*
X38606Y80898D02*
Y83102D01*
X42779D01*
Y80898D02*
Y83102D01*
X38606Y80898D02*
X42779D01*
X38724Y74016D02*
X42661D01*
X38724D02*
Y75984D01*
X42661D01*
Y74016D02*
Y75984D01*
X46031Y38516D02*
X49968D01*
X46031D02*
Y40484D01*
X49968D01*
Y38516D02*
Y40484D01*
X137016Y151339D02*
Y155276D01*
X138984D01*
Y151339D02*
Y155276D01*
X137016Y151339D02*
X138984D01*
X145031Y45984D02*
X148969D01*
Y44016D02*
Y45984D01*
X145031Y44016D02*
X148969D01*
X145031D02*
Y45984D01*
X163984Y59031D02*
Y62968D01*
X162016Y59031D02*
X163984D01*
X162016D02*
Y62968D01*
X163984D01*
X178646Y6614D02*
Y29252D01*
X139669D02*
X178646D01*
X139669Y6614D02*
Y29252D01*
Y6614D02*
X178646D01*
X360000Y105000D02*
X380000D01*
Y135000D01*
X360000D02*
X380000D01*
X360000Y105000D02*
Y135000D01*
X45457Y261992D02*
Y266008D01*
X52543Y261992D02*
Y266008D01*
X45457D02*
X52543D01*
X45457Y261992D02*
X52543D01*
X45457Y233992D02*
Y238008D01*
X52543Y233992D02*
Y238008D01*
X45457D02*
X52543D01*
X45457Y233992D02*
X52543D01*
X71016Y223031D02*
X72984D01*
Y226969D01*
X71016D02*
X72984D01*
X71016Y223031D02*
Y226969D01*
X70016Y276276D02*
X71984D01*
X70016Y272339D02*
Y276276D01*
Y272339D02*
X71984D01*
Y276276D01*
X162724Y266016D02*
Y267984D01*
Y266016D02*
X166661D01*
Y267984D01*
X162724D02*
X166661D01*
X188413Y163602D02*
X192587D01*
X188413Y161398D02*
Y163602D01*
Y161398D02*
X192587D01*
Y163602D01*
X180968Y251516D02*
Y253484D01*
X177032D02*
X180968D01*
X177032Y251516D02*
Y253484D01*
Y251516D02*
X180968D01*
X202898Y227221D02*
Y231394D01*
Y227221D02*
X205102D01*
Y231394D01*
X202898D02*
X205102D01*
X200398Y153413D02*
Y157587D01*
Y153413D02*
X202602D01*
Y157587D01*
X200398D02*
X202602D01*
M02*
