G04*
G04 #@! TF.GenerationSoftware,Altium Limited,Altium Designer,25.5.2 (35)*
G04*
G04 Layer_Physical_Order=1*
G04 Layer_Color=255*
%FSLAX25Y25*%
%MOIN*%
G70*
G04*
G04 #@! TF.SameCoordinates,D66E9047-1B96-4A49-AC18-2C29B9855DE9*
G04*
G04*
G04 #@! TF.FilePolarity,Positive*
G04*
G01*
G75*
%ADD12C,0.01000*%
%ADD19R,0.05118X0.06102*%
%ADD20R,0.02362X0.02126*%
%ADD21R,0.02126X0.02362*%
G04:AMPARAMS|DCode=22|XSize=77.56mil|YSize=23.62mil|CornerRadius=2.95mil|HoleSize=0mil|Usage=FLASHONLY|Rotation=45.000|XOffset=0mil|YOffset=0mil|HoleType=Round|Shape=RoundedRectangle|*
%AMROUNDEDRECTD22*
21,1,0.07756,0.01772,0,0,45.0*
21,1,0.07165,0.02362,0,0,45.0*
1,1,0.00591,0.03160,0.01907*
1,1,0.00591,-0.01907,-0.03160*
1,1,0.00591,-0.03160,-0.01907*
1,1,0.00591,0.01907,0.03160*
%
%ADD22ROUNDEDRECTD22*%
%ADD23R,0.04016X0.04095*%
G04:AMPARAMS|DCode=24|XSize=40mil|YSize=55mil|CornerRadius=5mil|HoleSize=0mil|Usage=FLASHONLY|Rotation=90.000|XOffset=0mil|YOffset=0mil|HoleType=Round|Shape=RoundedRectangle|*
%AMROUNDEDRECTD24*
21,1,0.04000,0.04500,0,0,90.0*
21,1,0.03000,0.05500,0,0,90.0*
1,1,0.01000,0.02250,0.01500*
1,1,0.01000,0.02250,-0.01500*
1,1,0.01000,-0.02250,-0.01500*
1,1,0.01000,-0.02250,0.01500*
%
%ADD24ROUNDEDRECTD24*%
G04:AMPARAMS|DCode=25|XSize=59.06mil|YSize=19.68mil|CornerRadius=0mil|HoleSize=0mil|Usage=FLASHONLY|Rotation=45.000|XOffset=0mil|YOffset=0mil|HoleType=Round|Shape=Rectangle|*
%AMROTATEDRECTD25*
4,1,4,-0.01392,-0.02784,-0.02784,-0.01392,0.01392,0.02784,0.02784,0.01392,-0.01392,-0.02784,0.0*
%
%ADD25ROTATEDRECTD25*%

G04:AMPARAMS|DCode=26|XSize=19.68mil|YSize=59.06mil|CornerRadius=0mil|HoleSize=0mil|Usage=FLASHONLY|Rotation=45.000|XOffset=0mil|YOffset=0mil|HoleType=Round|Shape=Rectangle|*
%AMROTATEDRECTD26*
4,1,4,0.01392,-0.02784,-0.02784,0.01392,-0.01392,0.02784,0.02784,-0.01392,0.01392,-0.02784,0.0*
%
%ADD26ROTATEDRECTD26*%

G04:AMPARAMS|DCode=27|XSize=23.62mil|YSize=21.26mil|CornerRadius=5.63mil|HoleSize=0mil|Usage=FLASHONLY|Rotation=180.000|XOffset=0mil|YOffset=0mil|HoleType=Round|Shape=RoundedRectangle|*
%AMROUNDEDRECTD27*
21,1,0.02362,0.00999,0,0,180.0*
21,1,0.01235,0.02126,0,0,180.0*
1,1,0.01127,-0.00618,0.00500*
1,1,0.01127,0.00618,0.00500*
1,1,0.01127,0.00618,-0.00500*
1,1,0.01127,-0.00618,-0.00500*
%
%ADD27ROUNDEDRECTD27*%
G04:AMPARAMS|DCode=28|XSize=77.56mil|YSize=23.62mil|CornerRadius=2.95mil|HoleSize=0mil|Usage=FLASHONLY|Rotation=315.000|XOffset=0mil|YOffset=0mil|HoleType=Round|Shape=RoundedRectangle|*
%AMROUNDEDRECTD28*
21,1,0.07756,0.01772,0,0,315.0*
21,1,0.07165,0.02362,0,0,315.0*
1,1,0.00591,0.01907,-0.03160*
1,1,0.00591,-0.03160,0.01907*
1,1,0.00591,-0.01907,0.03160*
1,1,0.00591,0.03160,-0.01907*
%
%ADD28ROUNDEDRECTD28*%
G04:AMPARAMS|DCode=29|XSize=23.62mil|YSize=21.26mil|CornerRadius=5.63mil|HoleSize=0mil|Usage=FLASHONLY|Rotation=270.000|XOffset=0mil|YOffset=0mil|HoleType=Round|Shape=RoundedRectangle|*
%AMROUNDEDRECTD29*
21,1,0.02362,0.00999,0,0,270.0*
21,1,0.01235,0.02126,0,0,270.0*
1,1,0.01127,-0.00500,-0.00618*
1,1,0.01127,-0.00500,0.00618*
1,1,0.01127,0.00500,0.00618*
1,1,0.01127,0.00500,-0.00618*
%
%ADD29ROUNDEDRECTD29*%
%ADD30R,0.02362X0.01378*%
%ADD31R,0.01378X0.02362*%
%ADD32R,0.02756X0.02362*%
%ADD33R,0.04095X0.04016*%
%ADD34R,0.04528X0.01181*%
%ADD35R,0.04528X0.02362*%
G04:AMPARAMS|DCode=59|XSize=39.37mil|YSize=70.87mil|CornerRadius=19.68mil|HoleSize=0mil|Usage=FLASHONLY|Rotation=270.000|XOffset=0mil|YOffset=0mil|HoleType=Round|Shape=RoundedRectangle|*
%AMROUNDEDRECTD59*
21,1,0.03937,0.03150,0,0,270.0*
21,1,0.00000,0.07087,0,0,270.0*
1,1,0.03937,-0.01575,0.00000*
1,1,0.03937,-0.01575,0.00000*
1,1,0.03937,0.01575,0.00000*
1,1,0.03937,0.01575,0.00000*
%
%ADD59ROUNDEDRECTD59*%
G04:AMPARAMS|DCode=60|XSize=39.37mil|YSize=86.61mil|CornerRadius=19.68mil|HoleSize=0mil|Usage=FLASHONLY|Rotation=270.000|XOffset=0mil|YOffset=0mil|HoleType=Round|Shape=RoundedRectangle|*
%AMROUNDEDRECTD60*
21,1,0.03937,0.04724,0,0,270.0*
21,1,0.00000,0.08661,0,0,270.0*
1,1,0.03937,-0.02362,0.00000*
1,1,0.03937,-0.02362,0.00000*
1,1,0.03937,0.02362,0.00000*
1,1,0.03937,0.02362,0.00000*
%
%ADD60ROUNDEDRECTD60*%
%ADD63C,0.00864*%
%ADD64C,0.04000*%
%ADD65C,0.03000*%
%ADD66C,0.00623*%
%ADD67C,0.02000*%
%ADD68C,0.01500*%
%ADD69C,0.05000*%
%ADD70C,0.06000*%
%ADD71C,0.06299*%
%ADD72R,0.06299X0.06299*%
%ADD73R,0.05937X0.05937*%
%ADD74C,0.05937*%
%ADD75C,0.07677*%
%ADD76C,0.06319*%
%ADD77R,0.06319X0.06319*%
%ADD78C,0.04213*%
%ADD79R,0.04000X0.04000*%
%ADD80C,0.04000*%
%ADD81C,0.02400*%
G36*
X147800Y298200D02*
X147541Y297752D01*
X146983Y297902D01*
X146961D01*
Y294433D01*
X150429D01*
Y294456D01*
X150280Y295013D01*
X150728Y295272D01*
X152807Y293193D01*
X152978Y292556D01*
X153000Y292517D01*
Y252500D01*
X166299Y239201D01*
X166092Y238701D01*
X163642D01*
Y235150D01*
X166701D01*
Y238092D01*
X167201Y238299D01*
X174500Y231000D01*
Y191500D01*
X55500D01*
X33000Y214000D01*
X32774Y234013D01*
X33125Y234369D01*
X43459D01*
Y233392D01*
X48746D01*
X48753Y233392D01*
X49246D01*
X49254Y233392D01*
X54541D01*
Y234878D01*
X73139D01*
X73330Y234417D01*
X71207Y232293D01*
X70964Y231929D01*
X70878Y231500D01*
X70878Y231500D01*
Y228356D01*
X70219D01*
Y225370D01*
X69819D01*
Y223807D01*
X72000D01*
X74181D01*
Y225370D01*
X73781D01*
Y228356D01*
X73122D01*
Y231035D01*
X76965Y234878D01*
X81035D01*
X119200Y196714D01*
Y196142D01*
X119474Y195480D01*
X119980Y194974D01*
X120642Y194700D01*
X121358D01*
X122020Y194974D01*
X122526Y195480D01*
X122800Y196142D01*
Y196858D01*
X122526Y197520D01*
X122020Y198026D01*
X121358Y198300D01*
X120786D01*
X82293Y236793D01*
X81929Y237036D01*
X81500Y237122D01*
X81500Y237122D01*
X76500D01*
X76500Y237122D01*
X76500Y237122D01*
X54541D01*
Y238608D01*
X49254D01*
X49246Y238608D01*
X48753D01*
X48746Y238608D01*
X43459D01*
Y237631D01*
X32733D01*
X32458Y262013D01*
X32809Y262369D01*
X43459D01*
Y261392D01*
X48746D01*
X48753Y261392D01*
X49246D01*
X49254Y261392D01*
X54541D01*
Y262878D01*
X66500D01*
X66500Y262878D01*
X66500Y262878D01*
X70535D01*
X133200Y200214D01*
Y199642D01*
X133474Y198980D01*
X133980Y198474D01*
X134642Y198200D01*
X135358D01*
X136020Y198474D01*
X136526Y198980D01*
X136800Y199642D01*
Y200358D01*
X136526Y201020D01*
X136020Y201526D01*
X135358Y201800D01*
X134786D01*
X71793Y264793D01*
X71429Y265036D01*
X71000Y265122D01*
X71000Y265122D01*
X69861D01*
X69670Y265583D01*
X71793Y267707D01*
X71793Y267707D01*
X72036Y268071D01*
X72122Y268500D01*
X72122Y268500D01*
Y270951D01*
X72781D01*
Y273937D01*
X73181D01*
Y275500D01*
X71000D01*
X68819D01*
Y273937D01*
X69219D01*
Y270951D01*
X69878D01*
Y268965D01*
X66035Y265122D01*
X54541D01*
Y266608D01*
X49254D01*
X49246Y266608D01*
X48753D01*
X48746Y266608D01*
X43459D01*
Y265631D01*
X32417D01*
X32087Y294833D01*
X32585Y294970D01*
X33128Y294029D01*
X34029Y293128D01*
X35132Y292491D01*
X36363Y292161D01*
X36500D01*
Y297000D01*
Y301839D01*
X36363D01*
X35132Y301509D01*
X34029Y300872D01*
X33128Y299971D01*
X32540Y298952D01*
X32222Y298969D01*
X32039Y299037D01*
X32004Y302145D01*
X32356Y302500D01*
X143500D01*
X147800Y298200D01*
D02*
G37*
G36*
X258000Y282500D02*
X265500Y275000D01*
X269992D01*
Y272606D01*
X273000D01*
X276008D01*
Y275000D01*
X289992D01*
Y272606D01*
X293000D01*
Y272106D01*
X293500D01*
Y269059D01*
X295334D01*
X295616Y268559D01*
X295581Y268500D01*
X248500D01*
Y299830D01*
X249000Y299895D01*
X249133Y299398D01*
X249679Y298452D01*
X250452Y297679D01*
X251398Y297133D01*
X252454Y296850D01*
X252500D01*
Y301000D01*
Y305150D01*
X252454D01*
X251398Y304867D01*
X250452Y304321D01*
X249679Y303548D01*
X249133Y302602D01*
X249000Y302105D01*
X248500Y302170D01*
Y308000D01*
X258000D01*
Y282500D01*
D02*
G37*
G36*
X260066Y161338D02*
X260069Y160838D01*
X259152Y159922D01*
X239373D01*
X238944Y159836D01*
X238580Y159593D01*
X238580Y159593D01*
X237808Y158822D01*
X219760D01*
X219565Y159282D01*
X229000Y169000D01*
X240500Y179500D01*
X241500D01*
X260066Y161338D01*
D02*
G37*
G36*
X264245Y157250D02*
X264245Y156750D01*
X241006Y134000D01*
X240500Y134506D01*
X219562Y156118D01*
X219757Y156578D01*
X238273D01*
X238273Y156578D01*
X238702Y156664D01*
X239066Y156907D01*
X239837Y157678D01*
X259617D01*
X259617Y157678D01*
X260046Y157764D01*
X260410Y158007D01*
X261924Y159520D01*
X264245Y157250D01*
D02*
G37*
G36*
X54000Y51500D02*
X79538Y25962D01*
X79347Y25500D01*
X2500D01*
Y86000D01*
X36859D01*
Y82048D01*
X30218Y75407D01*
X30008Y75424D01*
X29695Y75547D01*
X29664Y75783D01*
X29365Y76505D01*
X28889Y77125D01*
X28269Y77601D01*
X27547Y77900D01*
X26772Y78002D01*
X25697D01*
Y75008D01*
X25197D01*
Y74508D01*
X20694D01*
X20730Y74233D01*
X21029Y73511D01*
X21505Y72891D01*
X22125Y72415D01*
X22847Y72116D01*
X23622Y72014D01*
X24197D01*
Y71098D01*
X27461D01*
Y70098D01*
X24197D01*
Y69080D01*
X22449D01*
X21824Y68956D01*
X21295Y68602D01*
X18347Y65654D01*
X17993Y65124D01*
X17869Y64500D01*
Y51000D01*
X17993Y50376D01*
X18347Y49847D01*
X20795Y47398D01*
X21325Y47044D01*
X21949Y46920D01*
X24197D01*
Y45902D01*
X27461D01*
Y44902D01*
X24197D01*
Y43986D01*
X23622D01*
X22847Y43884D01*
X22125Y43585D01*
X21505Y43109D01*
X21029Y42489D01*
X20730Y41767D01*
X20694Y41492D01*
X25197D01*
X29700D01*
X29664Y41767D01*
X29365Y42489D01*
X29187Y42720D01*
X29434Y43220D01*
X30724D01*
Y44687D01*
X31216Y44906D01*
X31468Y44705D01*
Y32900D01*
X31593Y32276D01*
X31946Y31747D01*
X34846Y28846D01*
X35376Y28493D01*
X36000Y28369D01*
X37431D01*
Y28219D01*
X39591D01*
Y27819D01*
X40780D01*
Y30000D01*
Y32181D01*
X39591D01*
Y31781D01*
X37431D01*
Y31631D01*
X36676D01*
X34731Y33576D01*
Y44976D01*
X35231Y45183D01*
X35878Y44535D01*
Y41086D01*
X35878Y41086D01*
X35964Y40657D01*
X36207Y40293D01*
X37793Y38707D01*
X37793Y38707D01*
X38157Y38464D01*
X38586Y38378D01*
X38586Y38378D01*
X44644D01*
Y37719D01*
X47630D01*
Y37319D01*
X49193D01*
Y39500D01*
X49693D01*
D01*
X49193D01*
Y41681D01*
X47630D01*
Y41281D01*
X44644D01*
Y40622D01*
X39050D01*
X38122Y41550D01*
Y45000D01*
X38036Y45429D01*
X37793Y45793D01*
X37793Y45793D01*
X31683Y51903D01*
X31319Y52146D01*
X30890Y52232D01*
X30890Y52232D01*
X30324D01*
Y54118D01*
X44355D01*
X45219Y53254D01*
Y52409D01*
X44819D01*
Y51221D01*
X47000D01*
X49181D01*
Y52409D01*
X48781D01*
Y54568D01*
X47929D01*
Y55849D01*
X47962Y55889D01*
X48429Y56142D01*
X48892Y55950D01*
X49608D01*
X50270Y56224D01*
X50776Y56730D01*
X51050Y57392D01*
Y58108D01*
X50776Y58770D01*
X50270Y59276D01*
X49608Y59550D01*
X48892D01*
X48802Y59513D01*
X47929Y60385D01*
Y60931D01*
X48781D01*
Y63091D01*
X49181D01*
Y64280D01*
X47000D01*
X44819D01*
Y63091D01*
X45219D01*
Y62246D01*
X44855Y61882D01*
X31156D01*
X30949Y62382D01*
X39793Y71226D01*
X40036Y71590D01*
X40122Y72019D01*
X40122Y72019D01*
Y72402D01*
X40323Y72819D01*
X41886D01*
Y75000D01*
Y77181D01*
X40323D01*
Y76781D01*
X37337D01*
Y73219D01*
X37878D01*
Y72484D01*
X33247Y67853D01*
X32856Y68114D01*
X32835Y68147D01*
X32956Y68755D01*
Y73531D01*
X39355Y79929D01*
X39819Y80022D01*
X40161Y80250D01*
X40759Y80255D01*
X41276Y79910D01*
X41886Y79788D01*
Y82000D01*
Y84212D01*
X41641Y84163D01*
X41141Y84556D01*
Y86000D01*
X54000D01*
Y51500D01*
D02*
G37*
G36*
X24597Y65668D02*
Y63699D01*
Y62143D01*
Y61882D01*
X23953D01*
X23953Y61882D01*
X23597Y61811D01*
X23296Y61610D01*
X23296Y61610D01*
X22343Y60657D01*
X22141Y60356D01*
X22071Y60000D01*
Y58000D01*
X22141Y57644D01*
X22343Y57343D01*
X23327Y56359D01*
X23629Y56157D01*
X23984Y56086D01*
X24597D01*
Y55825D01*
Y53857D01*
Y51888D01*
Y50332D01*
Y50182D01*
X22625D01*
X21131Y51676D01*
Y63824D01*
X23124Y65817D01*
X24597D01*
Y65668D01*
D02*
G37*
G36*
X44478Y59539D02*
X44478Y59523D01*
X43974Y59020D01*
X43700Y58358D01*
Y57642D01*
X43974Y56980D01*
X44478Y56477D01*
X44478Y56462D01*
X44375Y55977D01*
X33429D01*
Y58469D01*
X33359Y58824D01*
X33157Y59126D01*
X32759Y59523D01*
X32915Y59989D01*
X32942Y60023D01*
X44375D01*
X44478Y59539D01*
D02*
G37*
G36*
X160819Y61370D02*
Y59807D01*
X163000D01*
Y58807D01*
X160819D01*
Y57244D01*
X162091D01*
X162282Y56782D01*
X150818Y45318D01*
X150356Y45509D01*
Y46781D01*
X147370D01*
Y47181D01*
X145807D01*
Y45000D01*
Y42819D01*
X147317D01*
Y41816D01*
X139000Y33500D01*
Y13000D01*
X220500D01*
X260000Y52500D01*
X310000D01*
X311000Y51500D01*
Y37500D01*
X296008D01*
Y39394D01*
X293000D01*
X289992D01*
Y37500D01*
X278008D01*
Y39394D01*
X275000D01*
X271992D01*
Y37500D01*
X271000D01*
X259500Y26000D01*
Y15425D01*
X259250Y14494D01*
Y13506D01*
X259500Y12575D01*
Y9000D01*
X252500Y2000D01*
X120000D01*
Y42500D01*
X139000Y61500D01*
X160373D01*
X160819Y61370D01*
D02*
G37*
%LPC*%
G36*
X37637Y301839D02*
X37500D01*
Y297500D01*
X41839D01*
Y297637D01*
X41509Y298868D01*
X40872Y299971D01*
X39971Y300872D01*
X38868Y301509D01*
X37637Y301839D01*
D02*
G37*
G36*
X145961Y297902D02*
X145938D01*
X144929Y297631D01*
X144024Y297109D01*
X143285Y296370D01*
X142763Y295465D01*
X142492Y294456D01*
Y294433D01*
X145961D01*
Y297902D01*
D02*
G37*
G36*
X41839Y296500D02*
X37500D01*
Y292161D01*
X37637D01*
X38868Y292491D01*
X39971Y293128D01*
X40872Y294029D01*
X41509Y295132D01*
X41839Y296363D01*
Y296500D01*
D02*
G37*
G36*
X150429Y293433D02*
X146961D01*
Y289965D01*
X146983D01*
X147992Y290235D01*
X148897Y290757D01*
X149636Y291496D01*
X150159Y292401D01*
X150429Y293411D01*
Y293433D01*
D02*
G37*
G36*
X145961D02*
X142492D01*
Y293411D01*
X142763Y292401D01*
X143285Y291496D01*
X144024Y290757D01*
X144929Y290235D01*
X145938Y289965D01*
X145961D01*
Y293433D01*
D02*
G37*
G36*
X73181Y278063D02*
X71500D01*
Y276500D01*
X73181D01*
Y278063D01*
D02*
G37*
G36*
X70500D02*
X68819D01*
Y276500D01*
X70500D01*
Y278063D01*
D02*
G37*
G36*
X162642Y238701D02*
X159583D01*
Y235150D01*
X162642D01*
Y238701D01*
D02*
G37*
G36*
X166701Y234150D02*
X163642D01*
Y230598D01*
X166701D01*
Y234150D01*
D02*
G37*
G36*
X162642D02*
X159583D01*
Y230598D01*
X162642D01*
Y234150D01*
D02*
G37*
G36*
X74181Y222807D02*
X72500D01*
Y221244D01*
X74181D01*
Y222807D01*
D02*
G37*
G36*
X71500D02*
X69819D01*
Y221244D01*
X71500D01*
Y222807D01*
D02*
G37*
G36*
X166701Y207402D02*
X163642D01*
Y203850D01*
X166701D01*
Y207402D01*
D02*
G37*
G36*
X162642D02*
X159583D01*
Y203850D01*
X162642D01*
Y207402D01*
D02*
G37*
G36*
X166701Y202850D02*
X163642D01*
Y199299D01*
X166701D01*
Y202850D01*
D02*
G37*
G36*
X162642D02*
X159583D01*
Y199299D01*
X162642D01*
Y202850D01*
D02*
G37*
G36*
X253546Y305150D02*
X253500D01*
Y301500D01*
X257150D01*
Y301546D01*
X256867Y302602D01*
X256321Y303548D01*
X255548Y304321D01*
X254602Y304867D01*
X253546Y305150D01*
D02*
G37*
G36*
X257150Y300500D02*
X253500D01*
Y296850D01*
X253546D01*
X254602Y297133D01*
X255548Y297679D01*
X256321Y298452D01*
X256867Y299398D01*
X257150Y300454D01*
Y300500D01*
D02*
G37*
G36*
X292500Y271606D02*
X289992D01*
Y269059D01*
X292500D01*
Y271606D01*
D02*
G37*
G36*
X276008D02*
X273500D01*
Y269059D01*
X276008D01*
Y271606D01*
D02*
G37*
G36*
X272500D02*
X269992D01*
Y269059D01*
X272500D01*
Y271606D01*
D02*
G37*
G36*
X42886Y84212D02*
Y82500D01*
X44479D01*
Y82618D01*
X44358Y83228D01*
X44013Y83745D01*
X43495Y84090D01*
X42886Y84212D01*
D02*
G37*
G36*
X44479Y81500D02*
X42886D01*
Y79788D01*
X43495Y79910D01*
X44013Y80255D01*
X44358Y80772D01*
X44479Y81382D01*
Y81500D01*
D02*
G37*
G36*
X11811Y78002D02*
X9949D01*
Y75508D01*
X14739D01*
X14703Y75783D01*
X14404Y76505D01*
X13928Y77125D01*
X13308Y77601D01*
X12586Y77900D01*
X11811Y78002D01*
D02*
G37*
G36*
X24697D02*
X23622D01*
X22847Y77900D01*
X22125Y77601D01*
X21505Y77125D01*
X21029Y76505D01*
X20730Y75783D01*
X20694Y75508D01*
X24697D01*
Y78002D01*
D02*
G37*
G36*
X8949D02*
X7087D01*
X6312Y77900D01*
X5590Y77601D01*
X4969Y77125D01*
X4494Y76505D01*
X4194Y75783D01*
X4158Y75508D01*
X8949D01*
Y78002D01*
D02*
G37*
G36*
X44449Y77181D02*
X42886D01*
Y75500D01*
X44449D01*
Y77181D01*
D02*
G37*
G36*
Y74500D02*
X42886D01*
Y72819D01*
X44449D01*
Y74500D01*
D02*
G37*
G36*
X14739Y74508D02*
X9949D01*
Y72014D01*
X11811D01*
X12586Y72116D01*
X13308Y72415D01*
X13928Y72891D01*
X14404Y73511D01*
X14703Y74233D01*
X14739Y74508D01*
D02*
G37*
G36*
X8949D02*
X4158D01*
X4194Y74233D01*
X4494Y73511D01*
X4969Y72891D01*
X5590Y72415D01*
X6312Y72116D01*
X7087Y72014D01*
X8949D01*
Y74508D01*
D02*
G37*
G36*
X49181Y66469D02*
X47500D01*
Y65280D01*
X49181D01*
Y66469D01*
D02*
G37*
G36*
X46500D02*
X44819D01*
Y65280D01*
X46500D01*
Y66469D01*
D02*
G37*
G36*
X49181Y50221D02*
X47500D01*
Y49031D01*
X49181D01*
Y50221D01*
D02*
G37*
G36*
X46500D02*
X44819D01*
Y49031D01*
X46500D01*
Y50221D01*
D02*
G37*
G36*
X11811Y43986D02*
X9949D01*
Y41492D01*
X14739D01*
X14703Y41767D01*
X14404Y42489D01*
X13928Y43109D01*
X13308Y43585D01*
X12586Y43884D01*
X11811Y43986D01*
D02*
G37*
G36*
X8949D02*
X7087D01*
X6312Y43884D01*
X5590Y43585D01*
X4969Y43109D01*
X4494Y42489D01*
X4194Y41767D01*
X4158Y41492D01*
X8949D01*
Y43986D01*
D02*
G37*
G36*
X51756Y41681D02*
X50193D01*
Y40000D01*
X51756D01*
Y41681D01*
D02*
G37*
G36*
X29700Y40492D02*
X25697D01*
Y37998D01*
X26772D01*
X27547Y38100D01*
X28269Y38399D01*
X28889Y38875D01*
X29365Y39495D01*
X29664Y40217D01*
X29700Y40492D01*
D02*
G37*
G36*
X24697D02*
X20694D01*
X20730Y40217D01*
X21029Y39495D01*
X21505Y38875D01*
X22125Y38399D01*
X22847Y38100D01*
X23622Y37998D01*
X24697D01*
Y40492D01*
D02*
G37*
G36*
X14739D02*
X9949D01*
Y37998D01*
X11811D01*
X12586Y38100D01*
X13308Y38399D01*
X13928Y38875D01*
X14404Y39495D01*
X14703Y40217D01*
X14739Y40492D01*
D02*
G37*
G36*
X8949D02*
X4158D01*
X4194Y40217D01*
X4494Y39495D01*
X4969Y38875D01*
X5590Y38399D01*
X6312Y38100D01*
X7087Y37998D01*
X8949D01*
Y40492D01*
D02*
G37*
G36*
X51756Y39000D02*
X50193D01*
Y37319D01*
X51756D01*
Y39000D01*
D02*
G37*
G36*
X42968Y32181D02*
X41780D01*
Y30500D01*
X42968D01*
Y32181D01*
D02*
G37*
G36*
Y29500D02*
X41780D01*
Y27819D01*
X42968D01*
Y29500D01*
D02*
G37*
G36*
X144807Y47181D02*
X143244D01*
Y45500D01*
X144807D01*
Y47181D01*
D02*
G37*
G36*
Y44500D02*
X143244D01*
Y42819D01*
X144807D01*
Y44500D01*
D02*
G37*
G36*
X296008Y42941D02*
X293500D01*
Y40394D01*
X296008D01*
Y42941D01*
D02*
G37*
G36*
X278008D02*
X275500D01*
Y40394D01*
X278008D01*
Y42941D01*
D02*
G37*
G36*
X292500D02*
X289992D01*
Y40394D01*
X292500D01*
Y42941D01*
D02*
G37*
G36*
X274500D02*
X271992D01*
Y40394D01*
X274500D01*
Y42941D01*
D02*
G37*
G36*
X253546Y18150D02*
X253500D01*
Y14500D01*
X257150D01*
Y14546D01*
X256867Y15602D01*
X256321Y16548D01*
X255548Y17321D01*
X254602Y17867D01*
X253546Y18150D01*
D02*
G37*
G36*
X252500D02*
X252454D01*
X251398Y17867D01*
X250452Y17321D01*
X249679Y16548D01*
X249133Y15602D01*
X248850Y14546D01*
Y14500D01*
X252500D01*
Y18150D01*
D02*
G37*
G36*
X246750Y17750D02*
X239250D01*
Y10250D01*
X246750D01*
Y17750D01*
D02*
G37*
G36*
X257150Y13500D02*
X253500D01*
Y9850D01*
X253546D01*
X254602Y10133D01*
X255548Y10679D01*
X256321Y11452D01*
X256867Y12398D01*
X257150Y13454D01*
Y13500D01*
D02*
G37*
G36*
X252500D02*
X248850D01*
Y13454D01*
X249133Y12398D01*
X249679Y11452D01*
X250452Y10679D01*
X251398Y10133D01*
X252454Y9850D01*
X252500D01*
Y13500D01*
D02*
G37*
%LPD*%
D12*
X324011Y218807D02*
X327500D01*
X322204Y217000D02*
X324011Y218807D01*
X322000Y217000D02*
X322204D01*
X316500Y214000D02*
Y214088D01*
X311024Y219563D02*
X316500Y214088D01*
X307799Y219563D02*
X311024D01*
X305892Y217656D02*
X307799Y219563D01*
X300449Y219285D02*
X302356Y221192D01*
X289715Y219285D02*
X300449D01*
X287693Y221307D02*
X289715Y219285D01*
X281000Y221307D02*
X287693D01*
X297165Y216000D02*
X300449Y219285D01*
X303985Y89551D02*
X305892Y87644D01*
X303985Y89551D02*
Y99677D01*
X304307Y100000D01*
X294535Y99000D02*
X303985Y89551D01*
X295500Y70693D02*
X297693D01*
X305500Y78500D01*
Y80001D01*
X302356Y83145D02*
X305500Y80001D01*
X302356Y83145D02*
Y84108D01*
X188000Y260000D02*
X241341Y206659D01*
X242000Y205500D02*
Y205879D01*
X241341Y206538D02*
Y206659D01*
Y206538D02*
X242000Y205879D01*
X163142Y80350D02*
Y111650D01*
X288268Y125768D02*
X296500Y134000D01*
X252232Y125768D02*
X288268D01*
X206000Y176500D02*
X219993D01*
X221177Y175317D02*
X222683D01*
X219993Y176500D02*
X221177Y175317D01*
X200500Y139636D02*
X212940Y152075D01*
Y152211D01*
X200500Y139500D02*
Y139636D01*
X202904Y119404D02*
X205000Y121500D01*
X199597Y119404D02*
X202904D01*
X38586Y39500D02*
X46307D01*
X37000Y41086D02*
X38586Y39500D01*
X37000Y41086D02*
Y45000D01*
X30890Y51110D02*
X37000Y45000D01*
X27461Y51110D02*
X30890D01*
X39000Y72019D02*
Y75000D01*
X29993Y63012D02*
X39000Y72019D01*
X27551Y63012D02*
X29993D01*
X27461Y62921D02*
X27551Y63012D01*
X264441Y151375D02*
X265833Y149984D01*
X264441Y151375D02*
Y152882D01*
X264177Y153147D02*
X264441Y152882D01*
X264177Y153147D02*
Y154058D01*
X268671Y158553D01*
X282805D01*
X287500Y163247D01*
Y180000D01*
X270000Y145500D02*
Y145658D01*
X265833Y149825D02*
X270000Y145658D01*
X265833Y149825D02*
Y149984D01*
X247000Y85328D02*
Y94500D01*
X215086Y53414D02*
X247000Y85328D01*
X215000Y53500D02*
X215086Y53414D01*
X166500Y53500D02*
X215000D01*
X159158Y46158D02*
X166500Y53500D01*
X159158Y20000D02*
Y46158D01*
X159500Y260000D02*
X188000D01*
X156303Y263197D02*
X159500Y260000D01*
X156303Y263197D02*
Y293933D01*
X163142Y111650D02*
Y118142D01*
X167500Y122500D01*
X190500D01*
X192500Y120500D01*
Y111693D02*
Y120500D01*
Y111693D02*
X198858Y105335D01*
Y105251D02*
Y105335D01*
Y105251D02*
X199416Y104693D01*
X199500D01*
X212940Y162789D02*
X218029Y157700D01*
X238273D01*
X239373Y158800D01*
X259617D01*
X265833Y165016D01*
X273600Y174600D02*
X276000Y177000D01*
X268700Y174600D02*
X273600D01*
X265686Y173732D02*
X267832D01*
X268700Y174600D01*
X261379Y169471D02*
X261425D01*
X265686Y173732D01*
X268661Y176661D02*
X272500Y180500D01*
X264115Y176661D02*
X268661D01*
X259152Y171698D02*
X264115Y176661D01*
X266000Y181500D02*
X276000Y191500D01*
Y196500D01*
X254698Y176152D02*
X260046Y181500D01*
X266000D01*
X261800Y178800D02*
X266800D01*
X282500Y194500D01*
X256925Y173925D02*
X261800Y178800D01*
X252471Y178379D02*
X290092Y216000D01*
X297165D01*
X260300Y189047D02*
Y198700D01*
X243000Y216000D02*
Y301000D01*
Y216000D02*
X260300Y198700D01*
X256947Y185694D02*
X260300Y189047D01*
X255331Y185694D02*
X256947D01*
X250244Y180606D02*
X255331Y185694D01*
X199500Y119307D02*
X199597Y119404D01*
X212347Y104847D02*
X212500Y105000D01*
X199653Y104847D02*
X212347D01*
X199500Y104693D02*
X199653Y104847D01*
X213500Y130500D02*
X224075Y141075D01*
X216500Y122000D02*
X216608Y122108D01*
Y124700D01*
X228529Y136621D01*
X170500Y171600D02*
X215300D01*
X215400Y171500D01*
X218936Y169471D02*
X219621D01*
X215400Y171500D02*
X216907D01*
X218936Y169471D01*
X206737Y170000D02*
X214637D01*
X217394Y167244D01*
X199237Y162500D02*
X206737Y170000D01*
X192193Y162500D02*
X199237D01*
X148000Y171500D02*
X151300Y174800D01*
X196304D01*
X196904Y174200D01*
X218661D01*
X221163Y171698D01*
X221848D01*
X66500Y264000D02*
X71000Y268500D01*
Y272614D01*
X66500Y264000D02*
X71000D01*
X72000Y231500D02*
X76500Y236000D01*
X72000Y226693D02*
Y231500D01*
X76500Y236000D02*
X81500D01*
X121000Y196500D01*
X51894Y236000D02*
X76500D01*
X71000Y264000D02*
X135000Y200000D01*
X51894Y264000D02*
X66500D01*
X28500Y184500D02*
X195000D01*
X23000Y190000D02*
X28500Y184500D01*
X28794Y198206D02*
X37000Y190000D01*
X216908D02*
X228529Y178379D01*
X37000Y190000D02*
X216908D01*
X16672Y198206D02*
X28794D01*
X14794Y196328D02*
X16672Y198206D01*
X14794Y193206D02*
Y196328D01*
Y193206D02*
X18000Y190000D01*
X222683Y175317D02*
X224075Y173925D01*
X223470Y178984D02*
X226302Y176152D01*
X221948Y179000D02*
X221963Y178984D01*
X223470D01*
X128251Y179000D02*
X221948D01*
X116165Y166914D02*
X128251Y179000D01*
X20086Y166914D02*
X116165D01*
X18000Y169000D02*
X20086Y166914D01*
X18000Y169000D02*
Y175000D01*
X201348Y157193D02*
X201500D01*
X200041Y158500D02*
X201348Y157193D01*
X179000Y158500D02*
X200041D01*
X209729Y166000D02*
X212940Y162789D01*
X205000Y166000D02*
X209729D01*
X201500Y162500D02*
X205000Y166000D01*
X201500Y157193D02*
Y162500D01*
X248017Y182833D02*
X255183Y190000D01*
X258000D01*
X264249Y143000D02*
X289000D01*
X331000Y185000D02*
X367000D01*
X289000Y143000D02*
X331000Y185000D01*
X261379Y145529D02*
X261719D01*
X264249Y143000D01*
X259152Y143302D02*
X261954Y140500D01*
X293500D01*
X333000Y180000D02*
X367000D01*
X293500Y140500D02*
X333000Y180000D01*
X251000Y122000D02*
X293000D01*
X335000Y164000D01*
X247181Y125819D02*
X251000Y122000D01*
X335000Y164000D02*
X370000D01*
X375206Y169206D02*
Y176794D01*
X370000Y164000D02*
X375206Y169206D01*
X372000Y180000D02*
X375206Y176794D01*
X247181Y125819D02*
Y128548D01*
X245789Y129939D02*
X247181Y128548D01*
X252232Y125768D02*
Y127951D01*
X248017Y132167D02*
X252232Y127951D01*
X268060Y152211D02*
X268289D01*
X272000Y148500D01*
X279000D01*
X296000Y165500D01*
Y207765D01*
X305892Y217656D01*
X276000Y173000D02*
X285000Y164000D01*
X269363Y173000D02*
X276000D01*
X234500Y99000D02*
X294535D01*
X205000Y128500D02*
X234500Y99000D01*
X290500Y91000D02*
Y94000D01*
X297464Y89000D02*
X302356Y84108D01*
X290500Y91000D02*
X292500Y89000D01*
X297464D01*
X235000Y114000D02*
X307000D01*
X227000Y122000D02*
X235000Y114000D01*
X263606Y167244D02*
X269363Y173000D01*
X227000Y122000D02*
Y126183D01*
X232983Y132167D01*
X317000Y111000D02*
X320000Y114000D01*
X233000Y111000D02*
X317000D01*
X224000Y120000D02*
X233000Y111000D01*
X224000Y120000D02*
Y127637D01*
X230756Y134394D01*
X231000Y125729D02*
X235211Y129939D01*
X231000Y122000D02*
Y125729D01*
Y122000D02*
X235000Y118000D01*
X338000D01*
X355000Y101000D01*
X372000D01*
X375000Y104000D01*
Y110000D01*
D19*
X163142Y80350D02*
D03*
Y111650D02*
D03*
X180858Y80350D02*
D03*
Y111650D02*
D03*
Y234650D02*
D03*
Y203350D02*
D03*
X163142Y234650D02*
D03*
Y203350D02*
D03*
D20*
X281000Y224693D02*
D03*
Y221307D02*
D03*
X327500Y218807D02*
D03*
Y222193D02*
D03*
X295500Y70693D02*
D03*
Y67307D02*
D03*
X138000Y151614D02*
D03*
Y155000D02*
D03*
X163000Y62693D02*
D03*
Y59307D02*
D03*
X72000Y226693D02*
D03*
Y223307D02*
D03*
X71000Y272614D02*
D03*
Y276000D02*
D03*
D21*
X307693Y100000D02*
D03*
X304307D02*
D03*
X42386Y75000D02*
D03*
X39000D02*
D03*
X49693Y39500D02*
D03*
X46307D02*
D03*
X145307Y45000D02*
D03*
X148693D02*
D03*
X166386Y267000D02*
D03*
X163000D02*
D03*
X177307Y252500D02*
D03*
X180693D02*
D03*
D22*
X312573Y238479D02*
D03*
X316108Y234944D02*
D03*
X319644Y231408D02*
D03*
X323180Y227873D02*
D03*
X309427Y214121D02*
D03*
X305892Y217656D02*
D03*
X302356Y221192D02*
D03*
X298820Y224727D02*
D03*
D23*
X293000Y272106D02*
D03*
Y277894D02*
D03*
X273000Y272106D02*
D03*
Y277894D02*
D03*
X275000Y39894D02*
D03*
Y34106D02*
D03*
X293000Y39894D02*
D03*
Y34106D02*
D03*
D24*
X179000Y151500D02*
D03*
Y158500D02*
D03*
D25*
X212940Y152211D02*
D03*
X215167Y149984D02*
D03*
X217394Y147756D02*
D03*
X219621Y145529D02*
D03*
X221848Y143302D02*
D03*
X224075Y141075D02*
D03*
X226302Y138848D02*
D03*
X228529Y136621D02*
D03*
X230756Y134394D02*
D03*
X232983Y132167D02*
D03*
X235211Y129939D02*
D03*
X268060Y162789D02*
D03*
X265833Y165016D02*
D03*
X263606Y167244D02*
D03*
X261379Y169471D02*
D03*
X259152Y171698D02*
D03*
X256925Y173925D02*
D03*
X254698Y176152D02*
D03*
X252471Y178379D02*
D03*
X250244Y180606D02*
D03*
X248017Y182833D02*
D03*
X245789Y185061D02*
D03*
D26*
Y129939D02*
D03*
X248017Y132167D02*
D03*
X250244Y134394D02*
D03*
X252471Y136621D02*
D03*
X254698Y138848D02*
D03*
X256925Y141075D02*
D03*
X259152Y143302D02*
D03*
X261379Y145529D02*
D03*
X263606Y147756D02*
D03*
X265833Y149984D02*
D03*
X268060Y152211D02*
D03*
X235211Y185061D02*
D03*
X232983Y182833D02*
D03*
X230756Y180606D02*
D03*
X228529Y178379D02*
D03*
X226302Y176152D02*
D03*
X224075Y173925D02*
D03*
X221848Y171698D02*
D03*
X219621Y169471D02*
D03*
X217394Y167244D02*
D03*
X215167Y165016D02*
D03*
X212940Y162789D02*
D03*
D27*
X199500Y122693D02*
D03*
Y119307D02*
D03*
Y104693D02*
D03*
Y101307D02*
D03*
X204000Y227614D02*
D03*
Y231000D02*
D03*
X201500Y153807D02*
D03*
Y157193D02*
D03*
D28*
X309427Y91180D02*
D03*
X305892Y87644D02*
D03*
X302356Y84108D02*
D03*
X298820Y80573D02*
D03*
X312573Y66821D02*
D03*
X316108Y70356D02*
D03*
X319644Y73892D02*
D03*
X323180Y77427D02*
D03*
D29*
X39000Y82000D02*
D03*
X42386D02*
D03*
X188807Y162500D02*
D03*
X192193D02*
D03*
D30*
X47000Y62221D02*
D03*
Y64780D02*
D03*
Y53280D02*
D03*
Y50721D02*
D03*
D31*
X38721Y30000D02*
D03*
X41280D02*
D03*
D32*
X138000Y132130D02*
D03*
Y135870D02*
D03*
D33*
X51894Y264000D02*
D03*
X46106D02*
D03*
X51894Y236000D02*
D03*
X46106D02*
D03*
D34*
X27461Y64890D02*
D03*
Y62921D02*
D03*
Y60953D02*
D03*
Y58984D02*
D03*
Y57016D02*
D03*
Y55047D02*
D03*
Y53079D02*
D03*
Y51110D02*
D03*
D35*
Y48551D02*
D03*
Y67449D02*
D03*
Y70598D02*
D03*
Y45402D02*
D03*
D59*
X25197Y40992D02*
D03*
Y75008D02*
D03*
D60*
X9449Y40992D02*
D03*
Y75008D02*
D03*
D63*
X317006Y222193D02*
X327500D01*
X316500Y222699D02*
X317006Y222193D01*
X316500Y222699D02*
Y227235D01*
X319644Y230379D01*
Y231408D01*
X281000Y224693D02*
X294021D01*
X295874Y222840D01*
X296933D01*
X298820Y224727D01*
X307520Y93086D02*
X309427Y91180D01*
X307520Y93086D02*
Y99827D01*
X307693Y100000D01*
X295500Y67307D02*
X295693Y67500D01*
X301500D01*
X306263Y72263D01*
X314201D01*
X316108Y70356D01*
X346000Y18000D02*
Y62500D01*
X317320Y91180D02*
X346000Y62500D01*
X309427Y91180D02*
X317320D01*
X346000Y18000D02*
X350000Y14000D01*
X298820Y224727D02*
Y231321D01*
X322336Y254836D02*
Y297164D01*
X298820Y231321D02*
X322336Y254836D01*
X320530Y298971D02*
X322336Y297164D01*
X320530Y298971D02*
Y299000D01*
X319000Y300529D02*
Y302000D01*
Y300529D02*
X320530Y299000D01*
X324000Y297000D02*
X329000Y302000D01*
X316108Y234944D02*
X324000Y242835D01*
Y297000D01*
X323180Y227873D02*
X328000Y232693D01*
Y235052D02*
X344832Y251884D01*
X328000Y232693D02*
Y235052D01*
X324420Y236184D02*
X326779D01*
X319644Y231408D02*
X324420Y236184D01*
X326779D02*
X343168Y252574D01*
Y289832D01*
X339000Y294000D02*
Y302000D01*
Y294000D02*
X343168Y289832D01*
X344832Y251884D02*
Y289832D01*
X349000Y294000D02*
Y302000D01*
X344832Y289832D02*
X349000Y294000D01*
X319644Y73892D02*
X344168Y49367D01*
Y18168D02*
Y49367D01*
X340000Y14000D02*
X344168Y18168D01*
X321500Y62606D02*
X325000Y59106D01*
X316108Y70356D02*
X321500Y64964D01*
Y62606D02*
Y64964D01*
X320252Y61500D02*
X323336Y58416D01*
X312573Y66821D02*
X317893Y61500D01*
X320252D01*
X323336Y22836D02*
Y58416D01*
X320000Y14000D02*
Y19500D01*
X323336Y22836D01*
X330000Y14000D02*
Y18000D01*
X325000Y23000D02*
Y59106D01*
Y23000D02*
X330000Y18000D01*
D64*
X129000Y32000D02*
X144000Y47000D01*
X192394Y216008D02*
X204000Y227614D01*
X175307Y216008D02*
X192394D01*
X163142Y203842D02*
Y234650D01*
Y203350D02*
Y203842D01*
Y202858D02*
Y203350D01*
X261394Y272106D02*
X273000D01*
X253000Y280500D02*
X261394Y272106D01*
X253000Y280500D02*
Y301000D01*
X267394Y39894D02*
X275000D01*
X253000Y25500D02*
X267394Y39894D01*
X253000Y14000D02*
Y25500D01*
X131343Y5000D02*
X244000D01*
X129000Y7343D02*
X131343Y5000D01*
X244000D02*
X253000Y14000D01*
X129000Y7343D02*
Y32000D01*
X317000Y192000D02*
X350500D01*
X309427Y199573D02*
X317000Y192000D01*
X309427Y199573D02*
Y211465D01*
X308678Y212213D02*
X309427Y211465D01*
X308678Y212213D02*
Y213372D01*
X309427Y214121D01*
X163142Y203842D02*
X175307Y216008D01*
X298072Y81322D02*
X298820Y80573D01*
X296914Y81322D02*
X298072D01*
X296165Y80573D02*
X296914Y81322D01*
X263073Y80573D02*
X296165D01*
X202500Y20000D02*
X263073Y80573D01*
X169000Y20000D02*
X202500D01*
X145937Y293933D02*
X146461D01*
X140832Y288828D02*
X145937Y293933D01*
X134828Y288828D02*
X140832D01*
X132000Y286000D02*
X134828Y288828D01*
X132000Y266283D02*
Y286000D01*
Y266283D02*
X163142Y235142D01*
Y234650D02*
Y235142D01*
X180858Y67642D02*
X183000Y65500D01*
X180858Y67642D02*
Y80350D01*
X159875Y151500D02*
X179000D01*
X156375Y155000D02*
X159875Y151500D01*
X138000Y155000D02*
X156375D01*
X113000D02*
X138000D01*
X100500Y150000D02*
X113000D01*
X39000Y88500D02*
X100500Y150000D01*
D65*
X199500Y127667D02*
X204891Y133058D01*
X180858Y111158D02*
Y111650D01*
Y80350D02*
Y111158D01*
X150500Y136500D02*
X153500Y139500D01*
X146130Y132130D02*
X150500Y136500D01*
X167590Y139500D02*
X171940Y143850D01*
X153500Y139500D02*
X167590D01*
X189150Y143850D02*
X196500Y151200D01*
X171940Y143850D02*
X189150D01*
X196500Y151200D02*
X199107Y153807D01*
X201500D01*
X185000Y164000D02*
X186500Y162500D01*
X188807D01*
X138000Y132130D02*
X146130D01*
X221756Y143302D02*
X221848D01*
X213447Y134994D02*
X221756Y143302D01*
X213327Y134994D02*
X213447D01*
X211391Y133058D02*
X213327Y134994D01*
X204891Y133058D02*
X211391D01*
X199500Y122693D02*
Y127667D01*
X191201Y101307D02*
X199500D01*
X182409Y110098D02*
X191201Y101307D01*
X181917Y110098D02*
X182409D01*
X180858Y111158D02*
X181917Y110098D01*
X39000Y82000D02*
Y88500D01*
X359500Y198000D02*
X362268Y195232D01*
X366768D01*
X367000Y195000D01*
X350500Y192000D02*
X352500Y190000D01*
X367000D01*
D66*
X32500Y55047D02*
Y58469D01*
X31984Y58984D02*
X32500Y58469D01*
X27461Y58984D02*
X31984D01*
X32500Y55047D02*
X44740D01*
X59500Y55500D02*
Y55577D01*
X61000Y57077D01*
X59500Y60000D02*
X61000Y58500D01*
X47000Y60000D02*
Y62221D01*
Y60000D02*
X49250Y57750D01*
X45500Y58000D02*
X47000Y56500D01*
Y53280D02*
Y56500D01*
X61000Y58500D02*
X90000D01*
X46508Y53280D02*
X47000D01*
X44740Y55047D02*
X46508Y53280D01*
X27461Y55047D02*
X32500D01*
X46508Y62221D02*
X47000D01*
X45240Y60953D02*
X46508Y62221D01*
X27461Y60953D02*
X45240D01*
X23953D02*
X27461D01*
X23000Y60000D02*
X23953Y60953D01*
X23000Y58000D02*
X23984Y57016D01*
X23000Y58000D02*
Y60000D01*
X23984Y57016D02*
X27461D01*
X216002Y146364D02*
X217394Y147756D01*
X216002Y145144D02*
Y146364D01*
X168392Y136892D02*
X207751D01*
X90000Y58500D02*
X168392Y136892D01*
X207751D02*
X216002Y145144D01*
X61000Y57077D02*
X90589D01*
X217008Y144137D02*
X218229D01*
X208340Y135469D02*
X217008Y144137D01*
X168982Y135469D02*
X208340D01*
X90589Y57077D02*
X168982Y135469D01*
X218229Y144137D02*
X219621Y145529D01*
D67*
X229000Y160000D02*
X233000D01*
X220183D02*
X229000D01*
X145307Y45000D02*
Y50807D01*
X163142Y202858D02*
X173249Y192751D01*
X223066D01*
X232983Y182833D01*
X240500Y168500D02*
Y175317D01*
X262924Y133077D02*
X263000Y133000D01*
X258883Y133077D02*
X262924D01*
X258660Y133300D02*
X258883Y133077D01*
X255814Y133300D02*
X258660D01*
X252493Y136621D02*
X255814Y133300D01*
X252471Y136621D02*
X252493D01*
X273659Y164159D02*
X277000Y167500D01*
X269430Y164159D02*
X273659D01*
X268060Y162789D02*
X269430Y164159D01*
X252500Y156500D02*
X261771D01*
X78392Y274500D02*
X78500D01*
X76892Y276000D02*
X78392Y274500D01*
X71000Y276000D02*
X76892D01*
X72000Y220000D02*
X76000Y216000D01*
X72000Y220000D02*
Y223307D01*
X160500Y272500D02*
X160576Y272424D01*
Y269542D02*
Y272424D01*
Y269542D02*
X163000Y267118D01*
Y267000D02*
Y267118D01*
X168000Y251500D02*
X168108D01*
X169108Y252500D01*
X177307D01*
X336500Y198000D02*
X359500D01*
X310666Y223834D02*
X336500Y198000D01*
X310666Y223834D02*
Y236573D01*
X312573Y238479D01*
X273000Y272106D02*
X293000D01*
X299894Y39894D02*
X306500Y46500D01*
X293000Y39894D02*
X299894D01*
X275000D02*
X293000D01*
X334000Y66500D02*
Y66607D01*
X323180Y77427D02*
X334000Y66607D01*
X153807Y59307D02*
X163000D01*
X145307Y50807D02*
X153807Y59307D01*
X210076Y145077D02*
X210260D01*
X215167Y149984D01*
X210000Y145000D02*
X210076Y145077D01*
X36000Y30000D02*
X38721D01*
X33100Y32900D02*
X36000Y30000D01*
X33100Y32900D02*
Y45470D01*
X30200Y48370D02*
X33100Y45470D01*
X27642Y48370D02*
X30200D01*
X27461Y48551D02*
X27642Y48370D01*
X22449Y67449D02*
X27461D01*
X19500Y64500D02*
X22449Y67449D01*
X19500Y51000D02*
Y64500D01*
Y51000D02*
X21949Y48551D01*
X27461D01*
X39000Y81882D02*
Y82000D01*
X31324Y74206D02*
X39000Y81882D01*
X31324Y68755D02*
Y74206D01*
X30200Y67630D02*
X31324Y68755D01*
X27642Y67630D02*
X30200D01*
X27461Y67449D02*
X27642Y67630D01*
X219500Y132000D02*
Y132024D01*
X226302Y138826D01*
Y138848D01*
X25000Y236000D02*
X46106D01*
X17000Y244000D02*
X25000Y236000D01*
X27000Y264000D02*
X46106D01*
X17000Y254000D02*
X27000Y264000D01*
X231000Y193000D02*
X231001Y192999D01*
Y189270D02*
Y192999D01*
Y189270D02*
X235211Y185061D01*
X257423Y130577D02*
X257500Y130500D01*
X254083Y130577D02*
X257423D01*
X250266Y134394D02*
X254083Y130577D01*
X250244Y134394D02*
X250266D01*
X242500Y146500D02*
Y151500D01*
X242569Y146500D02*
X252448Y136621D01*
X242500Y146500D02*
X242569D01*
X252448Y136621D02*
X252471D01*
X221848Y143324D02*
X231000Y152477D01*
Y152500D02*
X231108D01*
X233032Y154423D02*
X235924D01*
X221848Y143302D02*
Y143324D01*
X231000Y152477D02*
Y152500D01*
X231108D02*
X233032Y154423D01*
X235924D02*
X236000Y154500D01*
X247000Y156500D02*
X252500D01*
X232983Y182833D02*
X240500Y175317D01*
Y166000D02*
Y168500D01*
X215167Y165016D02*
X220183Y160000D01*
X261771Y156500D02*
X268060Y162789D01*
X275000Y25019D02*
Y34106D01*
X273000Y23020D02*
X275000Y25019D01*
X273000Y14000D02*
Y23020D01*
X293000Y14000D02*
Y34106D01*
X273000Y277894D02*
Y301000D01*
X293000Y277894D02*
Y301000D01*
D68*
X232150Y203350D02*
Y204202D01*
X205388Y230964D02*
X232150Y204202D01*
X204036Y230964D02*
X205388D01*
X204000Y231000D02*
X204036Y230964D01*
X180858Y234157D02*
Y234650D01*
Y234157D02*
X184016Y231000D01*
X204000D01*
X180693Y234815D02*
X180858Y234650D01*
X180693Y234815D02*
Y252500D01*
X163000Y62693D02*
Y80209D01*
X232150Y203350D02*
X245789Y189711D01*
Y185061D02*
Y189711D01*
X180858Y203350D02*
X232150D01*
X138000Y135870D02*
Y151614D01*
X166386Y267000D02*
Y293693D01*
X166146Y293933D02*
X166386Y293693D01*
X148693Y20622D02*
X149315Y20000D01*
X148693Y20622D02*
Y45000D01*
D69*
X86717Y266283D02*
X132000D01*
X78500Y274500D02*
X86717Y266283D01*
X56000Y297000D02*
X78500Y274500D01*
X37000Y297000D02*
X56000D01*
D70*
X379500Y305500D02*
D03*
X9500Y9000D02*
D03*
X378000Y10500D02*
D03*
X9000Y305500D02*
D03*
D71*
X319000Y302000D02*
D03*
X329000D02*
D03*
X339000D02*
D03*
X253000Y301000D02*
D03*
X263000D02*
D03*
X273000D02*
D03*
X283000D02*
D03*
X293000D02*
D03*
X253000Y14000D02*
D03*
X263000D02*
D03*
X273000D02*
D03*
X283000D02*
D03*
X293000D02*
D03*
X350000D02*
D03*
X340000D02*
D03*
X330000D02*
D03*
D72*
X349000Y302000D02*
D03*
X243000Y301000D02*
D03*
Y14000D02*
D03*
X320000D02*
D03*
D73*
X166146Y293933D02*
D03*
X149315Y20000D02*
D03*
D74*
X156303Y293933D02*
D03*
X146461D02*
D03*
X159158Y20000D02*
D03*
X169000D02*
D03*
D75*
X17000Y254000D02*
D03*
Y244000D02*
D03*
X37000Y297000D02*
D03*
X27000D02*
D03*
D76*
X365000Y130000D02*
D03*
X375000D02*
D03*
X365000Y120000D02*
D03*
X375000D02*
D03*
X365000Y110000D02*
D03*
D77*
X375000D02*
D03*
D78*
X367000Y195000D02*
D03*
X372000Y175000D02*
D03*
X367000D02*
D03*
X372000Y180000D02*
D03*
X367000D02*
D03*
X372000Y185000D02*
D03*
X367000D02*
D03*
X372000Y190000D02*
D03*
X367000D02*
D03*
X372000Y195000D02*
D03*
X18000D02*
D03*
X23000Y175000D02*
D03*
X18000D02*
D03*
X23000Y180000D02*
D03*
X18000D02*
D03*
X23000Y185000D02*
D03*
X18000D02*
D03*
X23000Y190000D02*
D03*
X18000D02*
D03*
X23000Y195000D02*
D03*
D79*
X113000Y160000D02*
D03*
D80*
Y155000D02*
D03*
Y150000D02*
D03*
D81*
X322000Y217000D02*
D03*
X316500Y214000D02*
D03*
X167590Y139500D02*
D03*
X196500Y151200D02*
D03*
X185000Y164000D02*
D03*
X86717Y266283D02*
D03*
X132000D02*
D03*
X191500Y216000D02*
D03*
X199000Y223000D02*
D03*
X199500Y128000D02*
D03*
X150500Y136500D02*
D03*
X263000Y133000D02*
D03*
X277000Y167500D02*
D03*
X228500Y155000D02*
D03*
X239000Y146500D02*
D03*
X245000Y149000D02*
D03*
X239500Y152000D02*
D03*
X240000Y162000D02*
D03*
X251000D02*
D03*
X246500Y164500D02*
D03*
X234000Y165500D02*
D03*
X248000Y151500D02*
D03*
X236500Y149500D02*
D03*
X244500Y163000D02*
D03*
X236500Y163500D02*
D03*
X78500Y274500D02*
D03*
X76000Y216000D02*
D03*
X160500Y272500D02*
D03*
X168000Y251500D02*
D03*
X306500Y46500D02*
D03*
X334000Y66500D02*
D03*
X183000Y65500D02*
D03*
X296500Y134000D02*
D03*
X206000Y176500D02*
D03*
X200500Y139500D02*
D03*
X210000Y145000D02*
D03*
X205000Y121500D02*
D03*
X59500Y55500D02*
D03*
Y60000D02*
D03*
X49250Y57750D02*
D03*
X45500Y58000D02*
D03*
X205000Y128500D02*
D03*
X287500Y180000D02*
D03*
X270000Y145500D02*
D03*
X247000Y94500D02*
D03*
X242000Y205500D02*
D03*
X276000Y177000D02*
D03*
X272500Y180500D02*
D03*
X276000Y196500D02*
D03*
X282500Y194500D02*
D03*
X212500Y105000D02*
D03*
X213500Y130500D02*
D03*
X216500Y122000D02*
D03*
X219500Y132000D02*
D03*
X170500Y171600D02*
D03*
X148000Y171500D02*
D03*
X121000Y196500D02*
D03*
X135000Y200000D02*
D03*
X195000Y184500D02*
D03*
X359500Y198000D02*
D03*
X350500Y192000D02*
D03*
X258000Y190000D02*
D03*
X231000Y193000D02*
D03*
X257500Y130500D02*
D03*
X252232Y125768D02*
D03*
X242500Y146500D02*
D03*
X231000Y152500D02*
D03*
X229000Y160000D02*
D03*
X240500Y168500D02*
D03*
X252500Y156500D02*
D03*
X242500Y151500D02*
D03*
X247000Y156500D02*
D03*
X240500Y166000D02*
D03*
X233000Y160000D02*
D03*
X236000Y154500D02*
D03*
X285000Y164000D02*
D03*
X290500Y94000D02*
D03*
X307000Y114000D02*
D03*
X320000D02*
D03*
M02*
