G04*
G04 #@! TF.GenerationSoftware,Altium Limited,Altium Designer,25.5.2 (35)*
G04*
G04 Layer_Color=2752767*
%FSLAX25Y25*%
%MOIN*%
G70*
G04*
G04 #@! TF.SameCoordinates,D66E9047-1B96-4A49-AC18-2C29B9855DE9*
G04*
G04*
G04 #@! TF.FilePolarity,Positive*
G04*
G01*
G75*
%ADD15C,0.00500*%
%ADD83C,0.00667*%
%ADD84C,0.00400*%
D15*
X317000Y300000D02*
Y304000D01*
X321000D01*
Y300000D01*
X317000D01*
X327000D02*
Y304000D01*
X331000D01*
Y300000D01*
X327000D01*
X337000D02*
Y304000D01*
X341000D01*
Y300000D01*
X337000D01*
X347000D02*
Y304000D01*
X351000D01*
Y300000D01*
X347000D01*
X241000Y299000D02*
Y303000D01*
X245000D01*
Y299000D01*
X241000D01*
X251000D02*
Y303000D01*
X255000D01*
Y299000D01*
X251000D01*
X261000D02*
Y303000D01*
X265000D01*
Y299000D01*
X261000D01*
X271000D02*
Y303000D01*
X275000D01*
Y299000D01*
X271000D01*
X281000D02*
Y303000D01*
X285000D01*
Y299000D01*
X281000D01*
X291000D02*
Y303000D01*
X295000D01*
Y299000D01*
X291000D01*
X164146Y291933D02*
X165146D01*
X166146Y292933D01*
X167146Y291933D01*
X168146D01*
Y292933D01*
X167146Y293933D01*
X168146Y294933D01*
Y295933D01*
X167146D01*
X166146Y294933D01*
X165146Y295933D01*
X164146D01*
Y294933D01*
X165146Y293933D01*
X164146Y292933D01*
Y291933D01*
X154303D02*
X155303D01*
X156303Y292933D01*
X157303Y291933D01*
X158303D01*
Y292933D01*
X157303Y293933D01*
X158303Y294933D01*
Y295933D01*
X157303D01*
X156303Y294933D01*
X155303Y295933D01*
X154303D01*
Y294933D01*
X155303Y293933D01*
X154303Y292933D01*
Y291933D01*
X144461D02*
X145461D01*
X146461Y292933D01*
X147461Y291933D01*
X148461D01*
Y292933D01*
X147461Y293933D01*
X148461Y294933D01*
Y295933D01*
X147461D01*
X146461Y294933D01*
X145461Y295933D01*
X144461D01*
Y294933D01*
X145461Y293933D01*
X144461Y292933D01*
Y291933D01*
X15000Y252000D02*
Y256000D01*
X19000D01*
Y252000D01*
X15000D01*
Y242000D02*
Y246000D01*
X19000D01*
Y242000D01*
X15000D01*
X35000Y295000D02*
Y299000D01*
X39000D01*
Y295000D01*
X35000D01*
X25000D02*
Y299000D01*
X29000D01*
Y295000D01*
X25000D01*
X147315Y18000D02*
X148315D01*
X149315Y19000D01*
X150315Y18000D01*
X151315D01*
Y19000D01*
X150315Y20000D01*
X151315Y21000D01*
Y22000D01*
X150315D01*
X149315Y21000D01*
X148315Y22000D01*
X147315D01*
Y21000D01*
X148315Y20000D01*
X147315Y19000D01*
Y18000D01*
X157158D02*
X158158D01*
X159158Y19000D01*
X160158Y18000D01*
X161158D01*
Y19000D01*
X160158Y20000D01*
X161158Y21000D01*
Y22000D01*
X160158D01*
X159158Y21000D01*
X158158Y22000D01*
X157158D01*
Y21000D01*
X158158Y20000D01*
X157158Y19000D01*
Y18000D01*
X167000D02*
X168000D01*
X169000Y19000D01*
X170000Y18000D01*
X171000D01*
Y19000D01*
X170000Y20000D01*
X171000Y21000D01*
Y22000D01*
X170000D01*
X169000Y21000D01*
X168000Y22000D01*
X167000D01*
Y21000D01*
X168000Y20000D01*
X167000Y19000D01*
Y18000D01*
X241000Y12000D02*
Y16000D01*
X245000D01*
Y12000D01*
X241000D01*
X251000D02*
Y16000D01*
X255000D01*
Y12000D01*
X251000D01*
X261000D02*
Y16000D01*
X265000D01*
Y12000D01*
X261000D01*
X271000D02*
Y16000D01*
X275000D01*
Y12000D01*
X271000D01*
X281000D02*
Y16000D01*
X285000D01*
Y12000D01*
X281000D01*
X291000D02*
Y16000D01*
X295000D01*
Y12000D01*
X291000D01*
X348000D02*
Y16000D01*
X352000D01*
Y12000D01*
X348000D01*
X338000D02*
Y16000D01*
X342000D01*
Y12000D01*
X338000D01*
X328000D02*
Y16000D01*
X332000D01*
Y12000D01*
X328000D01*
X318000D02*
Y16000D01*
X322000D01*
Y12000D01*
X318000D01*
X363000Y128000D02*
X364000Y130000D01*
X363000Y132000D01*
X365000Y131000D01*
X367000Y132000D01*
X366000Y130000D01*
X367000Y128000D01*
X365000Y129000D01*
X363000Y128000D01*
X373000D02*
X374000Y130000D01*
X373000Y132000D01*
X375000Y131000D01*
X377000Y132000D01*
X376000Y130000D01*
X377000Y128000D01*
X375000Y129000D01*
X373000Y128000D01*
X363000Y118000D02*
X364000Y120000D01*
X363000Y122000D01*
X365000Y121000D01*
X367000Y122000D01*
X366000Y120000D01*
X367000Y118000D01*
X365000Y119000D01*
X363000Y118000D01*
X373000D02*
X374000Y120000D01*
X373000Y122000D01*
X375000Y121000D01*
X377000Y122000D01*
X376000Y120000D01*
X377000Y118000D01*
X375000Y119000D01*
X373000Y118000D01*
X363000Y108000D02*
X364000Y110000D01*
X363000Y112000D01*
X365000Y111000D01*
X367000Y112000D01*
X366000Y110000D01*
X367000Y108000D01*
X365000Y109000D01*
X363000Y108000D01*
X373000D02*
X374000Y110000D01*
X373000Y112000D01*
X375000Y111000D01*
X377000Y112000D01*
X376000Y110000D01*
X377000Y108000D01*
X375000Y109000D01*
X373000Y108000D01*
X366000Y194000D02*
Y193000D01*
X368000D01*
Y194000D01*
X369000D01*
Y196000D01*
X368000D01*
Y197000D01*
X366000D01*
Y196000D01*
X365000D01*
Y194000D01*
X366000D01*
X371000Y174000D02*
Y173000D01*
X373000D01*
Y174000D01*
X374000D01*
Y176000D01*
X373000D01*
Y177000D01*
X371000D01*
Y176000D01*
X370000D01*
Y174000D01*
X371000D01*
X366000D02*
Y173000D01*
X368000D01*
Y174000D01*
X369000D01*
Y176000D01*
X368000D01*
Y177000D01*
X366000D01*
Y176000D01*
X365000D01*
Y174000D01*
X366000D01*
X371000Y179000D02*
Y178000D01*
X373000D01*
Y179000D01*
X374000D01*
Y181000D01*
X373000D01*
Y182000D01*
X371000D01*
Y181000D01*
X370000D01*
Y179000D01*
X371000D01*
X366000D02*
Y178000D01*
X368000D01*
Y179000D01*
X369000D01*
Y181000D01*
X368000D01*
Y182000D01*
X366000D01*
Y181000D01*
X365000D01*
Y179000D01*
X366000D01*
X371000Y184000D02*
Y183000D01*
X373000D01*
Y184000D01*
X374000D01*
Y186000D01*
X373000D01*
Y187000D01*
X371000D01*
Y186000D01*
X370000D01*
Y184000D01*
X371000D01*
X366000D02*
Y183000D01*
X368000D01*
Y184000D01*
X369000D01*
Y186000D01*
X368000D01*
Y187000D01*
X366000D01*
Y186000D01*
X365000D01*
Y184000D01*
X366000D01*
X371000Y189000D02*
Y188000D01*
X373000D01*
Y189000D01*
X374000D01*
Y191000D01*
X373000D01*
Y192000D01*
X371000D01*
Y191000D01*
X370000D01*
Y189000D01*
X371000D01*
X366000D02*
Y188000D01*
X368000D01*
Y189000D01*
X369000D01*
Y191000D01*
X368000D01*
Y192000D01*
X366000D01*
Y191000D01*
X365000D01*
Y189000D01*
X366000D01*
X371000Y194000D02*
Y193000D01*
X373000D01*
Y194000D01*
X374000D01*
Y196000D01*
X373000D01*
Y197000D01*
X371000D01*
Y196000D01*
X370000D01*
Y194000D01*
X371000D01*
X17000D02*
Y193000D01*
X19000D01*
Y194000D01*
X20000D01*
Y196000D01*
X19000D01*
Y197000D01*
X17000D01*
Y196000D01*
X16000D01*
Y194000D01*
X17000D01*
X22000Y174000D02*
Y173000D01*
X24000D01*
Y174000D01*
X25000D01*
Y176000D01*
X24000D01*
Y177000D01*
X22000D01*
Y176000D01*
X21000D01*
Y174000D01*
X22000D01*
X17000D02*
Y173000D01*
X19000D01*
Y174000D01*
X20000D01*
Y176000D01*
X19000D01*
Y177000D01*
X17000D01*
Y176000D01*
X16000D01*
Y174000D01*
X17000D01*
X22000Y179000D02*
Y178000D01*
X24000D01*
Y179000D01*
X25000D01*
Y181000D01*
X24000D01*
Y182000D01*
X22000D01*
Y181000D01*
X21000D01*
Y179000D01*
X22000D01*
X17000D02*
Y178000D01*
X19000D01*
Y179000D01*
X20000D01*
Y181000D01*
X19000D01*
Y182000D01*
X17000D01*
Y181000D01*
X16000D01*
Y179000D01*
X17000D01*
X22000Y184000D02*
Y183000D01*
X24000D01*
Y184000D01*
X25000D01*
Y186000D01*
X24000D01*
Y187000D01*
X22000D01*
Y186000D01*
X21000D01*
Y184000D01*
X22000D01*
X17000D02*
Y183000D01*
X19000D01*
Y184000D01*
X20000D01*
Y186000D01*
X19000D01*
Y187000D01*
X17000D01*
Y186000D01*
X16000D01*
Y184000D01*
X17000D01*
X22000Y189000D02*
Y188000D01*
X24000D01*
Y189000D01*
X25000D01*
Y191000D01*
X24000D01*
Y192000D01*
X22000D01*
Y191000D01*
X21000D01*
Y189000D01*
X22000D01*
X17000D02*
Y188000D01*
X19000D01*
Y189000D01*
X20000D01*
Y191000D01*
X19000D01*
Y192000D01*
X17000D01*
Y191000D01*
X16000D01*
Y189000D01*
X17000D01*
X22000Y194000D02*
Y193000D01*
X24000D01*
Y194000D01*
X25000D01*
Y196000D01*
X24000D01*
Y197000D01*
X22000D01*
Y196000D01*
X21000D01*
Y194000D01*
X22000D01*
X9449Y38992D02*
X7449Y42992D01*
X11449D01*
X9449Y38992D01*
Y73008D02*
X7449Y77008D01*
X11449D01*
X9449Y73008D01*
X113000Y158000D02*
X114000Y159000D01*
X115000D01*
X114000Y160000D01*
X115000Y161000D01*
X114000D01*
X113000Y162000D01*
X112000Y161000D01*
X111000D01*
X112000Y160000D01*
X111000Y159000D01*
X112000D01*
X113000Y158000D01*
Y153000D02*
X114000Y154000D01*
X115000D01*
X114000Y155000D01*
X115000Y156000D01*
X114000D01*
X113000Y157000D01*
X112000Y156000D01*
X111000D01*
X112000Y155000D01*
X111000Y154000D01*
X112000D01*
X113000Y153000D01*
Y148000D02*
X114000Y149000D01*
X115000D01*
X114000Y150000D01*
X115000Y151000D01*
X114000D01*
X113000Y152000D01*
X112000Y151000D01*
X111000D01*
X112000Y150000D01*
X111000Y149000D01*
X112000D01*
X113000Y148000D01*
X320000Y217000D02*
X322000Y219000D01*
X324000Y217000D01*
X322000Y215000D01*
X320000Y217000D01*
X314500Y214000D02*
X316500Y216000D01*
X318500Y214000D01*
X316500Y212000D01*
X314500Y214000D01*
X165590Y139500D02*
X167590Y141500D01*
X169590Y139500D01*
X167590Y137500D01*
X165590Y139500D01*
X194500Y151200D02*
X196500Y153200D01*
X198500Y151200D01*
X196500Y149200D01*
X194500Y151200D01*
X183000Y164000D02*
X185000Y166000D01*
X187000Y164000D01*
X185000Y162000D01*
X183000Y164000D01*
X84716Y266283D02*
X86717Y268284D01*
X88717Y266283D01*
X86717Y264283D01*
X84716Y266283D01*
X130000D02*
X132000Y268284D01*
X134000Y266283D01*
X132000Y264283D01*
X130000Y266283D01*
X189500Y216000D02*
X191500Y218000D01*
X193500Y216000D01*
X191500Y214000D01*
X189500Y216000D01*
X197000Y223000D02*
X199000Y225000D01*
X201000Y223000D01*
X199000Y221000D01*
X197000Y223000D01*
X197500Y128000D02*
X199500Y130000D01*
X201500Y128000D01*
X199500Y126000D01*
X197500Y128000D01*
X148500Y136500D02*
X150500Y138500D01*
X152500Y136500D01*
X150500Y134500D01*
X148500Y136500D01*
X261000Y133000D02*
X263000Y135000D01*
X265000Y133000D01*
X263000Y131000D01*
X261000Y133000D01*
X275000Y167500D02*
X277000Y169500D01*
X279000Y167500D01*
X277000Y165500D01*
X275000Y167500D01*
X226500Y155000D02*
X228500Y157000D01*
X230500Y155000D01*
X228500Y153000D01*
X226500Y155000D01*
X237000Y146500D02*
X239000Y148500D01*
X241000Y146500D01*
X239000Y144500D01*
X237000Y146500D01*
X243000Y149000D02*
X245000Y151000D01*
X247000Y149000D01*
X245000Y147000D01*
X243000Y149000D01*
X237500Y152000D02*
X239500Y154000D01*
X241500Y152000D01*
X239500Y150000D01*
X237500Y152000D01*
X238000Y162000D02*
X240000Y164000D01*
X242000Y162000D01*
X240000Y160000D01*
X238000Y162000D01*
X249000D02*
X251000Y164000D01*
X253000Y162000D01*
X251000Y160000D01*
X249000Y162000D01*
X244500Y164500D02*
X246500Y166500D01*
X248500Y164500D01*
X246500Y162500D01*
X244500Y164500D01*
X232000Y165500D02*
X234000Y167500D01*
X236000Y165500D01*
X234000Y163500D01*
X232000Y165500D01*
X246000Y151500D02*
X248000Y153500D01*
X250000Y151500D01*
X248000Y149500D01*
X246000Y151500D01*
X234500Y149500D02*
X236500Y151500D01*
X238500Y149500D01*
X236500Y147500D01*
X234500Y149500D01*
X242500Y163000D02*
X244500Y165000D01*
X246500Y163000D01*
X244500Y161000D01*
X242500Y163000D01*
X234500Y163500D02*
X236500Y165500D01*
X238500Y163500D01*
X236500Y161500D01*
X234500Y163500D01*
X76500Y274500D02*
X78500Y276500D01*
X80500Y274500D01*
X78500Y272500D01*
X76500Y274500D01*
X74000Y216000D02*
X76000Y218000D01*
X78000Y216000D01*
X76000Y214000D01*
X74000Y216000D01*
X158500Y272500D02*
X160500Y274500D01*
X162500Y272500D01*
X160500Y270500D01*
X158500Y272500D01*
X166000Y251500D02*
X168000Y253500D01*
X170000Y251500D01*
X168000Y249500D01*
X166000Y251500D01*
X304500Y46500D02*
X306500Y48500D01*
X308500Y46500D01*
X306500Y44500D01*
X304500Y46500D01*
X332000Y66500D02*
X334000Y68500D01*
X336000Y66500D01*
X334000Y64500D01*
X332000Y66500D01*
X181000Y65500D02*
X183000Y67500D01*
X185000Y65500D01*
X183000Y63500D01*
X181000Y65500D01*
X294500Y134000D02*
X296500Y136000D01*
X298500Y134000D01*
X296500Y132000D01*
X294500Y134000D01*
X204000Y176500D02*
X206000Y178500D01*
X208000Y176500D01*
X206000Y174500D01*
X204000Y176500D01*
X198500Y139500D02*
X200500Y141500D01*
X202500Y139500D01*
X200500Y137500D01*
X198500Y139500D01*
X208000Y145000D02*
X210000Y147000D01*
X212000Y145000D01*
X210000Y143000D01*
X208000Y145000D01*
X203000Y121500D02*
X205000Y123500D01*
X207000Y121500D01*
X205000Y119500D01*
X203000Y121500D01*
X57500Y55500D02*
X59500Y57500D01*
X61500Y55500D01*
X59500Y53500D01*
X57500Y55500D01*
Y60000D02*
X59500Y62000D01*
X61500Y60000D01*
X59500Y58000D01*
X57500Y60000D01*
X47250Y57750D02*
X49250Y59750D01*
X51250Y57750D01*
X49250Y55750D01*
X47250Y57750D01*
X43500Y58000D02*
X45500Y60000D01*
X47500Y58000D01*
X45500Y56000D01*
X43500Y58000D01*
X203000Y128500D02*
X205000Y130500D01*
X207000Y128500D01*
X205000Y126500D01*
X203000Y128500D01*
X285500Y180000D02*
X287500Y182000D01*
X289500Y180000D01*
X287500Y178000D01*
X285500Y180000D01*
X268000Y145500D02*
X270000Y147500D01*
X272000Y145500D01*
X270000Y143500D01*
X268000Y145500D01*
X245000Y94500D02*
X247000Y96500D01*
X249000Y94500D01*
X247000Y92500D01*
X245000Y94500D01*
X240000Y205500D02*
X242000Y207500D01*
X244000Y205500D01*
X242000Y203500D01*
X240000Y205500D01*
X274000Y177000D02*
X276000Y179000D01*
X278000Y177000D01*
X276000Y175000D01*
X274000Y177000D01*
X270500Y180500D02*
X272500Y182500D01*
X274500Y180500D01*
X272500Y178500D01*
X270500Y180500D01*
X274000Y196500D02*
X276000Y198500D01*
X278000Y196500D01*
X276000Y194500D01*
X274000Y196500D01*
X280500Y194500D02*
X282500Y196500D01*
X284500Y194500D01*
X282500Y192500D01*
X280500Y194500D01*
X210500Y105000D02*
X212500Y107000D01*
X214500Y105000D01*
X212500Y103000D01*
X210500Y105000D01*
X211500Y130500D02*
X213500Y132500D01*
X215500Y130500D01*
X213500Y128500D01*
X211500Y130500D01*
X214500Y122000D02*
X216500Y124000D01*
X218500Y122000D01*
X216500Y120000D01*
X214500Y122000D01*
X217500Y132000D02*
X219500Y134000D01*
X221500Y132000D01*
X219500Y130000D01*
X217500Y132000D01*
X168500Y171600D02*
X170500Y173600D01*
X172500Y171600D01*
X170500Y169600D01*
X168500Y171600D01*
X146000Y171500D02*
X148000Y173500D01*
X150000Y171500D01*
X148000Y169500D01*
X146000Y171500D01*
X119000Y196500D02*
X121000Y198500D01*
X123000Y196500D01*
X121000Y194500D01*
X119000Y196500D01*
X133000Y200000D02*
X135000Y202000D01*
X137000Y200000D01*
X135000Y198000D01*
X133000Y200000D01*
X193000Y184500D02*
X195000Y186500D01*
X197000Y184500D01*
X195000Y182500D01*
X193000Y184500D01*
X357500Y198000D02*
X359500Y200000D01*
X361500Y198000D01*
X359500Y196000D01*
X357500Y198000D01*
X348500Y192000D02*
X350500Y194000D01*
X352500Y192000D01*
X350500Y190000D01*
X348500Y192000D01*
X256000Y190000D02*
X258000Y192000D01*
X260000Y190000D01*
X258000Y188000D01*
X256000Y190000D01*
X229000Y193000D02*
X231000Y195000D01*
X233000Y193000D01*
X231000Y191000D01*
X229000Y193000D01*
X255500Y130500D02*
X257500Y132500D01*
X259500Y130500D01*
X257500Y128500D01*
X255500Y130500D01*
X250232Y125768D02*
X252232Y127768D01*
X254232Y125768D01*
X252232Y123768D01*
X250232Y125768D01*
X240500Y146500D02*
X242500Y148500D01*
X244500Y146500D01*
X242500Y144500D01*
X240500Y146500D01*
X229000Y152500D02*
X231000Y154500D01*
X233000Y152500D01*
X231000Y150500D01*
X229000Y152500D01*
X227000Y160000D02*
X229000Y162000D01*
X231000Y160000D01*
X229000Y158000D01*
X227000Y160000D01*
X238500Y168500D02*
X240500Y170500D01*
X242500Y168500D01*
X240500Y166500D01*
X238500Y168500D01*
X250500Y156500D02*
X252500Y158500D01*
X254500Y156500D01*
X252500Y154500D01*
X250500Y156500D01*
X240500Y151500D02*
X242500Y153500D01*
X244500Y151500D01*
X242500Y149500D01*
X240500Y151500D01*
X245000Y156500D02*
X247000Y158500D01*
X249000Y156500D01*
X247000Y154500D01*
X245000Y156500D01*
X238500Y166000D02*
X240500Y168000D01*
X242500Y166000D01*
X240500Y164000D01*
X238500Y166000D01*
X231000Y160000D02*
X233000Y162000D01*
X235000Y160000D01*
X233000Y158000D01*
X231000Y160000D01*
X234000Y154500D02*
X236000Y156500D01*
X238000Y154500D01*
X236000Y152500D01*
X234000Y154500D01*
X283000Y164000D02*
X285000Y166000D01*
X287000Y164000D01*
X285000Y162000D01*
X283000Y164000D01*
X288500Y94000D02*
X290500Y96000D01*
X292500Y94000D01*
X290500Y92000D01*
X288500Y94000D01*
X305000Y114000D02*
X307000Y116000D01*
X309000Y114000D01*
X307000Y112000D01*
X305000Y114000D01*
X318000D02*
X320000Y116000D01*
X322000Y114000D01*
X320000Y112000D01*
X318000Y114000D01*
D83*
X381500Y305500D02*
G03*
X381500Y305500I-2000J0D01*
G01*
X11500Y9000D02*
G03*
X11500Y9000I-2000J0D01*
G01*
X380000Y10500D02*
G03*
X380000Y10500I-2000J0D01*
G01*
X11000Y305500D02*
G03*
X11000Y305500I-2000J0D01*
G01*
X27197Y40992D02*
G03*
X27197Y40992I-2000J0D01*
G01*
Y75008D02*
G03*
X27197Y75008I-2000J0D01*
G01*
D84*
X380700Y305500D02*
G03*
X380700Y305500I-1200J0D01*
G01*
X10700Y9000D02*
G03*
X10700Y9000I-1200J0D01*
G01*
X379200Y10500D02*
G03*
X379200Y10500I-1200J0D01*
G01*
X10200Y305500D02*
G03*
X10200Y305500I-1200J0D01*
G01*
M02*
