G04*
G04 #@! TF.GenerationSoftware,Altium Limited,Altium Designer,25.6.2 (33)*
G04*
G04 Layer_Physical_Order=1*
G04 Layer_Color=255*
%FSLAX25Y25*%
%MOIN*%
G70*
G04*
G04 #@! TF.SameCoordinates,CE49FCD3-F284-452D-968F-53FA369C6713*
G04*
G04*
G04 #@! TF.FilePolarity,Positive*
G04*
G01*
G75*
%ADD12C,0.01000*%
G04:AMPARAMS|DCode=19|XSize=77.56mil|YSize=23.62mil|CornerRadius=2.95mil|HoleSize=0mil|Usage=FLASHONLY|Rotation=135.000|XOffset=0mil|YOffset=0mil|HoleType=Round|Shape=RoundedRectangle|*
%AMROUNDEDRECTD19*
21,1,0.07756,0.01772,0,0,135.0*
21,1,0.07165,0.02362,0,0,135.0*
1,1,0.00591,-0.01907,0.03160*
1,1,0.00591,0.03160,-0.01907*
1,1,0.00591,0.01907,-0.03160*
1,1,0.00591,-0.03160,0.01907*
%
%ADD19ROUNDEDRECTD19*%
%ADD20R,0.04724X0.04724*%
%ADD21R,0.03622X0.05433*%
%ADD22R,0.03583X0.05472*%
%ADD23R,0.05433X0.03622*%
G04:AMPARAMS|DCode=24|XSize=40mil|YSize=55mil|CornerRadius=5mil|HoleSize=0mil|Usage=FLASHONLY|Rotation=90.000|XOffset=0mil|YOffset=0mil|HoleType=Round|Shape=RoundedRectangle|*
%AMROUNDEDRECTD24*
21,1,0.04000,0.04500,0,0,90.0*
21,1,0.03000,0.05500,0,0,90.0*
1,1,0.01000,0.02250,0.01500*
1,1,0.01000,0.02250,-0.01500*
1,1,0.01000,-0.02250,-0.01500*
1,1,0.01000,-0.02250,0.01500*
%
%ADD24ROUNDEDRECTD24*%
%ADD25R,0.04724X0.03543*%
%ADD26R,0.04724X0.04724*%
G04:AMPARAMS|DCode=27|XSize=77.56mil|YSize=23.62mil|CornerRadius=2.95mil|HoleSize=0mil|Usage=FLASHONLY|Rotation=225.000|XOffset=0mil|YOffset=0mil|HoleType=Round|Shape=RoundedRectangle|*
%AMROUNDEDRECTD27*
21,1,0.07756,0.01772,0,0,225.0*
21,1,0.07165,0.02362,0,0,225.0*
1,1,0.00591,-0.03160,-0.01907*
1,1,0.00591,0.01907,0.03160*
1,1,0.00591,0.03160,0.01907*
1,1,0.00591,-0.01907,-0.03160*
%
%ADD27ROUNDEDRECTD27*%
%ADD28R,0.05512X0.05118*%
G04:AMPARAMS|DCode=29|XSize=55.12mil|YSize=45.28mil|CornerRadius=0mil|HoleSize=0mil|Usage=FLASHONLY|Rotation=225.000|XOffset=0mil|YOffset=0mil|HoleType=Round|Shape=Rectangle|*
%AMROTATEDRECTD29*
4,1,4,0.00348,0.03550,0.03550,0.00348,-0.00348,-0.03550,-0.03550,-0.00348,0.00348,0.03550,0.0*
%
%ADD29ROTATEDRECTD29*%

%ADD30R,0.05118X0.05512*%
%ADD31R,0.06102X0.05118*%
G04:AMPARAMS|DCode=32|XSize=19.68mil|YSize=59.06mil|CornerRadius=0mil|HoleSize=0mil|Usage=FLASHONLY|Rotation=45.000|XOffset=0mil|YOffset=0mil|HoleType=Round|Shape=Rectangle|*
%AMROTATEDRECTD32*
4,1,4,0.01392,-0.02784,-0.02784,0.01392,-0.01392,0.02784,0.02784,-0.01392,0.01392,-0.02784,0.0*
%
%ADD32ROTATEDRECTD32*%

G04:AMPARAMS|DCode=33|XSize=59.06mil|YSize=19.68mil|CornerRadius=0mil|HoleSize=0mil|Usage=FLASHONLY|Rotation=45.000|XOffset=0mil|YOffset=0mil|HoleType=Round|Shape=Rectangle|*
%AMROTATEDRECTD33*
4,1,4,-0.01392,-0.02784,-0.02784,-0.01392,0.01392,0.02784,0.02784,0.01392,-0.01392,-0.02784,0.0*
%
%ADD33ROTATEDRECTD33*%

%ADD34R,0.04528X0.01181*%
%ADD35R,0.04528X0.02362*%
G04:AMPARAMS|DCode=61|XSize=39.37mil|YSize=70.87mil|CornerRadius=19.68mil|HoleSize=0mil|Usage=FLASHONLY|Rotation=270.000|XOffset=0mil|YOffset=0mil|HoleType=Round|Shape=RoundedRectangle|*
%AMROUNDEDRECTD61*
21,1,0.03937,0.03150,0,0,270.0*
21,1,0.00000,0.07087,0,0,270.0*
1,1,0.03937,-0.01575,0.00000*
1,1,0.03937,-0.01575,0.00000*
1,1,0.03937,0.01575,0.00000*
1,1,0.03937,0.01575,0.00000*
%
%ADD61ROUNDEDRECTD61*%
G04:AMPARAMS|DCode=62|XSize=39.37mil|YSize=86.61mil|CornerRadius=19.68mil|HoleSize=0mil|Usage=FLASHONLY|Rotation=270.000|XOffset=0mil|YOffset=0mil|HoleType=Round|Shape=RoundedRectangle|*
%AMROUNDEDRECTD62*
21,1,0.03937,0.04724,0,0,270.0*
21,1,0.00000,0.08661,0,0,270.0*
1,1,0.03937,-0.02362,0.00000*
1,1,0.03937,-0.02362,0.00000*
1,1,0.03937,0.02362,0.00000*
1,1,0.03937,0.02362,0.00000*
%
%ADD62ROUNDEDRECTD62*%
%ADD63C,0.02000*%
%ADD64C,0.00874*%
%ADD65C,0.00623*%
%ADD66C,0.04000*%
%ADD67C,0.09449*%
%ADD68C,0.06791*%
%ADD69R,0.06791X0.06791*%
%ADD70R,0.05937X0.05937*%
%ADD71C,0.05937*%
%ADD72R,0.09449X0.09449*%
%ADD73O,0.15748X0.19685*%
%ADD74C,0.07677*%
%ADD75O,0.09843X0.06890*%
G04:AMPARAMS|DCode=76|XSize=62.99mil|YSize=62.99mil|CornerRadius=15.75mil|HoleSize=0mil|Usage=FLASHONLY|Rotation=90.000|XOffset=0mil|YOffset=0mil|HoleType=Round|Shape=RoundedRectangle|*
%AMROUNDEDRECTD76*
21,1,0.06299,0.03150,0,0,90.0*
21,1,0.03150,0.06299,0,0,90.0*
1,1,0.03150,0.01575,0.01575*
1,1,0.03150,0.01575,-0.01575*
1,1,0.03150,-0.01575,-0.01575*
1,1,0.03150,-0.01575,0.01575*
%
%ADD76ROUNDEDRECTD76*%
%ADD77C,0.06299*%
%ADD78C,0.04213*%
%ADD79C,0.02400*%
G36*
X19875Y247125D02*
X19545Y246748D01*
X18718Y247383D01*
X17637Y247831D01*
X16476Y247983D01*
X15500D01*
Y243500D01*
X15000D01*
Y243000D01*
X9106D01*
X9193Y242340D01*
X9641Y241258D01*
X10353Y240330D01*
X11282Y239617D01*
X11565Y239500D01*
X11500Y239000D01*
X6000Y233500D01*
X6500Y233000D01*
Y209500D01*
X12208Y203792D01*
X12080Y203213D01*
X11282Y202883D01*
X10353Y202170D01*
X9641Y201242D01*
X9193Y200160D01*
X9106Y199500D01*
X15000D01*
Y199000D01*
X15500D01*
Y194517D01*
X16476D01*
X17637Y194669D01*
X18718Y195117D01*
X19647Y195830D01*
X20359Y196758D01*
X20500Y197099D01*
X21000Y196999D01*
Y195500D01*
X19500Y194000D01*
X4500D01*
Y166000D01*
X11554Y158946D01*
X11457Y158455D01*
X11282Y158383D01*
X10353Y157670D01*
X9641Y156742D01*
X9193Y155660D01*
X9106Y155000D01*
X15000D01*
X20894D01*
X20807Y155660D01*
X20359Y156742D01*
X19647Y157670D01*
X19217Y158000D01*
X19386Y158500D01*
X27000D01*
X58000Y189500D01*
X62000D01*
X63097Y190597D01*
X63453Y190803D01*
X64197Y191547D01*
X64403Y191903D01*
X66104Y193604D01*
X66604Y193421D01*
X66904Y192303D01*
X67483Y191301D01*
X68301Y190483D01*
X69303Y189904D01*
X70421Y189604D01*
X70500D01*
Y194000D01*
X71500D01*
Y189604D01*
X71579D01*
X72697Y189904D01*
X73699Y190483D01*
X74517Y191301D01*
X75000Y192137D01*
X75500Y192003D01*
Y189000D01*
X64500D01*
X64000Y187500D01*
X62929D01*
X62542Y187723D01*
X61526Y187996D01*
X60474D01*
X59458Y187723D01*
X59071Y187500D01*
X58500D01*
X56500Y185000D01*
X21000Y149500D01*
X3418D01*
Y247418D01*
X5000Y249000D01*
X18000D01*
X19875Y247125D01*
D02*
G37*
G36*
X20644Y246356D02*
X20592Y246259D01*
X20001Y246208D01*
X19725Y246568D01*
X20101Y246899D01*
X20644Y246356D01*
D02*
G37*
G36*
X20500Y240621D02*
Y239000D01*
X18534D01*
X18435Y239500D01*
X18718Y239617D01*
X19647Y240330D01*
X20000Y240791D01*
X20500Y240621D01*
D02*
G37*
G36*
X21000Y201001D02*
X20500Y200901D01*
X20359Y201242D01*
X19647Y202170D01*
X19217Y202500D01*
X19386Y203000D01*
X21000D01*
Y201001D01*
D02*
G37*
G36*
X34649Y80500D02*
X34739Y79821D01*
X34880Y79479D01*
Y77164D01*
X35640D01*
Y60354D01*
X33710Y58424D01*
X33248Y58615D01*
Y60280D01*
X31957D01*
X31711Y60780D01*
X31888Y61011D01*
X32187Y61733D01*
X32224Y62008D01*
X27720D01*
X23217D01*
X23254Y61733D01*
X23553Y61011D01*
X24028Y60391D01*
X24649Y59915D01*
X25371Y59616D01*
X26146Y59514D01*
X26720D01*
Y58598D01*
X29984D01*
Y57598D01*
X26720D01*
Y56580D01*
X23449D01*
X22825Y56456D01*
X22295Y56102D01*
X18347Y52153D01*
X17993Y51624D01*
X17869Y51000D01*
Y40000D01*
X17993Y39376D01*
X18347Y38846D01*
X22295Y34898D01*
X22825Y34544D01*
X23449Y34420D01*
X26720D01*
Y33402D01*
X29984D01*
X33248D01*
Y34420D01*
X36773D01*
X37369Y33824D01*
Y14962D01*
X36908D01*
Y9038D01*
X42832D01*
Y14962D01*
X40631D01*
Y33599D01*
X41093Y33790D01*
X48619Y26265D01*
Y25317D01*
X47329D01*
Y18684D01*
X52151D01*
Y25317D01*
X50862D01*
Y26730D01*
X50862Y26730D01*
X50776Y27159D01*
X50533Y27523D01*
X50533Y27523D01*
X38653Y39403D01*
X38289Y39646D01*
X37860Y39732D01*
X37860Y39732D01*
X32848D01*
Y41618D01*
X59698D01*
X64038Y37278D01*
Y32668D01*
X69962D01*
Y37278D01*
X77332Y44648D01*
X82000D01*
Y5000D01*
X4313D01*
X3962Y5457D01*
X3554Y6443D01*
X3416Y7492D01*
X3418Y7500D01*
Y90000D01*
X34649D01*
Y80500D01*
D02*
G37*
G36*
X82000Y68500D02*
Y47929D01*
X75755D01*
X69462Y54222D01*
Y58832D01*
X63538D01*
Y54222D01*
X58698Y49382D01*
X35002D01*
X34795Y49882D01*
X49222Y64309D01*
X49465Y64673D01*
X49551Y65102D01*
X49551Y65102D01*
Y66684D01*
X52151D01*
Y73317D01*
X47329D01*
Y68797D01*
X47308Y68689D01*
X47308Y68689D01*
Y65567D01*
X33348Y51607D01*
X32848Y51699D01*
Y53523D01*
X33348Y53623D01*
X33877Y53976D01*
X38425Y58525D01*
X38779Y59054D01*
X38903Y59678D01*
Y77164D01*
X39663D01*
Y79479D01*
X39805Y79821D01*
X39894Y80500D01*
Y90000D01*
X60500D01*
X82000Y68500D01*
D02*
G37*
G36*
X313000Y281500D02*
Y252000D01*
X320000D01*
X321322Y250678D01*
X321130Y250217D01*
X320740D01*
Y247000D01*
X323051D01*
Y248295D01*
X323513Y248487D01*
X324500Y247500D01*
Y245000D01*
X325349D01*
Y243183D01*
X330171D01*
Y245000D01*
X333000D01*
X336000Y248000D01*
X351160D01*
X351284Y247551D01*
X351284D01*
Y245240D01*
X355000D01*
Y244740D01*
X355500D01*
Y241929D01*
X357695D01*
Y239695D01*
X356000Y238000D01*
X305500D01*
Y242560D01*
X305949Y242684D01*
X306000Y242684D01*
X308260D01*
Y246400D01*
Y250116D01*
X306000D01*
X305949Y250116D01*
X305500Y250240D01*
Y274500D01*
X300500Y279500D01*
X271500D01*
Y275000D01*
X261500Y265000D01*
X252500D01*
Y289500D01*
X305000D01*
X313000Y281500D01*
D02*
G37*
G36*
X244865Y162135D02*
X242052Y159322D01*
X201493D01*
X200368Y160447D01*
X200059Y160818D01*
X202865Y163625D01*
X202745Y163745D01*
X217755Y178755D01*
X217876Y178635D01*
X219740Y180500D01*
X226500D01*
X244865Y162135D01*
D02*
G37*
G36*
X249386Y157614D02*
X249122Y157171D01*
X248918Y157131D01*
X248554Y156888D01*
X248554Y156887D01*
X246988Y155322D01*
X236447D01*
X236447Y155322D01*
X236018Y155236D01*
X235654Y154993D01*
X235654Y154993D01*
X224907Y144246D01*
X224664Y143882D01*
X224578Y143453D01*
X224578Y143453D01*
Y135000D01*
X220000D01*
X197500Y158500D01*
X198321Y159321D01*
X200236Y157407D01*
X200236Y157407D01*
X200600Y157164D01*
X201029Y157079D01*
X201029Y157079D01*
X242517D01*
X242517Y157079D01*
X242946Y157164D01*
X243310Y157407D01*
X246451Y160548D01*
X249386Y157614D01*
D02*
G37*
G36*
X150500Y155000D02*
X171267D01*
X171321Y154964D01*
X171750Y154878D01*
X176122D01*
X177289Y153711D01*
X176970Y153323D01*
X176835Y153413D01*
X176250Y153529D01*
X174500D01*
Y151000D01*
X177779D01*
Y152000D01*
X177663Y152585D01*
X177573Y152720D01*
X177961Y153039D01*
X186500Y144500D01*
X191000D01*
X191500Y144000D01*
Y139500D01*
X179000D01*
X171487Y147013D01*
X171733Y147474D01*
X171750Y147471D01*
X173500D01*
Y150000D01*
X170221D01*
Y149000D01*
X170224Y148983D01*
X169763Y148737D01*
X167000Y151500D01*
X146862D01*
Y153134D01*
X143500D01*
X140138D01*
Y151500D01*
X120500D01*
X116500Y155500D01*
Y162500D01*
X143000D01*
X150500Y155000D01*
D02*
G37*
G36*
X244617Y152617D02*
X227322Y135322D01*
X226821Y135529D01*
Y142988D01*
X236912Y153078D01*
X244425D01*
X244617Y152617D01*
D02*
G37*
G36*
X375000Y65000D02*
X371000Y61000D01*
X335500D01*
X334108Y59608D01*
X333545D01*
X333531Y59622D01*
X333167Y59865D01*
X332738Y59951D01*
X332738Y59951D01*
X325217D01*
Y61240D01*
X321500D01*
X317783D01*
Y59951D01*
X317000D01*
Y68138D01*
X318183D01*
Y66849D01*
X324816D01*
Y70085D01*
X333732Y79000D01*
X335500D01*
X350442Y93942D01*
X350520Y93974D01*
X351026Y94480D01*
X351058Y94558D01*
X357887Y101387D01*
X358287Y101080D01*
X357978Y100545D01*
X357794Y99856D01*
Y99144D01*
X357978Y98455D01*
X358334Y97838D01*
X358838Y97334D01*
X359455Y96978D01*
X360144Y96794D01*
X360856D01*
X361545Y96978D01*
X362162Y97334D01*
X362431Y97603D01*
X363000Y97593D01*
X363053Y97554D01*
X363593Y97014D01*
X364301Y96605D01*
X365000Y96418D01*
Y99500D01*
X365500D01*
Y100000D01*
X368582D01*
X368395Y100699D01*
X367986Y101407D01*
X367893Y101500D01*
X368100Y102000D01*
X375000D01*
Y65000D01*
D02*
G37*
%LPC*%
G36*
X14500Y247983D02*
X13524D01*
X12363Y247831D01*
X11282Y247383D01*
X10353Y246670D01*
X9641Y245742D01*
X9193Y244660D01*
X9106Y244000D01*
X14500D01*
Y247983D01*
D02*
G37*
G36*
Y198500D02*
X9106D01*
X9193Y197840D01*
X9641Y196758D01*
X10353Y195830D01*
X11282Y195117D01*
X12363Y194669D01*
X13524Y194517D01*
X14500D01*
Y198500D01*
D02*
G37*
G36*
X20894Y154000D02*
X15500D01*
Y150017D01*
X16476D01*
X17637Y150170D01*
X18718Y150617D01*
X19647Y151330D01*
X20359Y152258D01*
X20807Y153340D01*
X20894Y154000D01*
D02*
G37*
G36*
X14500D02*
X9106D01*
X9193Y153340D01*
X9641Y152258D01*
X10353Y151330D01*
X11282Y150617D01*
X12363Y150170D01*
X13524Y150017D01*
X14500D01*
Y154000D01*
D02*
G37*
G36*
X29295Y65502D02*
X28220D01*
Y63008D01*
X32224D01*
X32187Y63283D01*
X31888Y64005D01*
X31412Y64625D01*
X30792Y65101D01*
X30070Y65400D01*
X29295Y65502D01*
D02*
G37*
G36*
X14335D02*
X12472D01*
Y63008D01*
X17263D01*
X17227Y63283D01*
X16928Y64005D01*
X16452Y64625D01*
X15832Y65101D01*
X15110Y65400D01*
X14335Y65502D01*
D02*
G37*
G36*
X27220D02*
X26146D01*
X25371Y65400D01*
X24649Y65101D01*
X24028Y64625D01*
X23553Y64005D01*
X23254Y63283D01*
X23217Y63008D01*
X27220D01*
Y65502D01*
D02*
G37*
G36*
X11472D02*
X9610D01*
X8835Y65400D01*
X8113Y65101D01*
X7493Y64625D01*
X7017Y64005D01*
X6718Y63283D01*
X6682Y63008D01*
X11472D01*
Y65502D01*
D02*
G37*
G36*
X17263Y62008D02*
X12472D01*
Y59514D01*
X14335D01*
X15110Y59616D01*
X15832Y59915D01*
X16452Y60391D01*
X16928Y61011D01*
X17227Y61733D01*
X17263Y62008D01*
D02*
G37*
G36*
X11472D02*
X6682D01*
X6718Y61733D01*
X7017Y61011D01*
X7493Y60391D01*
X8113Y59915D01*
X8835Y59616D01*
X9610Y59514D01*
X11472D01*
Y62008D01*
D02*
G37*
G36*
X14335Y31486D02*
X12472D01*
Y28992D01*
X17263D01*
X17227Y29267D01*
X16928Y29989D01*
X16452Y30609D01*
X15832Y31085D01*
X15110Y31384D01*
X14335Y31486D01*
D02*
G37*
G36*
X33248Y32402D02*
X29984D01*
X26720D01*
Y31486D01*
X26146D01*
X25371Y31384D01*
X24649Y31085D01*
X24028Y30609D01*
X23553Y29989D01*
X23254Y29267D01*
X23217Y28992D01*
X27720D01*
X32224D01*
X32187Y29267D01*
X31888Y29989D01*
X31711Y30220D01*
X31957Y30720D01*
X33248D01*
Y32402D01*
D02*
G37*
G36*
X11472Y31486D02*
X9610D01*
X8835Y31384D01*
X8113Y31085D01*
X7493Y30609D01*
X7017Y29989D01*
X6718Y29267D01*
X6682Y28992D01*
X11472D01*
Y31486D01*
D02*
G37*
G36*
X32224Y27992D02*
X28220D01*
Y25498D01*
X29295D01*
X30070Y25600D01*
X30792Y25899D01*
X31412Y26375D01*
X31888Y26995D01*
X32187Y27717D01*
X32224Y27992D01*
D02*
G37*
G36*
X27220D02*
X23217D01*
X23254Y27717D01*
X23553Y26995D01*
X24028Y26375D01*
X24649Y25899D01*
X25371Y25600D01*
X26146Y25498D01*
X27220D01*
Y27992D01*
D02*
G37*
G36*
X17263D02*
X12472D01*
Y25498D01*
X14335D01*
X15110Y25600D01*
X15832Y25899D01*
X16452Y26375D01*
X16928Y26995D01*
X17227Y27717D01*
X17263Y27992D01*
D02*
G37*
G36*
X11472D02*
X6682D01*
X6718Y27717D01*
X7017Y26995D01*
X7493Y26375D01*
X8113Y25899D01*
X8835Y25600D01*
X9610Y25498D01*
X11472D01*
Y27992D01*
D02*
G37*
G36*
X70362Y27732D02*
X67500D01*
Y24870D01*
X70362D01*
Y27732D01*
D02*
G37*
G36*
X66500D02*
X63638D01*
Y24870D01*
X66500D01*
Y27732D01*
D02*
G37*
G36*
X60071Y25717D02*
X57760D01*
Y22500D01*
X60071D01*
Y25717D01*
D02*
G37*
G36*
X56760D02*
X54449D01*
Y22500D01*
X56760D01*
Y25717D01*
D02*
G37*
G36*
X70362Y23870D02*
X67500D01*
Y21008D01*
X70362D01*
Y23870D01*
D02*
G37*
G36*
X66500D02*
X63638D01*
Y21008D01*
X66500D01*
Y23870D01*
D02*
G37*
G36*
X60071Y21500D02*
X57760D01*
Y18283D01*
X60071D01*
Y21500D01*
D02*
G37*
G36*
X56760D02*
X54449D01*
Y18283D01*
X56760D01*
Y21500D01*
D02*
G37*
G36*
X54492Y15362D02*
X51630D01*
Y12500D01*
X54492D01*
Y15362D01*
D02*
G37*
G36*
X50630D02*
X47768D01*
Y12500D01*
X50630D01*
Y15362D01*
D02*
G37*
G36*
X54492Y11500D02*
X51630D01*
Y8638D01*
X54492D01*
Y11500D01*
D02*
G37*
G36*
X50630D02*
X47768D01*
Y8638D01*
X50630D01*
Y11500D01*
D02*
G37*
G36*
X46520Y84236D02*
X44228D01*
Y81000D01*
X46520D01*
Y84236D01*
D02*
G37*
G36*
X43228D02*
X40937D01*
Y81000D01*
X43228D01*
Y84236D01*
D02*
G37*
G36*
X46520Y80000D02*
X44228D01*
Y76764D01*
X46520D01*
Y80000D01*
D02*
G37*
G36*
X43228D02*
X40937D01*
Y76764D01*
X43228D01*
Y80000D01*
D02*
G37*
G36*
X60071Y73716D02*
X57760D01*
Y70500D01*
X60071D01*
Y73716D01*
D02*
G37*
G36*
X56760D02*
X54449D01*
Y70500D01*
X56760D01*
Y73716D01*
D02*
G37*
G36*
X69862Y70492D02*
X67000D01*
Y67630D01*
X69862D01*
Y70492D01*
D02*
G37*
G36*
X66000D02*
X63138D01*
Y67630D01*
X66000D01*
Y70492D01*
D02*
G37*
G36*
X60071Y69500D02*
X57760D01*
Y66284D01*
X60071D01*
Y69500D01*
D02*
G37*
G36*
X56760D02*
X54449D01*
Y66284D01*
X56760D01*
Y69500D01*
D02*
G37*
G36*
X69862Y66630D02*
X67000D01*
Y63768D01*
X69862D01*
Y66630D01*
D02*
G37*
G36*
X66000D02*
X63138D01*
Y63768D01*
X66000D01*
Y66630D01*
D02*
G37*
G36*
X259754Y277776D02*
X259500D01*
Y272551D01*
X264724D01*
Y272805D01*
X264334Y274261D01*
X263581Y275566D01*
X262515Y276632D01*
X261210Y277385D01*
X259754Y277776D01*
D02*
G37*
G36*
X258500D02*
X258246D01*
X256790Y277385D01*
X255485Y276632D01*
X254419Y275566D01*
X253666Y274261D01*
X253276Y272805D01*
Y272551D01*
X258500D01*
Y277776D01*
D02*
G37*
G36*
X264724Y271551D02*
X259500D01*
Y266327D01*
X259754D01*
X261210Y266717D01*
X262515Y267471D01*
X263581Y268536D01*
X264334Y269842D01*
X264724Y271298D01*
Y271551D01*
D02*
G37*
G36*
X258500D02*
X253276D01*
Y271298D01*
X253666Y269842D01*
X254419Y268536D01*
X255485Y267471D01*
X256790Y266717D01*
X258246Y266327D01*
X258500D01*
Y271551D01*
D02*
G37*
G36*
X319740Y250217D02*
X317429D01*
Y247000D01*
X319740D01*
Y250217D01*
D02*
G37*
G36*
X309260Y250116D02*
Y246900D01*
X311571D01*
Y250116D01*
X309260D01*
D02*
G37*
G36*
X323051Y246000D02*
X320740D01*
Y242783D01*
X323051D01*
Y246000D01*
D02*
G37*
G36*
X319740D02*
X317429D01*
Y242783D01*
X319740D01*
Y246000D01*
D02*
G37*
G36*
X311571Y245900D02*
X309260D01*
Y242684D01*
X311571D01*
Y245900D01*
D02*
G37*
G36*
X354500Y244240D02*
X351284D01*
Y241929D01*
X354500D01*
Y244240D01*
D02*
G37*
G36*
X122046Y161650D02*
X122000D01*
Y158000D01*
X125650D01*
Y158046D01*
X125367Y159102D01*
X124820Y160048D01*
X124048Y160820D01*
X123102Y161367D01*
X122046Y161650D01*
D02*
G37*
G36*
X121000D02*
X120954D01*
X119898Y161367D01*
X118952Y160820D01*
X118180Y160048D01*
X117633Y159102D01*
X117350Y158046D01*
Y158000D01*
X121000D01*
Y161650D01*
D02*
G37*
G36*
X146862Y156405D02*
X144000D01*
Y154134D01*
X146862D01*
Y156405D01*
D02*
G37*
G36*
X143000D02*
X140138D01*
Y154134D01*
X143000D01*
Y156405D01*
D02*
G37*
G36*
X125650Y157000D02*
X122000D01*
Y153350D01*
X122046D01*
X123102Y153633D01*
X124048Y154180D01*
X124820Y154952D01*
X125367Y155898D01*
X125650Y156954D01*
Y157000D01*
D02*
G37*
G36*
X121000D02*
X117350D01*
Y156954D01*
X117633Y155898D01*
X118180Y154952D01*
X118952Y154180D01*
X119898Y153633D01*
X120954Y153350D01*
X121000D01*
Y157000D01*
D02*
G37*
G36*
X173500Y153529D02*
X171750D01*
X171165Y153413D01*
X170669Y153081D01*
X170337Y152585D01*
X170221Y152000D01*
Y151000D01*
X173500D01*
Y153529D01*
D02*
G37*
G36*
X177779Y150000D02*
X174500D01*
Y147471D01*
X176250D01*
X176835Y147587D01*
X177331Y147919D01*
X177663Y148415D01*
X177779Y149000D01*
Y150000D01*
D02*
G37*
G36*
X368582Y99000D02*
X366000D01*
Y96418D01*
X366699Y96605D01*
X367407Y97014D01*
X367986Y97593D01*
X368395Y98301D01*
X368582Y99000D01*
D02*
G37*
G36*
X363216Y67331D02*
X360000D01*
Y65020D01*
X363216D01*
Y67331D01*
D02*
G37*
G36*
X359000D02*
X355784D01*
Y65020D01*
X359000D01*
Y67331D01*
D02*
G37*
G36*
X325217Y64551D02*
X322000D01*
Y62240D01*
X325217D01*
Y64551D01*
D02*
G37*
G36*
X321000D02*
X317783D01*
Y62240D01*
X321000D01*
Y64551D01*
D02*
G37*
G36*
X363216Y64020D02*
X360000D01*
Y61709D01*
X363216D01*
Y64020D01*
D02*
G37*
G36*
X359000D02*
X355784D01*
Y61709D01*
X359000D01*
Y64020D01*
D02*
G37*
%LPD*%
D12*
X70930Y198495D02*
G03*
X69050Y198051I70J-4495D01*
G01*
X209500Y121500D02*
X211200Y119800D01*
X209500Y121500D02*
Y125183D01*
X211200Y119800D02*
X220800D01*
X215020Y126526D02*
X215158D01*
X218572Y129939D02*
X218711D01*
X215158Y126526D02*
X218572Y129939D01*
X299000Y119500D02*
X345500D01*
X349500Y123500D01*
X345000Y91854D02*
Y92500D01*
X322406Y69260D02*
X345000Y91854D01*
X321500Y69260D02*
X322406D01*
X346000Y172000D02*
Y180500D01*
X355500Y190000D01*
X229289Y129939D02*
X229289D01*
X225700Y133529D02*
X229289Y129939D01*
X214256Y180606D02*
Y180791D01*
X211200Y183847D02*
X214256Y180791D01*
X211200Y183847D02*
Y191700D01*
X213500Y194000D01*
X205681Y189000D02*
X211017Y183664D01*
X261000Y146500D02*
X265000Y142500D01*
X269500D01*
X295000Y123500D02*
X299000Y119500D01*
X312500Y136000D02*
X331000D01*
X332500Y137500D01*
Y153358D01*
X330500Y131000D02*
X336000Y136500D01*
X311000Y131000D02*
X330500D01*
X226650Y127300D02*
X229289Y129939D01*
X221948Y127300D02*
X226650D01*
X217148Y122500D02*
X221948Y127300D01*
X212000Y122500D02*
X217148D01*
X209500Y125183D02*
X216483Y132167D01*
X220800Y119800D02*
X226000Y125000D01*
X205500Y121500D02*
X209500Y117500D01*
X205500Y125637D02*
X214256Y134394D01*
X205500Y121500D02*
Y125637D01*
X209500Y117500D02*
X219500D01*
X207634Y114866D02*
X217098D01*
X202000Y120500D02*
Y126592D01*
Y120500D02*
X207634Y114866D01*
X202000Y126592D02*
X212029Y136621D01*
X217500Y83500D02*
X253000D01*
X277671Y58829D01*
X332738D01*
X367567Y24000D01*
X313500Y168000D02*
X355500Y210000D01*
X292500Y168000D02*
X313500D01*
X225700Y133529D02*
Y143453D01*
X236447Y154200D01*
X247453D01*
X249347Y156095D01*
X254357D01*
X275063Y176800D01*
X316714D01*
X341635Y201721D01*
Y204482D01*
X358817Y221663D01*
Y275070D01*
X367120Y283374D01*
Y287463D01*
X367500Y287842D01*
X221500Y111000D02*
X235395Y124894D01*
Y128289D01*
X231517Y132167D02*
X235395Y128289D01*
X213414Y111000D02*
X221500D01*
X238500Y124000D02*
Y127500D01*
X209108Y98144D02*
X210814Y99850D01*
X212649Y98978D02*
X213478D01*
X210814Y99850D02*
X211777D01*
X213478Y98978D02*
X238500Y124000D01*
X211777Y99850D02*
X212649Y98978D01*
X301240Y246400D02*
Y247305D01*
X299000Y249546D02*
X301240Y247305D01*
X299000Y249546D02*
Y272051D01*
X327760Y246500D02*
Y247406D01*
X339000Y258646D01*
Y272051D01*
X252952Y150819D02*
X283819D01*
X291500Y158500D01*
X251560Y152211D02*
X252952Y150819D01*
X290500Y148500D02*
X291500Y149500D01*
X282000Y148500D02*
X290500D01*
X217098Y114866D02*
X217366Y115134D01*
X228500Y104500D02*
X242272D01*
X249333Y149984D02*
X254049Y145268D01*
X254732D01*
X255000Y145000D01*
X247106Y147744D02*
Y147756D01*
Y147744D02*
X255000Y139851D01*
Y139839D02*
Y139851D01*
X242500Y124464D02*
Y127500D01*
X212644Y94608D02*
X242500Y124464D01*
X318000Y95500D02*
X349500D01*
X283561Y129939D02*
X318000Y95500D01*
X256015Y129939D02*
X283561D01*
X365500Y109500D02*
X368706Y112706D01*
Y120828D01*
X362370Y127164D02*
X368706Y120828D01*
X290336Y127164D02*
X362370D01*
X284000Y133500D02*
X290336Y127164D01*
X256908Y133500D02*
X284000D01*
X244879Y145529D02*
X256908Y133500D01*
X242652Y143302D02*
X256015Y129939D01*
X270000Y174000D02*
X286000Y190000D01*
X259923Y178000D02*
X263923Y174000D01*
X270000D01*
X253408Y178000D02*
X259923D01*
X244879Y169471D02*
X253408Y178000D01*
X303000Y202000D02*
X303500D01*
X307000Y205500D01*
Y226884D01*
X279000Y254884D02*
X307000Y226884D01*
X279000Y254884D02*
Y272051D01*
X238500Y218228D02*
X239272Y219000D01*
X238500Y207500D02*
Y218228D01*
X263850Y207142D02*
X295150D01*
X263358D02*
X263850D01*
X260000Y210500D02*
X263358Y207142D01*
X246827Y210500D02*
X260000D01*
X239272Y218055D02*
X246827Y210500D01*
X239272Y218055D02*
Y219000D01*
X38260Y255740D02*
Y263000D01*
Y255740D02*
X46500Y247500D01*
X85500D01*
X20000Y262740D02*
X20260Y263000D01*
X20000Y254000D02*
Y262740D01*
Y254000D02*
X30500Y243500D01*
X82500D01*
X123000Y210000D02*
X167046D01*
X205348Y171698D01*
X138000Y206500D02*
X166092D01*
X203121Y169471D01*
X112034Y179504D02*
X128029Y195500D01*
X168000D01*
X70930Y198495D02*
X163000Y200000D01*
X104284Y159504D02*
X136779Y192000D01*
X152000D01*
X209126Y210856D02*
X215482Y204500D01*
X215500D01*
X209108Y210856D02*
X209126D01*
X218015Y212485D02*
X223000Y207500D01*
X214551Y212485D02*
X218015D01*
X212644Y214392D02*
X214551Y212485D01*
X248621Y191000D02*
X249000D01*
X247853Y190232D02*
X248621Y191000D01*
X247824Y190232D02*
X247853D01*
X235971Y178379D02*
X247824Y190232D01*
X233744Y180606D02*
X247137Y194000D01*
X258000D01*
X240425Y173925D02*
X246000Y179500D01*
X242675Y171698D02*
X251977Y181000D01*
X242652Y171698D02*
X242675D01*
X251977Y181000D02*
X252000D01*
X238198Y176152D02*
X248546Y186500D01*
X262000D01*
X270500Y178000D01*
X247106Y167244D02*
Y167425D01*
X253500Y173819D01*
Y174000D01*
X61000Y194000D02*
X62108Y195108D01*
X62108D02*
X62937Y195108D01*
X69050Y198051D01*
X61000Y194000D02*
X62108Y195108D01*
X190500Y146500D02*
X196211Y152211D01*
X196440D01*
X187137Y181000D02*
X200894Y167244D01*
X181728Y181000D02*
X187137D01*
X231500Y92783D02*
X242272Y103555D01*
X231500Y92500D02*
Y92783D01*
X205500Y189000D02*
X205681D01*
X199000Y191704D02*
X212029Y178675D01*
X199000Y191704D02*
Y192000D01*
X212029Y178379D02*
Y178675D01*
X199000Y186954D02*
X209802Y176152D01*
X199000Y186954D02*
Y187000D01*
X65496Y159504D02*
X104284D01*
X61000Y164000D02*
X65496Y159504D01*
X61000Y194000D02*
X62108Y195108D01*
X65496Y179504D02*
X112034D01*
X61000Y184000D02*
X65496Y179504D01*
X169000Y212500D02*
X207575Y173925D01*
X69500Y212500D02*
X169000D01*
X61000Y204000D02*
X69500Y212500D01*
X242517Y158200D02*
X249333Y165016D01*
X201029Y158200D02*
X242517D01*
X196440Y162789D02*
X201029Y158200D01*
X231517Y182833D02*
X251683Y203000D01*
X286740D01*
X296024Y193717D01*
X296929D01*
X298240Y192405D01*
Y191500D02*
Y192405D01*
X251371Y207142D02*
X263850D01*
X229289Y185061D02*
X251371Y207142D01*
X198228Y131728D02*
X207575Y141075D01*
X198228Y115500D02*
Y131728D01*
X355000Y252260D02*
Y291000D01*
X361685Y297685D01*
X367500D01*
X367567Y33843D02*
Y48933D01*
X361717Y54783D02*
X367567Y48933D01*
X361717Y54783D02*
Y55689D01*
X360405Y57000D02*
X361717Y55689D01*
X359500Y57000D02*
X360405D01*
X332500Y153358D02*
X354392Y175250D01*
Y178892D01*
X355500Y180000D01*
X336000Y136500D02*
Y150500D01*
X355500Y170000D01*
X305760Y191500D02*
X316866D01*
X278350Y70642D02*
X309650D01*
X311032Y69260D01*
X321500D01*
X276291Y72701D02*
X278350Y70642D01*
X273126Y72701D02*
X276291D01*
X242272Y103555D02*
X273126Y72701D01*
X181728Y164478D02*
Y170500D01*
X174750Y157500D02*
X181728Y164478D01*
X174000Y157500D02*
X174750D01*
X181728Y170500D02*
X188729D01*
X196440Y162789D01*
X261317Y114363D02*
X261665Y114711D01*
X261317Y111868D02*
Y114363D01*
Y111868D02*
X261591Y111595D01*
Y106559D02*
Y111595D01*
Y106559D02*
X263650Y104500D01*
X254000Y67000D02*
X279000Y42000D01*
X249500Y67000D02*
X254000D01*
X239000Y42000D02*
X239000Y42000D01*
X239000Y42000D02*
Y67000D01*
X48429Y68689D02*
X49740Y70000D01*
X48429Y65102D02*
Y68689D01*
X33748Y50421D02*
X48429Y65102D01*
X29984Y50421D02*
X33748D01*
X49740Y22000D02*
Y26730D01*
X37860Y38610D02*
X49740Y26730D01*
X29984Y38610D02*
X37860D01*
X263335Y125289D02*
X263683Y125637D01*
X276012D01*
X277500Y124150D01*
X238198Y138848D02*
X246171Y130874D01*
Y120944D02*
Y130874D01*
Y120944D02*
X252753Y114363D01*
X261317D01*
X240425Y141075D02*
X256211Y125289D01*
X260145D01*
X260493Y124941D01*
X262987D01*
X263335Y125289D01*
D19*
X205573Y207320D02*
D03*
X198892Y228144D02*
D03*
X195356Y224608D02*
D03*
X202427Y231680D02*
D03*
X209108Y210856D02*
D03*
X212644Y214392D02*
D03*
X216179Y217927D02*
D03*
X191821Y221073D02*
D03*
D20*
X291500Y149500D02*
D03*
X299768D02*
D03*
X291500Y158500D02*
D03*
X299768D02*
D03*
X325134Y191500D02*
D03*
X316866D02*
D03*
X66500Y67130D02*
D03*
X39870Y12000D02*
D03*
X67000Y24370D02*
D03*
D21*
X321760Y148500D02*
D03*
X314240D02*
D03*
X321760Y159000D02*
D03*
X314240D02*
D03*
X298240Y191500D02*
D03*
X305760D02*
D03*
X230980Y207500D02*
D03*
X238500D02*
D03*
X327760Y246500D02*
D03*
X320240D02*
D03*
X301240Y246400D02*
D03*
X308760D02*
D03*
X38260Y263000D02*
D03*
X30740D02*
D03*
X38260Y275000D02*
D03*
X30740D02*
D03*
X20260D02*
D03*
X12740D02*
D03*
X20260Y263000D02*
D03*
X12740D02*
D03*
X49740Y70000D02*
D03*
X57260D02*
D03*
X49740Y22000D02*
D03*
X57260D02*
D03*
D22*
X245728Y219000D02*
D03*
X239272D02*
D03*
X175272Y170500D02*
D03*
X181728D02*
D03*
X175272Y181000D02*
D03*
X181728D02*
D03*
X191772Y115500D02*
D03*
X198228D02*
D03*
X248728Y104500D02*
D03*
X242272D02*
D03*
X43728Y80500D02*
D03*
X37272D02*
D03*
D23*
X355000Y252260D02*
D03*
Y244740D02*
D03*
X359500Y57000D02*
D03*
Y64520D02*
D03*
X321500Y61740D02*
D03*
Y69260D02*
D03*
X239000Y67000D02*
D03*
Y74520D02*
D03*
X249500Y67000D02*
D03*
Y74520D02*
D03*
D24*
X174000Y157500D02*
D03*
Y150500D02*
D03*
D25*
X143500Y145366D02*
D03*
Y153634D02*
D03*
D26*
Y124866D02*
D03*
Y133134D02*
D03*
X66500Y55870D02*
D03*
X51130Y12000D02*
D03*
X67000Y35630D02*
D03*
D27*
X216179Y91073D02*
D03*
X212644Y94608D02*
D03*
X209108Y98144D02*
D03*
X205573Y101680D02*
D03*
X191821Y87927D02*
D03*
X195356Y84392D02*
D03*
X198892Y80856D02*
D03*
X202427Y77320D02*
D03*
D28*
X277500Y117850D02*
D03*
Y124150D02*
D03*
D29*
X267789Y120835D02*
D03*
X261665Y114711D02*
D03*
X257211Y119165D02*
D03*
X263335Y125289D02*
D03*
D30*
X257350Y104500D02*
D03*
X263650D02*
D03*
D31*
X263850Y224858D02*
D03*
X295150D02*
D03*
X263850Y207142D02*
D03*
X295150D02*
D03*
X278350Y88358D02*
D03*
X309650D02*
D03*
X278350Y70642D02*
D03*
X309650D02*
D03*
D32*
X196440Y162789D02*
D03*
X198667Y165016D02*
D03*
X200894Y167244D02*
D03*
X203121Y169471D02*
D03*
X205348Y171698D02*
D03*
X207575Y173925D02*
D03*
X209802Y176152D02*
D03*
X212029Y178379D02*
D03*
X214256Y180606D02*
D03*
X216483Y182833D02*
D03*
X218711Y185061D02*
D03*
X251560Y152211D02*
D03*
X249333Y149984D02*
D03*
X247106Y147756D02*
D03*
X244879Y145529D02*
D03*
X242652Y143302D02*
D03*
X240425Y141075D02*
D03*
X238198Y138848D02*
D03*
X235971Y136621D02*
D03*
X233744Y134394D02*
D03*
X231517Y132167D02*
D03*
X229289Y129939D02*
D03*
D33*
Y185061D02*
D03*
X231517Y182833D02*
D03*
X233744Y180606D02*
D03*
X235971Y178379D02*
D03*
X238198Y176152D02*
D03*
X240425Y173925D02*
D03*
X242652Y171698D02*
D03*
X244879Y169471D02*
D03*
X247106Y167244D02*
D03*
X249333Y165016D02*
D03*
X251560Y162789D02*
D03*
X218711Y129939D02*
D03*
X216483Y132167D02*
D03*
X214256Y134394D02*
D03*
X212029Y136621D02*
D03*
X209802Y138848D02*
D03*
X207575Y141075D02*
D03*
X205348Y143302D02*
D03*
X203121Y145529D02*
D03*
X200894Y147756D02*
D03*
X198667Y149984D02*
D03*
X196440Y152211D02*
D03*
D34*
X29984Y52390D02*
D03*
Y50421D02*
D03*
Y48453D02*
D03*
Y46484D02*
D03*
Y44516D02*
D03*
Y42547D02*
D03*
Y40579D02*
D03*
Y38610D02*
D03*
D35*
Y36051D02*
D03*
Y54949D02*
D03*
Y58098D02*
D03*
Y32902D02*
D03*
D61*
X27720Y28492D02*
D03*
Y62508D02*
D03*
D62*
X11972Y28492D02*
D03*
Y62508D02*
D03*
D63*
X33000Y287782D02*
Y295000D01*
X26000Y302000D02*
X33000Y295000D01*
X30740Y285522D02*
X33000Y287782D01*
X30740Y275905D02*
Y285522D01*
X16000Y292000D02*
X26000D01*
X12740Y288740D02*
X16000Y292000D01*
X267521Y120487D02*
X267869Y120835D01*
X263997Y120487D02*
X267521D01*
X263650Y120140D02*
X263997Y120487D01*
X260216Y120140D02*
X263650D01*
X259589Y119513D02*
X260216Y120140D01*
X257559Y119513D02*
X259589D01*
X257211Y119165D02*
X257559Y119513D01*
X360500Y104500D02*
Y109500D01*
Y104500D02*
X365500D01*
X191821Y221073D02*
X193728Y219166D01*
Y210772D02*
Y219166D01*
Y210772D02*
X206000Y198500D01*
X216000D01*
X220000Y194500D01*
X222520Y216020D02*
X223500Y217000D01*
X218087Y216020D02*
X222520D01*
X216179Y217927D02*
X218087Y216020D01*
X321760Y166260D02*
X340500Y185000D01*
X321760Y159000D02*
Y166260D01*
Y148500D02*
Y159000D01*
X314240Y148500D02*
Y148689D01*
X313429Y149500D02*
X314240Y148689D01*
X299768Y149500D02*
X313429D01*
X313990Y158750D02*
X314240Y159000D01*
X300018Y158750D02*
X313990D01*
X299768Y158500D02*
X300018Y158750D01*
X258500Y271551D02*
X259000Y272051D01*
X258500Y255500D02*
Y271551D01*
X230980Y227980D02*
X258500Y255500D01*
X230980Y207500D02*
Y227980D01*
X308760Y246500D02*
X308810Y246450D01*
X308760Y246500D02*
Y279069D01*
X304328Y283500D02*
X308760Y279069D01*
X270449Y283500D02*
X304328D01*
X259000Y272051D02*
X270449Y283500D01*
X339746Y244740D02*
X355000D01*
X337189Y242183D02*
X339746Y244740D01*
X323651Y242183D02*
X337189D01*
X320240Y245595D02*
X323651Y242183D01*
X320240Y245595D02*
Y246500D01*
X220000Y194500D02*
X220076Y194577D01*
Y195691D01*
X230980Y206594D01*
Y207500D01*
X217341Y191841D02*
X220000Y194500D01*
X217341Y186430D02*
Y191841D01*
Y186430D02*
X218711Y185061D01*
X236660Y131500D02*
X238500D01*
X233766Y134394D02*
X236660Y131500D01*
X233744Y134394D02*
X233766D01*
X319000Y40172D02*
Y42000D01*
X306328Y27500D02*
X319000Y40172D01*
X241789Y27500D02*
X306328D01*
X227075Y42214D02*
X241789Y27500D01*
X227075Y42214D02*
Y63500D01*
X238094Y74520D01*
X207000Y63500D02*
X227075D01*
X238094Y74520D02*
X239000D01*
X200520Y69980D02*
X207000Y63500D01*
X200520Y69980D02*
Y75414D01*
X202427Y77320D01*
X320190Y246450D02*
X320240Y246500D01*
X308810Y246450D02*
X320190D01*
X196500Y134500D02*
X196546D01*
X205348Y143302D01*
X184250Y141000D02*
X189661D01*
X174750Y150500D02*
X184250Y141000D01*
X189661D02*
X198644Y149984D01*
X213539Y185800D02*
X216483Y182856D01*
Y182833D02*
Y182856D01*
X213500Y190000D02*
X213539Y189961D01*
Y185800D02*
Y189961D01*
X216483Y182833D02*
X222500Y176817D01*
X246500Y156500D02*
X246576Y156577D01*
Y157805D02*
X256271Y167500D01*
X246576Y156577D02*
Y157805D01*
X209802Y138826D02*
Y138848D01*
X202500Y131524D02*
X209802Y138826D01*
X202500Y131500D02*
Y131524D01*
X38260Y263000D02*
Y275000D01*
X20260Y263000D02*
Y275000D01*
X7000Y258500D02*
X9146D01*
X12740Y262094D01*
Y263000D01*
X30740Y256260D02*
X32500Y254500D01*
X30740Y256260D02*
Y263000D01*
X173250Y150500D02*
X174000D01*
X170116Y153634D02*
X173250Y150500D01*
X143500Y153634D02*
X170116D01*
X143500Y133134D02*
Y145366D01*
X12740Y275000D02*
Y288740D01*
X239000Y74520D02*
X249500D01*
X256271Y167500D02*
X258500D01*
X222500Y174500D02*
Y176817D01*
X212046Y150000D02*
X214500D01*
X228000Y142500D02*
X230092D01*
X235971Y136621D01*
X210000Y106107D02*
Y108500D01*
X205348Y143302D02*
X212046Y150000D01*
X198667Y165016D02*
X203183Y160500D01*
X207000D01*
X205573Y101680D02*
X210000Y106107D01*
X205573Y101680D02*
Y101680D01*
X29984Y54949D02*
X30165Y55130D01*
X32723D01*
X37272Y59678D01*
Y80500D01*
X39000Y12870D02*
X39870Y12000D01*
X39000Y12870D02*
Y34500D01*
X37449Y36051D02*
X39000Y34500D01*
X29984Y36051D02*
X37449D01*
X19500Y51000D02*
X23449Y54949D01*
Y36051D02*
X29984D01*
X19500Y40000D02*
Y51000D01*
Y40000D02*
X23449Y36051D01*
Y54949D02*
X29984D01*
X198644Y149984D02*
X198667D01*
D64*
X200184Y212709D02*
X205573Y207320D01*
X194337Y256345D02*
Y268988D01*
Y256345D02*
X208593Y242089D01*
X194849Y269500D02*
X203500D01*
X208593Y221491D02*
Y242089D01*
X200696Y215012D02*
X202114D01*
X194337Y268988D02*
X194849Y269500D01*
X200184Y214499D02*
X200696Y215012D01*
X200184Y212709D02*
Y214499D01*
X202114Y215012D02*
X208593Y221491D01*
X182442Y246946D02*
X197272Y232115D01*
Y231391D02*
Y232115D01*
X166000Y275535D02*
X182442Y259093D01*
Y246946D02*
Y259093D01*
X196985Y230051D02*
X198892Y228144D01*
X196985Y231103D02*
X197272Y231391D01*
X196985Y230051D02*
Y231103D01*
X154337Y270736D02*
X159136Y275535D01*
X166000D01*
X154337Y270012D02*
Y270736D01*
Y270012D02*
X154849Y269500D01*
X163500D01*
X206919Y222184D02*
Y241395D01*
X198980Y218402D02*
Y220894D01*
X195356Y224518D02*
Y224608D01*
Y224518D02*
X198980Y220894D01*
X201421Y216686D02*
X206919Y222184D01*
X200696Y216686D02*
X201421D01*
X198980Y218402D02*
X200696Y216686D01*
X192151Y269500D02*
X192663Y268988D01*
Y255651D02*
Y268988D01*
X183500Y269500D02*
X192151D01*
X192663Y255651D02*
X206919Y241395D01*
X184116Y247639D02*
X198456Y233299D01*
X199468Y233587D02*
X200520D01*
X166693Y277209D02*
X184116Y259787D01*
Y247639D02*
Y259787D01*
X200520Y233587D02*
X202427Y231680D01*
X199180Y233299D02*
X199468Y233587D01*
X198456Y233299D02*
X199180D01*
X152663Y271429D02*
X158443Y277209D01*
X166693D01*
X152663Y270012D02*
Y271429D01*
X143500Y269500D02*
X152151D01*
X152663Y270012D01*
X222888Y72000D02*
X224163Y70725D01*
X222763Y72000D02*
X222888D01*
X223651Y69489D02*
X224163Y70001D01*
Y70725D01*
X209525Y83694D02*
Y84418D01*
Y83694D02*
X216035Y77184D01*
Y75177D02*
Y77184D01*
X209525Y84418D02*
X216179Y91073D01*
X221723Y69489D02*
X223651D01*
X216035Y75177D02*
X221723Y69489D01*
X225837Y70725D02*
X227112Y72000D01*
X221029Y67815D02*
X224344D01*
X214361Y74484D02*
X221029Y67815D01*
X214361Y74484D02*
Y76491D01*
X224344Y67815D02*
X225837Y69308D01*
Y70725D01*
X227112Y72000D02*
X227237D01*
X208089Y82763D02*
X214361Y76491D01*
X198892Y80856D02*
X200799Y82763D01*
X208089D01*
X195337Y43988D02*
X195849Y44500D01*
X204500D01*
X200136Y38465D02*
X207000D01*
X195337Y43264D02*
X200136Y38465D01*
X195337Y43264D02*
Y43988D01*
X207000Y38465D02*
X210535Y42000D01*
X189190Y72595D02*
X210535Y51250D01*
Y42000D02*
Y51250D01*
X189190Y72595D02*
Y82945D01*
X189913Y84968D02*
Y86020D01*
Y84968D02*
X190201Y84680D01*
Y83956D02*
Y84680D01*
X189190Y82945D02*
X190201Y83956D01*
X189913Y86020D02*
X191821Y87927D01*
X193151Y44500D02*
X193663Y43988D01*
X184500Y44500D02*
X193151D01*
X193663Y42571D02*
X199443Y36791D01*
X193663Y42571D02*
Y43988D01*
X190864Y73289D02*
X212209Y51943D01*
Y41307D02*
Y51943D01*
X207693Y36791D02*
X212209Y41307D01*
X199443Y36791D02*
X207693D01*
X190864Y73289D02*
Y82251D01*
X191385Y82772D02*
X192109D01*
X190864Y82251D02*
X191385Y82772D01*
X193449Y82485D02*
X195356Y84392D01*
X192397Y82485D02*
X193449D01*
X192109Y82772D02*
X192397Y82485D01*
D65*
X29984Y48453D02*
X59083D01*
X66500Y55870D01*
X60083Y42547D02*
X67000Y35630D01*
X29984Y42547D02*
X60083D01*
X33160Y43548D02*
Y45484D01*
X75370Y47000D02*
X101358D01*
X66500Y55870D02*
X75370Y47000D01*
X76947Y45577D02*
X101948D01*
X67000Y35630D02*
X76947Y45577D01*
X200508Y144137D02*
X201729D01*
X101948Y45577D02*
X200508Y144137D01*
X201729D02*
X203121Y145529D01*
X199502Y146364D02*
X200894Y147756D01*
X199502Y145144D02*
Y146364D01*
X101358Y47000D02*
X199502Y145144D01*
X32438Y46205D02*
X33160Y45484D01*
X30263Y46205D02*
X32438D01*
X29984Y46484D02*
X30263Y46205D01*
X32438Y42826D02*
X33160Y43548D01*
X29705Y44795D02*
X29984Y44516D01*
X27530Y44795D02*
X29705D01*
X26809Y45516D02*
X27530Y44795D01*
X26809Y45516D02*
Y47452D01*
X27530Y48174D01*
X29705D01*
X29984Y48453D01*
D66*
X319000Y42000D02*
X319000Y42000D01*
X319000Y19500D02*
Y42000D01*
Y19500D02*
X329911Y8589D01*
X369873D01*
X373135Y11851D01*
Y57858D01*
X373000Y57993D02*
X373135Y57858D01*
X373000Y57993D02*
Y104000D01*
X365500Y99500D02*
X365541Y99541D01*
X368541D01*
X373000Y104000D01*
Y202500D01*
X365500Y210000D02*
X373000Y202500D01*
X325134Y198634D02*
X328000Y201500D01*
X325134Y191500D02*
Y198634D01*
X257909Y97591D02*
X261500Y94000D01*
X257909Y97591D02*
Y103941D01*
X257350Y104500D02*
X257909Y103941D01*
X317642Y88358D02*
X322000Y84000D01*
X309650Y88358D02*
X317642D01*
X299000Y228217D02*
Y230500D01*
X295642Y224858D02*
X299000Y228217D01*
X295150Y224858D02*
X295642D01*
X252500Y226299D02*
Y227500D01*
X245728Y219528D02*
X252500Y226299D01*
X245728Y219000D02*
Y219528D01*
X263850Y224858D02*
X295150D01*
X142000Y117000D02*
X143500Y118500D01*
Y124866D01*
X37272Y80500D02*
Y98272D01*
X86500Y147500D01*
X121500D01*
X270854Y117850D02*
X277500D01*
X278059Y117291D01*
X267869Y120835D02*
X270854Y117850D01*
X284209Y117291D02*
X286500Y115000D01*
X278059Y117291D02*
X284209D01*
X278350Y88358D02*
X309650D01*
X250500Y121000D02*
X252683Y118817D01*
X256863D02*
X257211Y119165D01*
X252683Y118817D02*
X256863D01*
X248728Y104500D02*
X257350D01*
X170299Y186500D02*
X175272Y181528D01*
Y170500D02*
Y181000D01*
Y181528D01*
X167500Y186500D02*
X170299D01*
X185500Y115500D02*
X191772D01*
X183500Y113500D02*
X185500Y115500D01*
D67*
X203500Y269500D02*
D03*
X183500D02*
D03*
X163500D02*
D03*
X143500D02*
D03*
X319000Y272051D02*
D03*
X299000D02*
D03*
X279000D02*
D03*
X259000D02*
D03*
X239000D02*
D03*
X259000Y42000D02*
D03*
X279000D02*
D03*
X299000D02*
D03*
X319000D02*
D03*
X339000D02*
D03*
X144500Y44500D02*
D03*
X164500D02*
D03*
X184500D02*
D03*
X204500D02*
D03*
D68*
X365500Y170000D02*
D03*
X355500D02*
D03*
X365500Y180000D02*
D03*
X355500D02*
D03*
X365500Y190000D02*
D03*
X355500D02*
D03*
X365500Y200000D02*
D03*
X355500D02*
D03*
X365500Y210000D02*
D03*
X71000Y164000D02*
D03*
X61000D02*
D03*
X71000Y174000D02*
D03*
X61000D02*
D03*
X71000Y184000D02*
D03*
X61000D02*
D03*
X71000Y194000D02*
D03*
X61000D02*
D03*
X71000Y204000D02*
D03*
D69*
X355500Y210000D02*
D03*
X61000Y204000D02*
D03*
D70*
X367500Y297685D02*
D03*
X367567Y33843D02*
D03*
D71*
X367500Y287842D02*
D03*
Y278000D02*
D03*
X367567Y24000D02*
D03*
Y14157D02*
D03*
D72*
X339000Y272051D02*
D03*
X239000Y42000D02*
D03*
D73*
X67250Y270342D02*
D03*
X99750D02*
D03*
D74*
X26000Y302000D02*
D03*
Y292000D02*
D03*
D75*
X15000Y199000D02*
D03*
Y179315D02*
D03*
Y189157D02*
D03*
Y154500D02*
D03*
Y134815D02*
D03*
Y144658D02*
D03*
Y243500D02*
D03*
Y223815D02*
D03*
Y233658D02*
D03*
D76*
X121500Y147500D02*
D03*
D77*
Y157500D02*
D03*
Y167500D02*
D03*
D78*
X365500Y99500D02*
D03*
X360500Y119500D02*
D03*
X365500D02*
D03*
X360500Y114500D02*
D03*
X365500D02*
D03*
X360500Y109500D02*
D03*
X365500D02*
D03*
X360500Y104500D02*
D03*
X365500D02*
D03*
X360500Y99500D02*
D03*
D79*
X215020Y126526D02*
D03*
X7500Y19500D02*
D03*
Y14000D02*
D03*
X14500Y19500D02*
D03*
Y14000D02*
D03*
X22000Y19500D02*
D03*
X28500D02*
D03*
X22000Y14000D02*
D03*
X28500D02*
D03*
X7500Y8000D02*
D03*
X14667D02*
D03*
X21833D02*
D03*
X29000D02*
D03*
X67000Y76000D02*
D03*
X62000Y83000D02*
D03*
X81000Y42000D02*
D03*
X77000D02*
D03*
X80500Y49500D02*
D03*
X77000D02*
D03*
X58500Y80000D02*
D03*
X54000Y80500D02*
D03*
X62500Y79500D02*
D03*
X58500Y84000D02*
D03*
X54000Y86000D02*
D03*
Y76000D02*
D03*
X58333D02*
D03*
X27500D02*
D03*
X20333D02*
D03*
X13167D02*
D03*
X6000D02*
D03*
X27000Y82000D02*
D03*
X20500D02*
D03*
X27000Y87500D02*
D03*
X20500D02*
D03*
X13000Y82000D02*
D03*
Y87500D02*
D03*
X6000Y82000D02*
D03*
Y87500D02*
D03*
X62667Y76000D02*
D03*
X349500Y123500D02*
D03*
X345000Y92177D02*
D03*
X348000Y133000D02*
D03*
X346000Y172000D02*
D03*
X223500Y217000D02*
D03*
X340500Y185000D02*
D03*
X190000Y141000D02*
D03*
X279500Y224858D02*
D03*
X328000Y201500D02*
D03*
X220000Y194500D02*
D03*
X238500Y131500D02*
D03*
X215500Y161500D02*
D03*
X234500D02*
D03*
X230000Y152500D02*
D03*
X227000Y149500D02*
D03*
X224000Y146500D02*
D03*
X223500Y153500D02*
D03*
X220500Y150000D02*
D03*
X217500Y154000D02*
D03*
X236000Y146000D02*
D03*
X228500Y139000D02*
D03*
X221500Y143500D02*
D03*
X217500Y147000D02*
D03*
X237000Y150000D02*
D03*
X232500Y146000D02*
D03*
X211000Y153000D02*
D03*
X229000Y162500D02*
D03*
X225500Y165500D02*
D03*
X222000Y162000D02*
D03*
X219000Y164500D02*
D03*
X223000Y168000D02*
D03*
X232000Y165500D02*
D03*
X229500Y168000D02*
D03*
X226500Y171000D02*
D03*
X219000Y170500D02*
D03*
X215500Y167000D02*
D03*
X211000Y163500D02*
D03*
X213500Y194000D02*
D03*
X261000Y146500D02*
D03*
X269500Y142500D02*
D03*
X295000Y123500D02*
D03*
X312500Y136000D02*
D03*
X311000Y131000D02*
D03*
X322000Y84000D02*
D03*
X261500Y94000D02*
D03*
X212000Y122500D02*
D03*
X217500Y83500D02*
D03*
X292500Y168000D02*
D03*
X217366Y115134D02*
D03*
X282000Y148500D02*
D03*
X213414Y111000D02*
D03*
X228500Y104500D02*
D03*
X196500Y134500D02*
D03*
X255000Y139839D02*
D03*
Y145000D02*
D03*
X238500Y127500D02*
D03*
X242500D02*
D03*
X349500Y95500D02*
D03*
X286000Y190000D02*
D03*
X303000Y202000D02*
D03*
X85500Y247500D02*
D03*
X82500Y243500D02*
D03*
X123000Y210000D02*
D03*
X138000Y206500D02*
D03*
X168000Y195500D02*
D03*
X163000Y200000D02*
D03*
X152000Y192000D02*
D03*
X215500Y204500D02*
D03*
X223000Y207500D02*
D03*
X249000Y191000D02*
D03*
X258000Y194000D02*
D03*
X246000Y179500D02*
D03*
X252000Y181000D02*
D03*
X270500Y178000D02*
D03*
X253500Y174000D02*
D03*
X190500Y146500D02*
D03*
X231500Y92500D02*
D03*
X205500Y189000D02*
D03*
X199000Y192000D02*
D03*
Y187000D02*
D03*
X213500Y190000D02*
D03*
X246500Y156500D02*
D03*
X299000Y230500D02*
D03*
X252500Y227500D02*
D03*
X202500Y131500D02*
D03*
X219500Y117500D02*
D03*
X226000Y125000D02*
D03*
X222763Y72000D02*
D03*
X227237D02*
D03*
X7000Y258500D02*
D03*
X32500Y254500D02*
D03*
X142000Y117000D02*
D03*
X258500Y167500D02*
D03*
X286500Y115000D02*
D03*
X222500Y174500D02*
D03*
X214500Y150000D02*
D03*
X250500Y121000D02*
D03*
X228000Y142500D02*
D03*
X210000Y108500D02*
D03*
X207000Y160500D02*
D03*
X167500Y186500D02*
D03*
X183500Y113500D02*
D03*
M02*
