G04*
G04 #@! TF.GenerationSoftware,Altium Limited,Altium Designer,25.6.2 (33)*
G04*
G04 Layer_Color=16711935*
%FSLAX25Y25*%
%MOIN*%
G70*
G04*
G04 #@! TF.SameCoordinates,CE49FCD3-F284-452D-968F-53FA369C6713*
G04*
G04*
G04 #@! TF.FilePolarity,Negative*
G04*
G01*
G75*
%ADD49C,0.09849*%
%ADD50C,0.07191*%
%ADD51R,0.07191X0.07191*%
%ADD52R,0.06337X0.06337*%
%ADD53C,0.06337*%
%ADD54R,0.09849X0.09849*%
%ADD55O,0.16148X0.20085*%
%ADD56C,0.08077*%
%ADD57O,0.10243X0.07290*%
G04:AMPARAMS|DCode=58|XSize=66.99mil|YSize=66.99mil|CornerRadius=17.75mil|HoleSize=0mil|Usage=FLASHONLY|Rotation=90.000|XOffset=0mil|YOffset=0mil|HoleType=Round|Shape=RoundedRectangle|*
%AMROUNDEDRECTD58*
21,1,0.06699,0.03150,0,0,90.0*
21,1,0.03150,0.06699,0,0,90.0*
1,1,0.03550,0.01575,0.01575*
1,1,0.03550,0.01575,-0.01575*
1,1,0.03550,-0.01575,-0.01575*
1,1,0.03550,-0.01575,0.01575*
%
%ADD58ROUNDEDRECTD58*%
%ADD59C,0.06699*%
%ADD60C,0.04613*%
G04:AMPARAMS|DCode=61|XSize=39.37mil|YSize=70.87mil|CornerRadius=19.68mil|HoleSize=0mil|Usage=FLASHONLY|Rotation=270.000|XOffset=0mil|YOffset=0mil|HoleType=Round|Shape=RoundedRectangle|*
%AMROUNDEDRECTD61*
21,1,0.03937,0.03150,0,0,270.0*
21,1,0.00000,0.07087,0,0,270.0*
1,1,0.03937,-0.01575,0.00000*
1,1,0.03937,-0.01575,0.00000*
1,1,0.03937,0.01575,0.00000*
1,1,0.03937,0.01575,0.00000*
%
%ADD61ROUNDEDRECTD61*%
G04:AMPARAMS|DCode=62|XSize=39.37mil|YSize=86.61mil|CornerRadius=19.68mil|HoleSize=0mil|Usage=FLASHONLY|Rotation=270.000|XOffset=0mil|YOffset=0mil|HoleType=Round|Shape=RoundedRectangle|*
%AMROUNDEDRECTD62*
21,1,0.03937,0.04724,0,0,270.0*
21,1,0.00000,0.08661,0,0,270.0*
1,1,0.03937,-0.02362,0.00000*
1,1,0.03937,-0.02362,0.00000*
1,1,0.03937,0.02362,0.00000*
1,1,0.03937,0.02362,0.00000*
%
%ADD62ROUNDEDRECTD62*%
D49*
X203500Y269500D02*
D03*
X183500D02*
D03*
X163500D02*
D03*
X143500D02*
D03*
X319000Y272051D02*
D03*
X299000D02*
D03*
X279000D02*
D03*
X259000D02*
D03*
X239000D02*
D03*
X259000Y42000D02*
D03*
X279000D02*
D03*
X299000D02*
D03*
X319000D02*
D03*
X339000D02*
D03*
X144500Y44500D02*
D03*
X164500D02*
D03*
X184500D02*
D03*
X204500D02*
D03*
D50*
X365500Y170000D02*
D03*
X355500D02*
D03*
X365500Y180000D02*
D03*
X355500D02*
D03*
X365500Y190000D02*
D03*
X355500D02*
D03*
X365500Y200000D02*
D03*
X355500D02*
D03*
X365500Y210000D02*
D03*
X71000Y164000D02*
D03*
X61000D02*
D03*
X71000Y174000D02*
D03*
X61000D02*
D03*
X71000Y184000D02*
D03*
X61000D02*
D03*
X71000Y194000D02*
D03*
X61000D02*
D03*
X71000Y204000D02*
D03*
D51*
X355500Y210000D02*
D03*
X61000Y204000D02*
D03*
D52*
X367500Y297685D02*
D03*
X367567Y33843D02*
D03*
D53*
X367500Y287842D02*
D03*
Y278000D02*
D03*
X367567Y24000D02*
D03*
Y14157D02*
D03*
D54*
X339000Y272051D02*
D03*
X239000Y42000D02*
D03*
D55*
X67250Y270342D02*
D03*
X99750D02*
D03*
D56*
X26000Y302000D02*
D03*
Y292000D02*
D03*
D57*
X15000Y199000D02*
D03*
Y179315D02*
D03*
Y189157D02*
D03*
Y154500D02*
D03*
Y134815D02*
D03*
Y144658D02*
D03*
Y243500D02*
D03*
Y223815D02*
D03*
Y233658D02*
D03*
D58*
X121500Y147500D02*
D03*
D59*
Y157500D02*
D03*
Y167500D02*
D03*
D60*
X365500Y99500D02*
D03*
X360500Y119500D02*
D03*
X365500D02*
D03*
X360500Y114500D02*
D03*
X365500D02*
D03*
X360500Y109500D02*
D03*
X365500D02*
D03*
X360500Y104500D02*
D03*
X365500D02*
D03*
X360500Y99500D02*
D03*
D61*
X27720Y28492D02*
D03*
Y62508D02*
D03*
D62*
X11972Y28492D02*
D03*
Y62508D02*
D03*
M02*
