G04*
G04 #@! TF.GenerationSoftware,Altium Limited,Altium Designer,25.6.2 (33)*
G04*
G04 Layer_Color=32896*
%FSLAX25Y25*%
%MOIN*%
G70*
G04*
G04 #@! TF.SameCoordinates,CE49FCD3-F284-452D-968F-53FA369C6713*
G04*
G04*
G04 #@! TF.FilePolarity,Positive*
G04*
G01*
G75*
%ADD16C,0.00600*%
D16*
X358734Y278932D02*
X359401Y279599D01*
X360734D01*
X361400Y278932D01*
Y276266D01*
X360734Y275600D01*
X359401D01*
X358734Y276266D01*
Y277599D01*
X360067D01*
X357401Y275600D02*
Y279599D01*
X354735Y275600D01*
Y279599D01*
X353403D02*
Y275600D01*
X351403D01*
X350737Y276266D01*
Y278932D01*
X351403Y279599D01*
X353403D01*
X358734Y15932D02*
X359401Y16599D01*
X360734D01*
X361400Y15932D01*
Y13266D01*
X360734Y12600D01*
X359401D01*
X358734Y13266D01*
Y14599D01*
X360067D01*
X357401Y12600D02*
Y16599D01*
X354735Y12600D01*
Y16599D01*
X353403D02*
Y12600D01*
X351403D01*
X350737Y13266D01*
Y15932D01*
X351403Y16599D01*
X353403D01*
X137400Y157599D02*
X134734D01*
X136067Y158932D02*
Y156266D01*
X130736Y159599D02*
X133401D01*
Y157599D01*
X132068Y158266D01*
X131402D01*
X130736Y157599D01*
Y156266D01*
X131402Y155600D01*
X132735D01*
X133401Y156266D01*
X129403Y159599D02*
Y156933D01*
X128070Y155600D01*
X126737Y156933D01*
Y159599D01*
X115400Y167599D02*
X112734D01*
X114067Y168932D02*
Y166267D01*
X108736Y169599D02*
X111401D01*
Y167599D01*
X110068Y168266D01*
X109402D01*
X108736Y167599D01*
Y166267D01*
X109402Y165600D01*
X110735D01*
X111401Y166267D01*
X107403Y169599D02*
Y166933D01*
X106070Y165600D01*
X104737Y166933D01*
Y169599D01*
X99405D02*
X98072D01*
X98739D01*
Y165600D01*
X99405D01*
X98072D01*
X96073D02*
Y169599D01*
X93407Y165600D01*
Y169599D01*
X113400Y149599D02*
Y146933D01*
X112067Y145600D01*
X110734Y146933D01*
Y149599D01*
X109401D02*
Y145600D01*
X107402D01*
X106736Y146266D01*
Y146933D01*
X107402Y147599D01*
X109401D01*
X107402D01*
X106736Y148266D01*
Y148932D01*
X107402Y149599D01*
X109401D01*
X105403D02*
Y146266D01*
X104736Y145600D01*
X103403D01*
X102737Y146266D01*
Y149599D01*
X98738Y148932D02*
X99405Y149599D01*
X100737D01*
X101404Y148932D01*
Y148266D01*
X100737Y147599D01*
X99405D01*
X98738Y146933D01*
Y146266D01*
X99405Y145600D01*
X100737D01*
X101404Y146266D01*
X18900Y293599D02*
Y289600D01*
X16901D01*
X16234Y290266D01*
Y290933D01*
X16901Y291599D01*
X18900D01*
X16901D01*
X16234Y292266D01*
Y292932D01*
X16901Y293599D01*
X18900D01*
X14901Y289600D02*
Y292266D01*
X13568Y293599D01*
X12235Y292266D01*
Y289600D01*
Y291599D01*
X14901D01*
X10903Y293599D02*
X8237D01*
X9570D01*
Y289600D01*
X4238D02*
X6904D01*
X4238Y292266D01*
Y292932D01*
X4905Y293599D01*
X6237D01*
X6904Y292932D01*
X18900Y304099D02*
Y300100D01*
X16901D01*
X16234Y300766D01*
Y301433D01*
X16901Y302099D01*
X18900D01*
X16901D01*
X16234Y302766D01*
Y303432D01*
X16901Y304099D01*
X18900D01*
X14901Y300100D02*
Y302766D01*
X13568Y304099D01*
X12235Y302766D01*
Y300100D01*
Y302099D01*
X14901D01*
X10903Y304099D02*
X8237D01*
X9570D01*
Y300100D01*
X6904D02*
X5571D01*
X6237D01*
Y304099D01*
X6904Y303432D01*
X320599Y21317D02*
Y18651D01*
X316600D01*
Y21317D01*
X318599Y18651D02*
Y19984D01*
X316600Y22650D02*
X320599D01*
X316600Y25316D01*
X320599D01*
X316600Y26649D02*
X319266D01*
X320599Y27981D01*
X319266Y29314D01*
X316600D01*
X318599D01*
Y26649D01*
Y30647D02*
Y33313D01*
X319932Y31980D02*
X317266D01*
X236600Y18651D02*
X240599D01*
Y20651D01*
X239932Y21317D01*
X238599D01*
X237933Y20651D01*
Y18651D01*
X240599Y22650D02*
X237266D01*
X236600Y23316D01*
Y24649D01*
X237266Y25316D01*
X240599D01*
Y26649D02*
X236600D01*
Y29314D01*
X238599Y30647D02*
Y33313D01*
X239932Y31980D02*
X237266D01*
X256600Y18651D02*
X260599D01*
Y20651D01*
X259932Y21317D01*
X258599D01*
X257933Y20651D01*
Y18651D01*
X260599Y22650D02*
X257266D01*
X256600Y23316D01*
Y24649D01*
X257266Y25316D01*
X260599D01*
Y26649D02*
X256600D01*
Y29314D01*
X258599Y30647D02*
Y33313D01*
X280599Y18651D02*
X276600D01*
Y20651D01*
X277266Y21317D01*
X279932D01*
X280599Y20651D01*
Y18651D01*
Y22650D02*
Y23983D01*
Y23316D01*
X276600D01*
Y22650D01*
Y23983D01*
Y25982D02*
X280599D01*
Y27981D01*
X279932Y28648D01*
X278599D01*
X277933Y27981D01*
Y25982D01*
Y27315D02*
X276600Y28648D01*
X278599Y29981D02*
Y32647D01*
X279932Y31314D02*
X277266D01*
X300599Y18651D02*
X296600D01*
Y20651D01*
X297266Y21317D01*
X299932D01*
X300599Y20651D01*
Y18651D01*
Y22650D02*
Y23983D01*
Y23316D01*
X296600D01*
Y22650D01*
Y23983D01*
Y25982D02*
X300599D01*
Y27981D01*
X299932Y28648D01*
X298599D01*
X297933Y27981D01*
Y25982D01*
Y27315D02*
X296600Y28648D01*
X298599Y29981D02*
Y32647D01*
X339599Y21317D02*
Y18651D01*
X335600D01*
Y21317D01*
X337599Y18651D02*
Y19984D01*
X335600Y22650D02*
X339599D01*
X335600Y25316D01*
X339599D01*
X335600Y26649D02*
X338266D01*
X339599Y27981D01*
X338266Y29314D01*
X335600D01*
X337599D01*
Y26649D01*
Y30647D02*
Y33313D01*
X238401Y292734D02*
Y295400D01*
X242400D01*
Y292734D01*
X240401Y295400D02*
Y294067D01*
X242400Y291401D02*
X238401D01*
X242400Y288736D01*
X238401D01*
X242400Y287403D02*
X239734D01*
X238401Y286070D01*
X239734Y284737D01*
X242400D01*
X240401D01*
Y287403D01*
Y283404D02*
Y280738D01*
X277401Y295400D02*
X281400D01*
Y293401D01*
X280734Y292734D01*
X278068D01*
X277401Y293401D01*
Y295400D01*
Y291401D02*
Y290068D01*
Y290735D01*
X281400D01*
Y291401D01*
Y290068D01*
Y288069D02*
X277401D01*
Y286070D01*
X278068Y285403D01*
X279401D01*
X280067Y286070D01*
Y288069D01*
Y286736D02*
X281400Y285403D01*
X279401Y284070D02*
Y281404D01*
X297401Y295400D02*
X301400D01*
Y293401D01*
X300734Y292734D01*
X298068D01*
X297401Y293401D01*
Y295400D01*
Y291401D02*
Y290068D01*
Y290735D01*
X301400D01*
Y291401D01*
Y290068D01*
Y288069D02*
X297401D01*
Y286070D01*
X298068Y285403D01*
X299401D01*
X300067Y286070D01*
Y288069D01*
Y286736D02*
X301400Y285403D01*
X299401Y284070D02*
Y281404D01*
X298068Y282737D02*
X300734D01*
X321400Y295400D02*
X317401D01*
Y293401D01*
X318068Y292734D01*
X319401D01*
X320067Y293401D01*
Y295400D01*
X317401Y291401D02*
X320734D01*
X321400Y290735D01*
Y289402D01*
X320734Y288736D01*
X317401D01*
Y287403D02*
X321400D01*
Y284737D01*
X319401Y283404D02*
Y280738D01*
X341400Y295400D02*
X337401D01*
Y293401D01*
X338068Y292734D01*
X339401D01*
X340067Y293401D01*
Y295400D01*
X337401Y291401D02*
X340734D01*
X341400Y290735D01*
Y289402D01*
X340734Y288736D01*
X337401D01*
Y287403D02*
X341400D01*
Y284737D01*
X339401Y283404D02*
Y280738D01*
X338068Y282071D02*
X340734D01*
X257401Y292734D02*
Y295400D01*
X261400D01*
Y292734D01*
X259401Y295400D02*
Y294067D01*
X261400Y291401D02*
X257401D01*
X261400Y288736D01*
X257401D01*
X261400Y287403D02*
X258734D01*
X257401Y286070D01*
X258734Y284737D01*
X261400D01*
X259401D01*
Y287403D01*
Y283404D02*
Y280738D01*
X258068Y282071D02*
X260734D01*
X41734Y145932D02*
X42401Y146599D01*
X43734D01*
X44400Y145932D01*
Y145266D01*
X43734Y144599D01*
X42401D01*
X41734Y143933D01*
Y143266D01*
X42401Y142600D01*
X43734D01*
X44400Y143266D01*
X40401Y146599D02*
X39068D01*
X39735D01*
Y142600D01*
X40401D01*
X39068D01*
X34403Y145932D02*
X35070Y146599D01*
X36403D01*
X37069Y145932D01*
Y143266D01*
X36403Y142600D01*
X35070D01*
X34403Y143266D01*
Y144599D01*
X35736D01*
X33070Y142600D02*
Y146599D01*
X30404Y142600D01*
Y146599D01*
X29072Y142600D02*
Y145266D01*
X27739Y146599D01*
X26406Y145266D01*
Y142600D01*
Y144599D01*
X29072D01*
X25073Y146599D02*
Y142600D01*
X22407D01*
X41734Y190932D02*
X42401Y191599D01*
X43734D01*
X44400Y190932D01*
Y190266D01*
X43734Y189599D01*
X42401D01*
X41734Y188933D01*
Y188267D01*
X42401Y187600D01*
X43734D01*
X44400Y188267D01*
X40401Y191599D02*
X39068D01*
X39735D01*
Y187600D01*
X40401D01*
X39068D01*
X34403Y190932D02*
X35070Y191599D01*
X36403D01*
X37069Y190932D01*
Y188267D01*
X36403Y187600D01*
X35070D01*
X34403Y188267D01*
Y189599D01*
X35736D01*
X33070Y187600D02*
Y191599D01*
X30404Y187600D01*
Y191599D01*
X29072Y187600D02*
Y190266D01*
X27739Y191599D01*
X26406Y190266D01*
Y187600D01*
Y189599D01*
X29072D01*
X25073Y191599D02*
Y187600D01*
X22407D01*
X41734Y234932D02*
X42401Y235599D01*
X43734D01*
X44400Y234932D01*
Y234266D01*
X43734Y233599D01*
X42401D01*
X41734Y232933D01*
Y232266D01*
X42401Y231600D01*
X43734D01*
X44400Y232266D01*
X40401Y235599D02*
X39068D01*
X39735D01*
Y231600D01*
X40401D01*
X39068D01*
X34403Y234932D02*
X35070Y235599D01*
X36403D01*
X37069Y234932D01*
Y232266D01*
X36403Y231600D01*
X35070D01*
X34403Y232266D01*
Y233599D01*
X35736D01*
X33070Y231600D02*
Y235599D01*
X30404Y231600D01*
Y235599D01*
X29072Y231600D02*
Y234266D01*
X27739Y235599D01*
X26406Y234266D01*
Y231600D01*
Y233599D01*
X29072D01*
X25073Y235599D02*
Y231600D01*
X22407D01*
X41734Y224932D02*
X42401Y225599D01*
X43734D01*
X44400Y224932D01*
Y222266D01*
X43734Y221600D01*
X42401D01*
X41734Y222266D01*
Y223599D01*
X43067D01*
X40401Y221600D02*
Y225599D01*
X37736Y221600D01*
Y225599D01*
X36403D02*
Y221600D01*
X34403D01*
X33737Y222266D01*
Y224932D01*
X34403Y225599D01*
X36403D01*
X41734Y180932D02*
X42401Y181599D01*
X43734D01*
X44400Y180932D01*
Y178267D01*
X43734Y177600D01*
X42401D01*
X41734Y178267D01*
Y179599D01*
X43067D01*
X40401Y177600D02*
Y181599D01*
X37736Y177600D01*
Y181599D01*
X36403D02*
Y177600D01*
X34403D01*
X33737Y178267D01*
Y180932D01*
X34403Y181599D01*
X36403D01*
X41734Y135932D02*
X42401Y136599D01*
X43734D01*
X44400Y135932D01*
Y133266D01*
X43734Y132600D01*
X42401D01*
X41734Y133266D01*
Y134599D01*
X43067D01*
X40401Y132600D02*
Y136599D01*
X37736Y132600D01*
Y136599D01*
X36403D02*
Y132600D01*
X34403D01*
X33737Y133266D01*
Y135932D01*
X34403Y136599D01*
X36403D01*
X44400Y154599D02*
X41734D01*
X43067Y155932D02*
Y153267D01*
X37736Y156599D02*
X40401D01*
Y154599D01*
X39068Y155266D01*
X38402D01*
X37736Y154599D01*
Y153267D01*
X38402Y152600D01*
X39735D01*
X40401Y153267D01*
X36403Y156599D02*
Y153933D01*
X35070Y152600D01*
X33737Y153933D01*
Y156599D01*
X44400Y199599D02*
X41734D01*
X43067Y200932D02*
Y198266D01*
X37736Y201599D02*
X40401D01*
Y199599D01*
X39068Y200266D01*
X38402D01*
X37736Y199599D01*
Y198266D01*
X38402Y197600D01*
X39735D01*
X40401Y198266D01*
X36403Y201599D02*
Y198933D01*
X35070Y197600D01*
X33737Y198933D01*
Y201599D01*
X44400Y243599D02*
X41734D01*
X43067Y244932D02*
Y242266D01*
X37736Y245599D02*
X40401D01*
Y243599D01*
X39068Y244266D01*
X38402D01*
X37736Y243599D01*
Y242266D01*
X38402Y241600D01*
X39735D01*
X40401Y242266D01*
X36403Y245599D02*
Y242933D01*
X35070Y241600D01*
X33737Y242933D01*
Y245599D01*
X161401Y287734D02*
Y290400D01*
X165400D01*
Y287734D01*
X163401Y290400D02*
Y289067D01*
X165400Y286401D02*
X161401D01*
X165400Y283735D01*
X161401D01*
Y282403D02*
X165400D01*
Y280403D01*
X164734Y279737D01*
X164067D01*
X163401Y280403D01*
Y282403D01*
Y280403D01*
X162734Y279737D01*
X162068D01*
X161401Y280403D01*
Y282403D01*
X163401Y278404D02*
Y275738D01*
X162068Y277071D02*
X164734D01*
X186599Y25266D02*
Y22600D01*
X182600D01*
Y25266D01*
X184599Y22600D02*
Y23933D01*
X182600Y26599D02*
X186599D01*
X182600Y29265D01*
X186599D01*
Y30597D02*
X182600D01*
Y32597D01*
X183266Y33263D01*
X183933D01*
X184599Y32597D01*
Y30597D01*
Y32597D01*
X185266Y33263D01*
X185932D01*
X186599Y32597D01*
Y30597D01*
X184599Y34596D02*
Y37262D01*
X185932Y35929D02*
X183266D01*
X206599Y25266D02*
Y22600D01*
X202600D01*
Y25266D01*
X204599Y22600D02*
Y23933D01*
X202600Y26599D02*
X206599D01*
X202600Y29265D01*
X206599D01*
Y30597D02*
X202600D01*
Y32597D01*
X203267Y33263D01*
X203933D01*
X204599Y32597D01*
Y30597D01*
Y32597D01*
X205266Y33263D01*
X205932D01*
X206599Y32597D01*
Y30597D01*
X204599Y34596D02*
Y37262D01*
X141401Y287734D02*
Y290400D01*
X145400D01*
Y287734D01*
X143401Y290400D02*
Y289067D01*
X145400Y286401D02*
X141401D01*
X145400Y283735D01*
X141401D01*
Y282403D02*
X145400D01*
Y280403D01*
X144734Y279737D01*
X144067D01*
X143401Y280403D01*
Y282403D01*
Y280403D01*
X142734Y279737D01*
X142068D01*
X141401Y280403D01*
Y282403D01*
X143401Y278404D02*
Y275738D01*
X181401Y287734D02*
Y290400D01*
X185400D01*
Y287734D01*
X183401Y290400D02*
Y289067D01*
X185400Y286401D02*
X181401D01*
X185400Y283735D01*
X181401D01*
X185400Y282403D02*
X182734D01*
X181401Y281070D01*
X182734Y279737D01*
X185400D01*
X183401D01*
Y282403D01*
Y278404D02*
Y275738D01*
X166599Y25266D02*
Y22600D01*
X162600D01*
Y25266D01*
X164599Y22600D02*
Y23933D01*
X162600Y26599D02*
X166599D01*
X162600Y29265D01*
X166599D01*
X162600Y30597D02*
X165266D01*
X166599Y31930D01*
X165266Y33263D01*
X162600D01*
X164599D01*
Y30597D01*
Y34596D02*
Y37262D01*
X146599Y25266D02*
Y22600D01*
X142600D01*
Y25266D01*
X144599Y22600D02*
Y23933D01*
X142600Y26599D02*
X146599D01*
X142600Y29265D01*
X146599D01*
X142600Y30597D02*
X145266D01*
X146599Y31930D01*
X145266Y33263D01*
X142600D01*
X144599D01*
Y30597D01*
Y34596D02*
Y37262D01*
X145932Y35929D02*
X143266D01*
X201401Y287734D02*
Y290400D01*
X205400D01*
Y287734D01*
X203401Y290400D02*
Y289067D01*
X205400Y286401D02*
X201401D01*
X205400Y283735D01*
X201401D01*
X205400Y282403D02*
X202734D01*
X201401Y281070D01*
X202734Y279737D01*
X205400D01*
X203401D01*
Y282403D01*
Y278404D02*
Y275738D01*
X202068Y277071D02*
X204733D01*
X67401Y305996D02*
Y303331D01*
X66068Y304663D02*
X68734D01*
X65401Y299332D02*
Y301998D01*
X67401D01*
X66734Y300665D01*
Y299998D01*
X67401Y299332D01*
X68734D01*
X69400Y299998D01*
Y301331D01*
X68734Y301998D01*
X65401Y297999D02*
X68067D01*
X69400Y296666D01*
X68067Y295333D01*
X65401D01*
Y290002D02*
Y288669D01*
Y289335D01*
X69400D01*
Y290002D01*
Y288669D01*
Y286669D02*
X65401D01*
X69400Y284003D01*
X65401D01*
X98068Y291734D02*
X97401Y292401D01*
Y293734D01*
X98068Y294400D01*
X100734D01*
X101400Y293734D01*
Y292401D01*
X100734Y291734D01*
X99401D01*
Y293067D01*
X101400Y290401D02*
X97401D01*
X101400Y287736D01*
X97401D01*
Y286403D02*
X101400D01*
Y284403D01*
X100734Y283737D01*
X98068D01*
X97401Y284403D01*
Y286403D01*
M02*
