M48
;Layer_Color=9474304
;FILE_FORMAT=2:5
INCH,LZ
;TYPE=PLATED
T01F00S00C0.01200
T03F00S00C0.02756
T04F00S00C0.02800
T05F00S00C0.03937
T06F00S00C0.04213
T07F00S00C0.05118
T08F00S00C0.12000
%
T01
X00455Y0058
X004925Y005775
X00595Y00555
Y006
X0183Y00655
X02125Y0105
X02165Y0122
X02135Y01305
X02195Y0132
X0205Y01285
X01995Y0128
X0205Y01215
X02005Y01395
X021Y0145
X01965Y01512
X02285Y0155
X0231Y01525
X0236Y01545
X02365Y01495
X0239Y01465
X02425
X0245Y0149
X02425Y01515
X02395Y0152
X0248Y01515
X027Y01455
X0263Y0133
X02575Y01305
X0252232Y0125768
X0247Y00945
X02905Y0094
X02965Y0134
X016759Y01395
X01505Y01365
X0307Y0114
X032
X0334Y00665
X03065Y00465
X03165Y0214
X0322Y0217
X03505Y0192
X03595Y0198
X02825Y01945
X0276Y01965
Y0177
X02725Y01805
X02875Y018
X0285Y0164
X0277Y01675
X0251Y0162
X02465Y01645
X02445Y0163
X024Y0162
X02405Y0166
Y01685
X02365Y01635
X0234Y01655
X0233Y016
X0229
X0247Y01565
X02525
X0258Y019
X0231Y0193
X0242Y02055
X0199Y0223
X01915Y0216
X0195Y01845
X0206Y01765
X0185Y0164
X01705Y01716
X0148Y01715
X0168Y02515
X01605Y02725
X0132Y0266283
X0086717
X00785Y02745
X0076Y0216
X0121Y01965
X0135Y02
T03
X0367Y0175
X0372
Y018
X0367
Y0185
X0372
Y019
X0367
Y0195
X0372
X0023
X0018
Y019
Y0185
Y018
Y0175
X0023
Y018
Y0185
Y019
T04
X0113Y015
Y0155
Y016
T05
X0149315Y002
X0159158
X0169
X0166146Y0293933
X0156303
X0146461
T06
X0365Y011
Y012
Y013
X0375
Y012
Y011
T07
X0243Y0014
X0253
X0263
X0273
X0283
X0293
X032
X033
X034
X035
X0349Y0302
X0339
X0329
X0319
X0293Y0301
X0283
X0273
X0263
X0253
X0243
X0037Y0297
X0027
X0017Y0254
Y0244
T08
X00095Y0009
X0378Y00105
X03795Y03055
X0009
M30
